<?xml version="1.0" encoding="UTF-8" standalone="no"?>
<!-- Created with Inkscape (http://www.inkscape.org/) -->

<svg
   width="44.278961mm"
   height="24.108837mm"
   viewBox="0 0 44.278961 24.108837"
   version="1.1"
   id="svg906"
   inkscape:version="1.1.1 (3bf5ae0d25, 2021-09-20)"
   sodipodi:docname="car.svg"
   xmlns:inkscape="http://www.inkscape.org/namespaces/inkscape"
   xmlns:sodipodi="http://sodipodi.sourceforge.net/DTD/sodipodi-0.dtd"
   xmlns="http://www.w3.org/2000/svg"
   xmlns:svg="http://www.w3.org/2000/svg">
  <sodipodi:namedview
     id="namedview908"
     pagecolor="#ffffff"
     bordercolor="#666666"
     borderopacity="1.0"
     inkscape:pageshadow="2"
     inkscape:pageopacity="0.0"
     inkscape:pagecheckerboard="0"
     inkscape:document-units="mm"
     showgrid="false"
     showguides="true"
     inkscape:guide-bbox="true"
     fit-margin-top="0"
     fit-margin-left="0"
     fit-margin-right="0"
     fit-margin-bottom="0"
     inkscape:zoom="2.6876565"
     inkscape:cx="140.08487"
     inkscape:cy="62.507989"
     inkscape:window-width="1916"
     inkscape:window-height="983"
     inkscape:window-x="0"
     inkscape:window-y="95"
     inkscape:window-maximized="1"
     inkscape:current-layer="layer1">
    <sodipodi:guide
       position="48.678243,23.936068"
       orientation="0,-1"
       id="guide1012" />
  </sodipodi:namedview>
  <defs
     id="defs903" />
  <g
     inkscape:label="Layer 1"
     inkscape:groupmode="layer"
     id="layer1"
     transform="translate(0.17784331,-140.10585)">
    <g
       id="g6111"
       transform="matrix(1.3194465,5.8757427e-4,-5.8757427e-4,1.3194465,-72.095631,-183.09477)">
      <rect
         style="opacity:1;fill:#5f8dd3;fill-opacity:1;stroke:#000000;stroke-width:0.265;stroke-linecap:round;stroke-linejoin:round;stroke-miterlimit:4;stroke-dasharray:none;stroke-dashoffset:0;stroke-opacity:1;paint-order:markers fill stroke"
         id="rect3084"
         width="33.288841"
         height="17.995224"
         x="54.754112"
         y="245.05823"
         rx="3.5" />
      <rect
         style="opacity:1;fill:#cccccc;fill-opacity:1;stroke:none;stroke-width:2.86499;stroke-linecap:round;stroke-linejoin:round;stroke-miterlimit:4;stroke-dasharray:8.59499, 8.59499;stroke-dashoffset:0;stroke-opacity:1;paint-order:markers fill stroke"
         id="rect4116"
         width="14.824042"
         height="17.425028"
         x="59.33379"
         y="245.36389"
         rx="3.5" />
      <rect
         style="opacity:1;fill:#cccccc;fill-opacity:1;stroke:none;stroke-width:2.86499;stroke-linecap:round;stroke-linejoin:round;stroke-miterlimit:4;stroke-dasharray:8.59499, 8.59499;stroke-dashoffset:0;stroke-opacity:1;paint-order:markers fill stroke"
         id="rect3916"
         width="14.824042"
         height="17.425028"
         x="63.809288"
         y="245.36389"
         rx="3.5" />
      <rect
         style="opacity:1;fill:#214478;fill-opacity:1;stroke:#000000;stroke-width:0.265;stroke-linecap:round;stroke-linejoin:round;stroke-miterlimit:4;stroke-dasharray:none;stroke-dashoffset:0;stroke-opacity:1;paint-order:markers fill stroke"
         id="rect3628"
         width="14.824042"
         height="17.425028"
         x="61.163452"
         y="245.36389"
         rx="2.2" />
      <path
         style="fill:#ffeeaa;stroke:#000000;stroke-width:0.1;stroke-linecap:butt;stroke-linejoin:miter;stroke-miterlimit:4;stroke-dasharray:none;stroke-opacity:1"
         d="m 86.525898,245.71729 c 0,0 -0.386086,0.88275 -0.226517,1.82347 0.167491,0.98743 1.708612,1.68989 1.708612,1.68989 0,0 0.142906,-0.95549 -0.08691,-1.76517 -0.09914,-0.34927 -0.360938,-0.80023 -0.691933,-1.18476 -0.335144,-0.38935 -0.703249,-0.56343 -0.703249,-0.56343 z"
         id="path4543"
         sodipodi:nodetypes="cscsscc" />
      <path
         style="fill:#ffeeaa;stroke:#000000;stroke-width:0.1;stroke-linecap:butt;stroke-linejoin:miter;stroke-miterlimit:4;stroke-dasharray:none;stroke-opacity:1"
         d="m 86.525898,262.39716 c 0,0 -0.386086,-0.88275 -0.226517,-1.82347 0.167491,-0.98743 1.708612,-1.68989 1.708612,-1.68989 0,0 0.142906,0.95549 -0.08691,1.76517 -0.09914,0.34927 -0.360938,0.80023 -0.691933,1.18476 -0.335144,0.38935 -0.703249,0.56343 -0.703249,0.56343 z"
         id="path5133"
         sodipodi:nodetypes="cscsscc" />
      <path
         style="fill:#800000;stroke:#000000;stroke-width:0.1;stroke-linecap:butt;stroke-linejoin:miter;stroke-miterlimit:4;stroke-dasharray:none;stroke-opacity:1"
         d="m 56.300863,245.71729 c 0,0 0.386086,0.88275 0.226517,1.82347 -0.167491,0.98743 -1.708612,1.68989 -1.708612,1.68989 0,0 -0.142906,-0.95549 0.08691,-1.76517 0.09914,-0.34927 0.360938,-0.80023 0.691933,-1.18476 0.335144,-0.38935 0.703249,-0.56343 0.703249,-0.56343 z"
         id="path5135"
         sodipodi:nodetypes="cscsscc" />
      <path
         style="fill:#800000;stroke:#000000;stroke-width:0.1;stroke-linecap:butt;stroke-linejoin:miter;stroke-miterlimit:4;stroke-dasharray:none;stroke-opacity:1"
         d="m 56.300863,262.39716 c 0,0 0.386086,-0.88275 0.226517,-1.82347 -0.167491,-0.98743 -1.708612,-1.68989 -1.708612,-1.68989 0,0 -0.142906,0.95549 0.08691,1.76517 0.09914,0.34927 0.360938,0.80023 0.691933,1.18476 0.335144,0.38935 0.703249,0.56343 0.703249,0.56343 z"
         id="path5137"
         sodipodi:nodetypes="cscsscc" />
    </g>
  </g>
</svg>
