<?xml version="1.0" encoding="UTF-8" standalone="no"?>
<!-- Created with Inkscape (http://www.inkscape.org/) -->

<svg
   width="51.67495mm"
   height="46.644531mm"
   viewBox="0 0 51.67495 46.644531"
   version="1.1"
   id="svg28341"
   inkscape:version="1.1.1 (3bf5ae0d25, 2021-09-20)"
   sodipodi:docname="basil.svg"
   xmlns:inkscape="http://www.inkscape.org/namespaces/inkscape"
   xmlns:sodipodi="http://sodipodi.sourceforge.net/DTD/sodipodi-0.dtd"
   xmlns="http://www.w3.org/2000/svg"
   xmlns:svg="http://www.w3.org/2000/svg">
  <sodipodi:namedview
     id="namedview28343"
     pagecolor="#ffffff"
     bordercolor="#666666"
     borderopacity="1.0"
     inkscape:pageshadow="2"
     inkscape:pageopacity="0.0"
     inkscape:pagecheckerboard="0"
     inkscape:document-units="mm"
     showgrid="false"
     fit-margin-top="0"
     fit-margin-left="0"
     fit-margin-right="0"
     fit-margin-bottom="0"
     inkscape:zoom="0.77593294"
     inkscape:cx="-110.18993"
     inkscape:cy="144.34237"
     inkscape:window-width="1916"
     inkscape:window-height="947"
     inkscape:window-x="1920"
     inkscape:window-y="131"
     inkscape:window-maximized="1"
     inkscape:current-layer="layer1" />
  <defs
     id="defs28338" />
  <g
     inkscape:label="Layer 1"
     inkscape:groupmode="layer"
     id="layer1"
     transform="translate(-134.0856,-110.34478)">
    <g
       id="g28187"
       transform="translate(23.959075,29.102911)">
      <path
         style="fill:#5b950a;fill-opacity:1;stroke:#000000;stroke-width:0.264583px;stroke-linecap:butt;stroke-linejoin:miter;stroke-opacity:1"
         d="m 110.2591,82.910782 c 0,0 3.91705,3.246165 4.61924,4.860396 0.70218,1.614231 1.726,3.781158 1.02078,5.523619 -0.70522,1.742461 -0.85388,8.828113 0.67329,13.091763 1.52717,4.26365 2.31782,6.35648 3.11917,7.83292 0.80135,1.47643 2.82839,4.08372 3.78537,4.55334 0.95697,0.46961 5.4842,3.42224 6.50102,4.19843 1.01682,0.77619 8.53927,4.0012 11.10931,4.46813 2.57003,0.46693 13.17232,0.40687 15.39819,-0.13168 2.22588,-0.53856 4.07393,-0.51262 4.91876,-1.42592 0.84483,-0.9133 -0.60412,-5.28991 -0.60016,-6.1608 0.004,-0.87089 -2.36931,-5.22305 -2.17644,-5.67371 0.19288,-0.45066 -1.53562,-5.22449 -1.19686,-6.13129 0.33876,-0.90681 -2.95525,-7.61981 -3.7161,-9.257352 -0.76086,-1.63754 -5.53368,-7.530491 -7.39767,-8.540442 -1.864,-1.009955 -7.29192,-2.642564 -12.99924,-3.362963 -5.70732,-0.720397 -11.57922,0.310896 -12.65621,0.310896 -1.07699,0 -2.96469,0.275254 -3.85255,-0.824876 -0.88786,-1.100132 -4.52144,-4.867079 -5.30941,-4.867079 -0.78796,0 -1.23531,0.390485 -1.24049,1.536618 z"
         id="path6800" />
      <path
         id="path18639"
         style="fill:#6ea70c;fill-opacity:1;stroke:none;stroke-width:0.999999px;stroke-linecap:butt;stroke-linejoin:miter;stroke-opacity:1"
         d="m 487.87695,326.92773 c -15.53284,-0.0524 -28.7811,2.14063 -31.83398,2.14063 -1.23084,0 -2.75154,0.0858 -4.35352,0.10352 -3.0875,2.26085 -1.08943,0.83369 1.38477,5.94335 3.2674,6.74778 23.08965,4.81123 32.88086,11.5625 9.7912,6.75128 14.07811,17.41332 23.5625,27.88086 9.48438,10.46756 28.88357,24.7624 33.60937,34.61329 4.72581,9.85088 -1.44131,9.36701 2.14063,17.17578 3.58193,7.80876 13.74815,14.1156 22.95508,16.51367 9.20693,2.39807 15.47505,4.1248 20.80078,-3.32227 5.32573,-7.44725 3.72675,-14.88327 0.75,-27.20117 -2.97676,-12.3179 -12.06042,-27.73822 -19.9043,-39.18164 -7.84388,-11.44342 -17.28851,-19.81356 -26.25586,-29.23437 -2.77023,-2.91033 -4.95406,-6.13321 -7.11523,-9.35157 -9.17029,-2.6249 -20.72662,-5.17466 -32.61914,-6.67578 -5.39275,-0.68069 -10.82434,-0.94933 -16.00196,-0.9668 z"
         transform="scale(0.26458333)" />
      <path
         style="fill:#b3dc5d;fill-opacity:1;stroke:none;stroke-width:0.264583px;stroke-linecap:butt;stroke-linejoin:miter;stroke-opacity:1"
         d="m 122.69686,94.40786 c 0,0 11.26337,-0.263041 12.57639,-0.263041 1.31302,0 7.13034,1.205552 9.04878,2.061306 1.7593,0.784766 2.42075,1.097431 2.42075,1.097431 0,0 -2.54186,-0.825598 -3.34377,-1.077749 -0.80192,-0.252151 -6.84427,-1.791237 -7.49329,-1.709502 -0.64903,0.08174 -12.65459,0.06985 -13.11379,0.424037 -0.4592,0.354187 -0.0951,-0.532482 -0.0951,-0.532482 z"
         id="path12570"
         sodipodi:nodetypes="csscssscc" />
      <path
         style="fill:#5e980b;fill-opacity:1;stroke:none;stroke-width:0.264583px;stroke-linecap:butt;stroke-linejoin:miter;stroke-opacity:1"
         d="m 122.59809,94.101101 c 0,0 11.26337,-0.263041 12.57639,-0.263041 1.31302,0 7.20895,1.047518 9.04878,2.061306 1.83982,1.013788 2.97655,1.619736 2.97655,1.619736 0,0 -3.09766,-1.347903 -3.89957,-1.600054 -0.80192,-0.252151 -6.84427,-1.791237 -7.49329,-1.709502 -0.64903,0.08174 -12.65459,0.06985 -13.11379,0.424037 -0.4592,0.354187 -0.0951,-0.532482 -0.0951,-0.532482 z"
         id="path9776" />
      <path
         id="path20837"
         style="fill:#528609;fill-opacity:1;stroke:none;stroke-width:0.999999px;stroke-linecap:butt;stroke-linejoin:miter;stroke-opacity:1"
         d="m 449.99805,372.68359 c -0.52306,0.0951 -0.35064,1.58603 -3.00586,5.44727 -3.62389,5.26986 -3.15726,19.97306 -3.50586,31.96484 3.91723,10.74642 6.43157,17.06896 8.89062,21.59961 3.02873,5.58021 10.68971,15.43405 14.30664,17.20899 3.6169,1.7749 20.72917,12.93551 24.57227,15.86914 3.8431,2.93363 32.27474,15.12194 41.98828,16.88672 9.7135,1.76477 49.78453,1.53741 58.19727,-0.49805 8.41277,-2.0355 15.39678,-1.93683 18.58984,-5.38867 0.46691,-0.50476 0.74432,-1.29517 0.88477,-2.27735 -6.16754,-0.90164 -15.64519,0.1524 -19.80664,-1.58984 -5.99528,-2.51002 -10.02248,-6.82534 -17.94532,-8.83008 -7.92283,-2.00474 -17.22108,-3.5204 -26.48047,-8.45117 -9.25939,-4.93077 -19.5988,-20.85607 -27.55664,-21.81641 -7.95783,-0.96034 -4.61806,6.87149 -11.76953,5.39063 -7.15147,-1.48086 -14.54366,-24.07144 -20.65625,-22.94336 -6.11259,1.12807 2.40937,4.64259 -2.31055,5.99219 -4.71991,1.34959 -12.65759,-6.08911 -18.39257,-13.86133 -5.73498,-7.77222 -5.21222,-30.1988 -11.85743,-32.84766 -2.90727,-1.15887 -3.73575,-1.92941 -4.14257,-1.85547 z"
         transform="scale(0.26458333)" />
      <path
         style="fill:#50830a;fill-opacity:1;stroke:none;stroke-width:0.206381px;stroke-linecap:butt;stroke-linejoin:miter;stroke-opacity:1"
         d="m 120.23361,92.859568 c 0,0 -0.47389,4.500702 -0.50724,6.331365 -0.0333,1.830667 0.004,2.608147 0.19885,4.591267 0.19438,1.98312 2.01164,6.91379 2.01164,6.91379 0,0 -1.46816,-4.92443 -1.56074,-6.9131 -0.0926,-1.98867 -0.082,-2.93839 -0.008,-4.66507 0.0739,-1.72668 0.49719,-5.661939 0.49719,-5.661939 z"
         id="path22600"
         sodipodi:nodetypes="czzczzcc" />
      <path
         style="fill:#b3dc5d;fill-opacity:1;stroke:none;stroke-width:0.264583px;stroke-linecap:butt;stroke-linejoin:miter;stroke-opacity:1"
         d="m 128.94944,101.22221 c 0,0 11.33592,0.14053 12.64894,0.14053 1.31302,0 6.02454,1.48078 7.94298,2.33653 1.7593,0.78477 4.84119,2.43433 4.84119,2.43433 0,0 -4.9623,-2.1625 -5.76421,-2.41465 -0.80192,-0.25215 -5.82227,-1.81135 -6.6259,-1.9012 -0.6501,-0.0727 -12.48873,-0.4173 -12.94793,-0.0631 -0.4592,0.35418 -0.0951,-0.53248 -0.0951,-0.53248 z"
         id="path13585"
         sodipodi:nodetypes="csscssscc" />
      <path
         style="fill:#b3dc5d;fill-opacity:1;stroke:none;stroke-width:0.206381px;stroke-linecap:butt;stroke-linejoin:miter;stroke-opacity:1"
         d="m 120.65577,93.20116 c 0,0 -0.47389,4.500702 -0.50724,6.331365 -0.0333,1.830665 0.004,2.608145 0.19885,4.591265 0.19438,1.98312 1.58948,6.5722 1.58948,6.5722 0,0 -1.046,-4.58284 -1.13858,-6.57151 -0.0926,-1.98867 -0.082,-2.93839 -0.008,-4.665068 0.0739,-1.72668 0.49718,-5.661939 0.49718,-5.661939 z"
         id="path22775"
         sodipodi:nodetypes="czzczzcc" />
      <path
         style="fill:#5e980b;fill-opacity:1;stroke:none;stroke-width:0.264583px;stroke-linecap:butt;stroke-linejoin:miter;stroke-opacity:1"
         d="m 128.85067,100.91545 c 0,0 11.09751,0.22406 12.41053,0.22406 1.31302,0 6.34156,1.23921 8.18139,2.253 1.83982,1.01379 5.39699,2.95664 5.39699,2.95664 0,0 -5.5181,-2.68481 -6.32001,-2.93696 -0.80192,-0.25215 -5.97688,-1.98293 -6.6259,-1.9012 -0.64903,0.0817 -12.48873,-0.4172 -12.94793,-0.0631 -0.4592,0.35419 -0.0951,-0.53248 -0.0951,-0.53248 z"
         id="path13587"
         sodipodi:nodetypes="csscssccc" />
      <path
         style="fill:#50830a;fill-opacity:1;stroke:none;stroke-width:0.206381px;stroke-linecap:butt;stroke-linejoin:miter;stroke-opacity:1"
         d="m 127.89559,100.28431 c 0,0 -0.80592,5.20879 -0.83927,7.03945 -0.0333,1.83067 0.18584,3.3767 0.72564,5.29486 0.53934,1.91825 2.03501,6.51689 2.03501,6.51689 0,0 -1.15089,-4.65376 -1.59098,-6.59533 -0.44011,-1.94156 -0.60192,-3.56285 -0.52792,-5.28953 0.0739,-1.72668 0.82922,-6.37003 0.82922,-6.37003 z"
         id="path24866"
         sodipodi:nodetypes="czzczzcc" />
      <path
         style="fill:#b3dc5d;fill-opacity:1;stroke:none;stroke-width:0.264583px;stroke-linecap:butt;stroke-linejoin:miter;stroke-opacity:1"
         d="m 138.02345,109.41662 c 0,0 5.40711,-0.22734 6.72013,-0.22734 1.31302,0 4.87377,1.17684 6.79221,2.03259 1.7593,0.78477 4.03707,2.61028 4.03707,2.61028 0,0 -4.15818,-2.33845 -4.96009,-2.5906 -0.80192,-0.25215 -4.6715,-1.50741 -5.47513,-1.59726 -0.6501,-0.0727 -6.55992,-0.0494 -7.01912,0.30477 -0.4592,0.35418 -0.0951,-0.53248 -0.0951,-0.53248 z"
         id="path14182"
         sodipodi:nodetypes="csscssscc" />
      <path
         style="fill:#b3dc5d;fill-opacity:1;stroke:none;stroke-width:0.206381px;stroke-linecap:butt;stroke-linejoin:miter;stroke-opacity:1"
         d="m 128.31775,100.6259 c 0,0 -0.80592,5.20879 -0.83927,7.03945 -0.0333,1.83067 0.23923,3.29732 0.77903,5.21549 0.53934,1.91824 1.55946,6.25467 1.55946,6.25467 0,0 -0.67534,-4.39154 -1.11543,-6.33311 -0.44012,-1.94157 -0.65531,-3.48348 -0.58131,-5.21016 0.0739,-1.72668 0.82921,-6.37003 0.82921,-6.37003 z"
         id="path24868"
         sodipodi:nodetypes="czzczzcc" />
      <path
         style="fill:#5e980b;fill-opacity:1;stroke:none;stroke-width:0.264583px;stroke-linecap:butt;stroke-linejoin:miter;stroke-opacity:1"
         d="m 137.92468,109.10986 c 0,0 5.1687,-0.14381 6.48172,-0.14381 1.31302,0 5.19079,0.93527 7.03062,1.94906 1.83982,1.01379 4.51628,3.1832 4.51628,3.1832 0,0 -4.63739,-2.91137 -5.4393,-3.16352 -0.80192,-0.25215 -4.82611,-1.67899 -5.47513,-1.59726 -0.64903,0.0817 -6.55992,-0.0493 -7.01912,0.30477 -0.4592,0.35419 -0.0951,-0.53248 -0.0951,-0.53248 z"
         id="path14184"
         sodipodi:nodetypes="csscssccc" />
      <path
         style="fill:#b3dc5d;fill-opacity:1;stroke:none;stroke-width:0.264583px;stroke-linecap:butt;stroke-linejoin:miter;stroke-opacity:1"
         d="m 150.54566,119.77452 c 0,0 0.94305,-0.75619 2.18326,-1.18735 1.24021,-0.43117 1.46204,-0.40205 3.50672,0.0797 0.64983,0.1531 2.55339,0.99506 2.55339,0.99506 0,0 -1.96815,-0.59432 -2.83369,-0.76624 -0.82452,-0.16378 -1.91623,-0.1871 -2.7048,-0.008 -0.63792,0.14481 -2.12281,0.87335 -2.44024,1.35867 -0.31743,0.48534 -0.26468,-0.47172 -0.26468,-0.47172 z"
         id="path14361"
         sodipodi:nodetypes="csscssscc" />
      <path
         style="fill:#4e7e09;fill-opacity:1;stroke:none;stroke-width:0.264583px;stroke-linecap:butt;stroke-linejoin:miter;stroke-opacity:1"
         d="m 150.35163,119.5172 c 0,0 0.7453,-0.599 1.9855,-1.03016 1.24021,-0.43117 1.57263,-0.38229 3.64334,-0.0289 2.0707,0.35341 3.24465,1.42573 3.24465,1.42573 0,0 -2.62356,-1.27076 -3.4638,-1.24559 -0.84025,0.0252 -2.11861,-0.2983 -2.7048,-0.008 -0.58621,0.2903 -2.12278,0.87344 -2.44025,1.35867 -0.31743,0.48534 -0.26468,-0.47172 -0.26468,-0.47172 z"
         id="path14363"
         sodipodi:nodetypes="csscssccc" />
      <path
         style="fill:#50830a;fill-opacity:1;stroke:none;stroke-width:0.206381px;stroke-linecap:butt;stroke-linejoin:miter;stroke-opacity:1"
         d="m 138.01928,110.10327 c 0,0 -0.18323,5.36279 0.44072,7.08417 0.624,1.72136 1.32138,2.80648 2.57829,4.35274 1.25651,1.54652 5.49304,4.6555 5.49304,4.6555 0,0 -3.94196,-3.29643 -5.11664,-4.90376 -1.1747,-1.60731 -1.83282,-2.76358 -2.3816,-4.4024 -0.54887,-1.63879 -0.38211,-6.18994 -0.38211,-6.18994 z"
         id="path25083"
         sodipodi:nodetypes="czzczzcc" />
      <path
         style="fill:#b3dc5d;fill-opacity:1;stroke:none;stroke-width:0.206381px;stroke-linecap:butt;stroke-linejoin:miter;stroke-opacity:1"
         d="m 138.44144,110.44486 c 0,0 -0.089,5.18911 0.535,6.91049 0.624,1.72135 1.34551,2.69046 2.60241,4.23672 1.25651,1.54652 4.95248,4.60361 4.95248,4.60361 0,0 -3.4014,-3.24454 -4.57608,-4.85187 -1.17469,-1.60732 -1.85694,-2.64756 -2.40572,-4.28639 -0.54887,-1.63878 -0.4764,-6.01625 -0.4764,-6.01625 z"
         id="path25085"
         sodipodi:nodetypes="czzczzcc" />
      <path
         id="path8071"
         style="fill:#d8ef85;fill-opacity:1;stroke:none;stroke-width:0.999999px;stroke-linecap:butt;stroke-linejoin:miter;stroke-opacity:1"
         d="m 419.69141,307.77734 c -1.62524,0.46762 -2.62991,1.73984 -2.89258,4.24024 2.83326,2.60127 7.52452,5.97245 8.57812,6.77734 1.55539,1.18822 14.67258,15.59921 16.53907,18.05664 1.86652,2.45742 11.81394,14.01956 14.33984,16.81055 2.52593,2.79098 26.23852,26.71083 26.99609,28.19531 0.75757,1.48449 30.1868,27.33021 33.02149,29.95313 2.83468,2.62291 13.59377,13.01023 14.62304,14.0332 1.02928,1.023 11.56276,13.09916 13.73047,14.50586 2.16771,1.40666 14.45394,9.59017 19.14649,11.70508 4.69258,2.11487 18.33217,11.79561 20.875,12.99414 2.54283,1.19852 9.38476,1.9707 9.38476,1.9707 0,0 -4.66004,-1.78173 -7.58203,-2.85156 -2.92191,-1.06983 -15.17631,-9.5318 -17.58984,-11.21875 -2.41349,-1.68699 -21.38861,-13.21025 -23.60156,-14.75195 -2.21292,-1.54175 -22.27084,-23.54055 -22.92383,-24.07422 -0.65299,-0.53367 -25.02814,-23.40231 -27.91211,-25.87696 -2.88397,-2.47464 -33.66763,-35.96396 -37.01758,-39.76757 -3.34998,-3.80363 -18.77775,-22.52705 -21.27734,-24.96875 -2.30195,-2.24868 -14.38638,-13.77602 -16.4375,-15.73243 z"
         transform="scale(0.26458333)" />
      <path
         style="fill:none;fill-opacity:1;stroke:#000000;stroke-width:0.264583px;stroke-linecap:butt;stroke-linejoin:miter;stroke-opacity:1"
         d="m 110.2591,82.910782 c 0,0 3.91705,3.246165 4.61924,4.860396 0.70218,1.614231 1.726,3.781158 1.02078,5.523619 -0.70522,1.742461 -0.85388,8.828113 0.67329,13.091763 1.52717,4.26365 2.31782,6.35648 3.11917,7.83292 0.80135,1.47643 2.82839,4.08372 3.78537,4.55334 0.95697,0.46961 5.4842,3.42224 6.50102,4.19843 1.01682,0.77619 8.53927,4.0012 11.10931,4.46813 2.57003,0.46693 13.17232,0.40687 15.39819,-0.13168 2.22588,-0.53856 4.07393,-0.51262 4.91876,-1.42592 0.84483,-0.9133 -0.60412,-5.28991 -0.60016,-6.1608 0.004,-0.87089 -2.36931,-5.22305 -2.17644,-5.67371 0.19288,-0.45066 -1.53562,-5.22449 -1.19686,-6.13129 0.33876,-0.90681 -2.95525,-7.61981 -3.7161,-9.257352 -0.76086,-1.63754 -5.53368,-7.530491 -7.39767,-8.540442 -1.864,-1.009955 -7.29192,-2.642564 -12.99924,-3.362963 -5.70732,-0.720397 -11.57922,0.310896 -12.65621,0.310896 -1.07699,0 -2.96469,0.275254 -3.85255,-0.824876 -0.88786,-1.100132 -4.52144,-4.867079 -5.30941,-4.867079 -0.78796,0 -1.23531,0.390485 -1.24049,1.536618 z"
         id="path28148" />
    </g>
  </g>
</svg>
