<?xml version="1.0" encoding="UTF-8" standalone="no"?>
<!-- Created with Inkscape (http://www.inkscape.org/) -->

<svg
   width="41.839912mm"
   height="39.242821mm"
   viewBox="0 0 41.839912 39.242821"
   version="1.1"
   id="svg17428"
   inkscape:version="1.1.1 (3bf5ae0d25, 2021-09-20)"
   sodipodi:docname="corn_kernel_01.svg"
   xmlns:inkscape="http://www.inkscape.org/namespaces/inkscape"
   xmlns:sodipodi="http://sodipodi.sourceforge.net/DTD/sodipodi-0.dtd"
   xmlns="http://www.w3.org/2000/svg"
   xmlns:svg="http://www.w3.org/2000/svg">
  <sodipodi:namedview
     id="namedview17430"
     pagecolor="#ffffff"
     bordercolor="#666666"
     borderopacity="1.0"
     inkscape:pageshadow="2"
     inkscape:pageopacity="0.0"
     inkscape:pagecheckerboard="0"
     inkscape:document-units="mm"
     showgrid="false"
     fit-margin-top="0"
     fit-margin-left="0"
     fit-margin-right="0"
     fit-margin-bottom="0"
     inkscape:zoom="2.3168921"
     inkscape:cx="78.769313"
     inkscape:cy="110.06123"
     inkscape:window-width="1916"
     inkscape:window-height="947"
     inkscape:window-x="0"
     inkscape:window-y="131"
     inkscape:window-maximized="1"
     inkscape:current-layer="layer1" />
  <defs
     id="defs17425" />
  <g
     inkscape:label="Layer 1"
     inkscape:groupmode="layer"
     id="layer1"
     transform="translate(-129.11449,-64.261483)">
    <g
       id="g17267"
       transform="translate(88.395275,-65.830434)">
      <g
         id="g14164"
         transform="translate(0,46.456842)">
        <path
           style="fill:#facb0a;fill-opacity:1;stroke:#000000;stroke-width:0.264583px;stroke-linecap:butt;stroke-linejoin:miter;stroke-opacity:1"
           d="m 44.163707,118.28009 c 1.483402,2.73528 2.768174,4.81121 5.436904,4.41848 2.668731,-0.39274 12.522444,-1.79001 16.270772,-3.78622 3.748331,-1.99621 11.131518,-5.57952 12.750323,-7.32392 1.618803,-1.7444 5.075402,-9.24452 3.317714,-13.860153 C 80.181735,93.112644 78.035787,86.300079 72.462376,84.505476 66.888962,82.710874 61.789164,84.6686 60.925312,85.3402 c -0.863851,0.671599 -8.281828,6.889083 -12.010501,10.109591 -3.728675,3.220508 -6.91946,5.776009 -7.628382,8.133149 -0.708924,2.35714 -0.385654,4.35612 -0.180599,5.83273 0.205055,1.47661 2.000327,7.19372 3.057877,8.86442 z"
           id="path7222" />
        <path
           id="path7224"
           style="fill:#fde040;fill-opacity:1;stroke:none;stroke-width:0.999999px;stroke-linecap:butt;stroke-linejoin:miter;stroke-opacity:1"
           d="m 234.09766,322.15039 c -1.14604,0.0128 -2.30449,0.0643 -3.4668,0.13867 -0.13643,0.0903 -0.25708,0.17481 -0.36133,0.25586 -3.26495,2.53833 -31.30191,26.03894 -45.39453,38.21094 -14.09263,12.172 -26.15264,21.82941 -28.83203,30.73828 -2.6794,8.90888 -1.45665,16.46403 -0.68164,22.04492 0.5619,4.04628 4.28123,16.4999 7.80859,25.45899 2.42769,-0.31366 4.75579,-0.69026 6.82813,-1.06446 11.335,-2.04672 55.1287,-23.15669 75.74218,-33.3164 21.05302,-10.37628 23.13487,-15.96245 25.4043,-30.59375 2.06674,-13.32447 -6.01884,-31.13464 -16.50391,-43.71289 -5.57019,-6.68219 -12.82627,-8.24659 -20.54296,-8.16016 z"
           transform="scale(0.26458333)" />
        <path
           id="path7437"
           style="fill:#feef97;fill-opacity:1;stroke:none;stroke-width:0.999999px;stroke-linecap:butt;stroke-linejoin:miter;stroke-opacity:1"
           d="m 221.32812,350.94531 c -6.86777,0.0378 -27.77624,8.77759 -46.71874,18.66602 -9.36584,8.19451 -16.57098,15.24808 -18.56641,21.88281 -2.6794,8.90888 -1.45665,16.46403 -0.68164,22.04492 0.45968,3.3102 3.03653,12.2321 5.88867,20.2793 14.67169,-3.98056 44.71957,-15.09508 57.26367,-26.86328 14.58066,-13.67875 29.27966,-27.71984 20.01367,-39.16016 -9.26599,-11.44032 -9.44145,-6.82686 -15.02148,-16.1289 -0.29858,-0.49775 -1.04853,-0.72692 -2.17774,-0.72071 z"
           transform="scale(0.26458333)" />
        <path
           id="path7916"
           style="fill:#fee86e;fill-opacity:1;stroke:none;stroke-width:0.999999px;stroke-linecap:butt;stroke-linejoin:miter;stroke-opacity:1"
           d="m 154.50195,400.04297 c -0.01,0.14031 -0.01,0.27473 -0.0176,0.41406 0.008,-0.13567 0.024,-0.27746 0.0332,-0.41406 -0.005,2.7e-4 -0.0105,-2.7e-4 -0.0156,0 z m -0.0644,1.45508 c -0.0182,0.55588 -0.0258,1.1015 -0.0234,1.64062 -0.003,-0.53872 0.005,-1.0851 0.0234,-1.64062 z m 0.15625,5.66211 c 0.0194,0.23276 0.0429,0.45296 0.0644,0.68164 -0.0215,-0.22672 -0.0451,-0.45091 -0.0644,-0.68164 z m 0.28906,2.74218 c 0.15611,1.28061 0.32231,2.51187 0.47852,3.63672 -0.15497,-1.11596 -0.32252,-2.36784 -0.47852,-3.63672 z m 0.97657,6.13282 c 0.0654,0.28558 0.14103,0.59135 0.21679,0.90234 -0.075,-0.30791 -0.15189,-0.61934 -0.21679,-0.90234 z m 0.6914,2.73242 c 0.42507,1.60899 0.91843,3.3641 1.50195,5.29883 -0.5823,-1.92881 -1.07709,-3.69303 -1.50195,-5.29883 z m 55.19531,2.14844 c -17.59505,8.17697 -35.15946,15.8279 -41.74804,17.01757 -2.06947,0.37368 -4.39432,0.7491 -6.81836,1.0625 1.33458,3.38797 2.64167,6.31448 3.73828,8.04688 5.40935,9.97443 10.12199,17.62731 19.50586,16.82031 14.87026,-2.48437 32.08206,-5.7665 42.59765,-10.55859 15.9857,-7.28489 39.98268,-16.6928 44.67774,-24.16602 4.69506,-7.47318 -34.10392,18.01484 -49.19336,18.80469 -15.08944,0.78985 -33.42773,10.98154 -33.42774,2.5332 0,-8.44834 9.42273,-13.60096 17.15626,-22.58203 1.6879,-1.96018 2.89194,-4.38803 3.51171,-6.97851 z m -53.55664,3.62109 c 0.66238,2.17672 1.40104,4.44885 2.17774,6.73633 -0.77318,-2.27593 -1.5178,-4.57011 -2.17774,-6.73633 z m 3.07617,9.32422 c 0.18524,0.5226 0.36373,1.04541 0.55079,1.55859 -0.18599,-0.51 -0.3666,-1.03932 -0.55079,-1.55859 z"
           transform="scale(0.26458333)" />
        <path
           style="fill:none;fill-opacity:1;stroke:#000000;stroke-width:0.264583px;stroke-linecap:butt;stroke-linejoin:miter;stroke-opacity:1"
           d="m 44.163707,118.28009 c 1.483402,2.73528 2.768174,4.81121 5.436904,4.41848 2.668731,-0.39274 12.522444,-1.79001 16.270772,-3.78622 3.748331,-1.99621 11.131518,-5.57952 12.750323,-7.32392 1.618803,-1.7444 5.075402,-9.24452 3.317714,-13.860153 C 80.181735,93.112644 78.035787,86.300079 72.462376,84.505476 66.888962,82.710874 61.789164,84.6686 60.925312,85.3402 c -0.863851,0.671599 -8.281828,6.889083 -12.010501,10.109591 -3.728675,3.220508 -6.91946,5.776009 -7.628382,8.133149 -0.708924,2.35714 -0.385654,4.35612 -0.180599,5.83273 0.205055,1.47661 2.000327,7.19372 3.057877,8.86442 z"
           id="path14139" />
      </g>
      <path
         style="fill:#fff8cd;fill-opacity:1;stroke:none;stroke-width:0.264583px;stroke-linecap:butt;stroke-linejoin:miter;stroke-opacity:1"
         d="m 62.929725,153.61455 c 1.541178,-0.58216 4.940362,-2.61896 5.92947,-3.83065 0.911717,-1.11688 2.397152,-5.4132 1.533607,-7.32278 -0.863544,-1.90958 -2.058897,-2.25015 -2.045578,-0.39093 0.01331,1.85922 0.201533,4.97909 -1.205204,6.47424 -1.406734,1.49515 -8.008335,5.10036 -6.708706,5.38088 1.299625,0.28052 0.955233,0.27139 2.496411,-0.31076 z"
         id="path14199"
         sodipodi:nodetypes="zsssssz" />
    </g>
  </g>
</svg>
