<?xml version="1.0" encoding="UTF-8" standalone="no"?>
<!-- Created with Inkscape (http://www.inkscape.org/) -->

<svg
   width="56.544376mm"
   height="58.057178mm"
   viewBox="0 0 56.544376 58.057178"
   version="1.1"
   id="svg52745"
   inkscape:version="1.1.1 (3bf5ae0d25, 2021-09-20)"
   sodipodi:docname="mozzarella.svg"
   xmlns:inkscape="http://www.inkscape.org/namespaces/inkscape"
   xmlns:sodipodi="http://sodipodi.sourceforge.net/DTD/sodipodi-0.dtd"
   xmlns="http://www.w3.org/2000/svg"
   xmlns:svg="http://www.w3.org/2000/svg">
  <sodipodi:namedview
     id="namedview52747"
     pagecolor="#ffffff"
     bordercolor="#666666"
     borderopacity="1.0"
     inkscape:pageshadow="2"
     inkscape:pageopacity="0.0"
     inkscape:pagecheckerboard="0"
     inkscape:document-units="mm"
     showgrid="false"
     fit-margin-top="0"
     fit-margin-left="0"
     fit-margin-right="0"
     fit-margin-bottom="0"
     inkscape:zoom="0.77593294"
     inkscape:cx="28.997351"
     inkscape:cy="342.81313"
     inkscape:window-width="1916"
     inkscape:window-height="929"
     inkscape:window-x="1920"
     inkscape:window-y="149"
     inkscape:window-maximized="1"
     inkscape:current-layer="layer1" />
  <defs
     id="defs52742" />
  <g
     inkscape:label="Layer 1"
     inkscape:groupmode="layer"
     id="layer1"
     transform="translate(-97.211164,-57.923195)">
    <g
       id="g52684"
       transform="translate(35.003313,-34.017318)">
      <path
         id="path28629"
         style="fill:#f9f7f5;fill-opacity:1;stroke:#c4c0b5;stroke-width:0.564999;stroke-linecap:round;stroke-linejoin:round;stroke-opacity:1"
         d="m 116.2013,117.98172 c 0.75363,2.82938 2.37487,4.63199 2.26292,7.05321 -0.13071,2.82684 -2.84508,5.61938 -4.37352,8.17267 -2.12846,3.55562 -7.3186,6.42278 -10.51387,8.35612 -3.36118,2.03373 -8.944602,0.94029 -11.669534,0.94029 -4.610614,0 -10.994067,-0.17464 -14.9135,-3.91065 -3.53484,-3.36942 -5.834453,-10.29383 -8.941452,-16.52254 -1.97516,-3.95967 -3.145136,-8.04131 -2.645326,-12.44575 0.664507,-5.8558 4.637457,-9.798923 7.105514,-11.933512 3.166304,-2.738493 15.828201,-5.468546 19.710089,-5.468546 4.071778,10e-7 9.433709,3.197694 14.115369,7.585816 5.40058,5.061962 8.21783,11.995192 9.86331,18.172892 z"
         sodipodi:nodetypes="ssssssssssss" />
      <path
         id="path29830"
         style="fill:#e8e7e0;fill-opacity:1;stroke:#c4c0b5;stroke-width:0.999999px;stroke-linecap:butt;stroke-linejoin:miter;stroke-opacity:1"
         d="m 266.09553,376.9956 c -5.29274,4.19135 -17.78222,17.56234 -19.65608,19.92432 -3.56295,4.49103 -12.37521,24.78141 -10.58203,35.92969 1.79318,11.14828 14.59751,51.38481 16.6875,54.16016 2.09,2.77534 9.76581,25.28679 13.49414,28.55468 3.72833,3.2679 9.306,13.94501 10.51563,16.43946 1.20962,2.49445 9.07925,13.88445 16.34179,17.49609 7.26256,3.61168 18.06479,3.25313 25.2754,4.6582 7.2106,1.40512 11.58787,2.63442 14.57557,5.45651 2.9877,2.82214 15.537,8.2377 22.44668,6.44265 6.90967,-1.79505 19.58872,-2.86906 22.83517,-2.71361 3.24642,0.15534 18.64731,-2.77861 25.67382,-8.7207 7.02652,-5.94214 14.85188,-17.82194 20.22266,-19.96289 5.37079,-2.14099 14.16969,-10.76735 16.56055,-17.7461 2.34512,-6.84514 10.2648,-34.36691 6.45703,-39.69726 -2.58976,9.08639 -10.79651,17.99534 -15.73438,26.24414 -8.04457,13.43856 -27.66167,24.27687 -39.73828,31.58398 -12.70367,7.68654 -33.80651,3.55274 -44.10547,3.55274 -17.42594,0 -41.55162,-0.65895 -56.36523,-14.7793 -13.36003,-12.73482 -22.05193,-38.90764 -33.79492,-62.44922 -7.46517,-14.96568 -11.88709,-30.39236 -9.99805,-47.03906 1.25976,-11.10128 13.63251,-29.82107 18.8885,-37.33448 z"
         transform="scale(0.26458333)"
         sodipodi:nodetypes="cssssssssssssscssssssc" />
      <path
         id="path51164"
         style="fill:#f4f0ec;fill-opacity:1;stroke:none;stroke-width:0.999999px;stroke-linecap:butt;stroke-linejoin:miter;stroke-opacity:1"
         d="m 314.0957,458.38867 c -5.08261,-0.0702 -10.91722,2.16147 -13.21875,5.69727 -1.5851,2.43516 3.42317,5.4354 2.76563,8.26562 -0.88381,3.80417 -4.3289,8.32813 -8.23438,8.33594 -3.05945,0.006 -3.41923,-6.38978 -6.47656,-6.50391 -4.10677,-0.1533 -5.21926,7.98297 -9.32812,8.0625 -3.81919,0.0739 -5.23868,-8.04367 -8.95313,-7.15234 -2.6703,0.64077 -3.32724,3.61753 -3.93945,6.73242 7.58739,16.94049 14.75192,32.90136 24.28906,41.99219 14.81361,14.12035 38.93929,14.7793 56.36523,14.7793 3.41159,0 8.05996,0.4424 13.14454,0.76953 0.2766,-0.66513 0.46617,-1.35117 0.5332,-2.04102 0.32957,-3.39191 -1.66754,-7.60164 -4.75195,-9.05078 -2.59833,-1.22076 -5.55602,1.86265 -8.42579,1.78516 -4.93018,-0.13313 -11.08915,-0.091 -14.28711,-3.84571 -4.2426,-4.98119 3.00269,-15.32947 -2.01953,-19.52343 -3.66221,-3.05826 -9.65572,-0.1202 -14.27148,1.08789 -7.61035,1.99185 -16.34783,15.99742 -21.39453,9.96289 -4.79505,-5.73362 13.19704,-10.86313 12.91015,-18.33203 -0.1926,-5.01433 -9.81416,-6.59459 -9.58593,-11.60743 0.30412,-6.67986 9.73503,-9.19995 14.12695,-14.24218 3.16002,-3.62793 11.08982,-7.26744 8.75586,-11.47461 -1.40032,-2.5242 -4.52633,-3.64924 -8.00391,-3.69727 z"
         transform="scale(0.26458333)" />
      <path
         id="path51571"
         style="fill:#f4f0ec;fill-opacity:1;stroke:none;stroke-width:0.999999px;stroke-linecap:butt;stroke-linejoin:miter;stroke-opacity:1"
         d="m 437.06641,472.18945 c -1.51923,0.0229 -3.06439,0.55316 -3.99414,1.53711 -1.00268,1.0611 0.19833,2.9574 -0.14258,4.37696 -0.49361,2.05606 -0.59999,5.44593 -2.69336,5.74414 -3.587,0.51084 -4.05788,-6.32315 -7.17969,-8.16211 -2.63713,-1.55346 -6.11207,-3.05957 -8.96875,-1.96094 -3.30539,1.27121 -7.39236,5.30993 -6.18359,8.63867 1.19591,3.29329 7.22165,0.75005 10.17773,2.63086 2.50662,1.59481 5.81978,3.90364 5.67578,6.87109 -0.24427,5.03245 -5.71334,10.02618 -10.71093,10.66602 -2.72232,0.34851 -4.37742,-4.41502 -7.10938,-4.15234 -2.85865,0.27473 -6.00137,2.84907 -6.47461,5.68164 -0.57403,3.436 5.45282,5.59876 5.1875,9.07226 -0.18127,2.37415 -4.77419,3.23326 -4.44727,5.5918 0.44732,3.2284 3.89691,5.19837 7.32227,6.46289 9.30675,-6.10141 18.70822,-13.41513 23.68359,-21.72656 3.82391,-6.38792 9.59725,-13.17323 13.2168,-20.12891 -0.58283,-0.78141 -1.84601,-1.13777 -2.33984,-2.02148 -1.37027,-2.45205 0.44454,-6.56968 -1.82227,-8.22852 -0.8497,-0.6218 -2.01564,-0.91038 -3.19726,-0.89258 z"
         transform="scale(0.26458333)" />
      <path
         id="path51870"
         style="fill:#f4f0ec;fill-opacity:1;stroke:none;stroke-width:0.999999px;stroke-linecap:butt;stroke-linejoin:miter;stroke-opacity:1"
         d="m 378.03516,358.81055 c -3.46576,1 -6.77227,2.7403 -9.46094,4.87109 -2.09161,1.6576 -1.88133,5.18446 -3.78711,7.05274 -4.81511,4.72033 -13.6026,4.1118 -18.00781,9.21679 -2.49274,2.88873 -6.13317,7.92956 -3.66797,10.8418 1.80637,2.13396 5.58896,-2.09176 8.28125,-1.33789 5.6555,1.58354 7.87677,13.42017 13.4043,11.43554 4.43895,-1.59378 0.87595,-9.49287 2.46484,-13.93359 1.03288,-2.88676 1.64758,-6.90832 4.50586,-8.01758 4.70512,-1.82599 11.29612,0.7437 14.38086,4.73828 2.21548,2.86893 2.51388,7.72589 0.68164,10.85352 -1.85167,3.16074 -9.82063,1.09947 -9.9043,4.76172 -0.089,3.89378 6.79313,3.82012 10.28711,5.54101 4.64927,2.28991 11.53694,1.90702 14.18945,6.35938 2.68989,4.51506 3.05123,12.60485 -1.17968,15.72266 -7.20076,5.3063 -18.15274,-2.00797 -26.15235,-6.00977 -1.38854,-0.6946 -2.11031,-3.57037 -3.55664,-3.00586 -3.57679,1.39604 -3.44319,8.15606 -1.43359,11.42773 3.42312,5.57292 15.69869,0.70225 18.46875,6.62696 0.60382,1.29146 -2.1961,2.78716 -1.47266,4.01562 2.64801,4.49666 11.02244,5.1438 15.46875,2.41211 2.15516,-1.32408 0.23663,-5.81742 2.34375,-7.21679 5.09817,-3.38589 13.3316,5.12085 18.29688,1.54296 1.34177,-0.96687 1.36669,-3.1804 1.16797,-4.82226 -0.64173,-5.30166 -6.53463,-8.94781 -7.38086,-14.2207 -0.64823,-4.03922 -0.59588,-8.91981 1.96093,-12.11329 0.98458,-1.22976 2.58535,-1.81275 4.38672,-2.14648 -5.42955,-9.44982 -12.11298,-18.39701 -20.41211,-26.17578 -7.67615,-7.19486 -15.83716,-13.53794 -23.87304,-18.41992 z"
         transform="scale(0.26458333)" />
      <path
         id="path52046"
         style="fill:none;fill-opacity:1;stroke:#c4c0b5;stroke-width:0.564999;stroke-linecap:round;stroke-linejoin:round;stroke-opacity:1"
         d="m 116.2013,117.98172 c 0.75363,2.82938 2.37487,4.63199 2.26292,7.05321 -0.13071,2.82684 -2.84508,5.61938 -4.37352,8.17267 -2.12846,3.55562 -7.3186,6.42278 -10.51387,8.35612 -3.36118,2.03373 -8.944602,0.94029 -11.669534,0.94029 -4.610614,0 -10.994067,-0.17464 -14.9135,-3.91065 -3.53484,-3.36942 -5.834453,-10.29383 -8.941452,-16.52254 -1.97516,-3.95967 -3.145136,-8.04131 -2.645326,-12.44575 0.664507,-5.8558 4.637457,-9.798923 7.105514,-11.933512 3.166304,-2.738493 15.828201,-5.468546 19.710089,-5.468546 4.071778,10e-7 9.433709,3.197694 14.115369,7.585816 5.40058,5.061962 8.21783,11.995192 9.86331,18.172892 z"
         sodipodi:nodetypes="ssssssssssss" />
    </g>
  </g>
</svg>
