<?xml version="1.0" encoding="UTF-8" standalone="no"?>
<!-- Created with Inkscape (http://www.inkscape.org/) -->

<svg
   width="30.951052mm"
   height="30.228779mm"
   viewBox="0 0 30.951052 30.228779"
   version="1.1"
   id="svg23957"
   inkscape:version="1.1.1 (3bf5ae0d25, 2021-09-20)"
   sodipodi:docname="mushroom_01.svg"
   xmlns:inkscape="http://www.inkscape.org/namespaces/inkscape"
   xmlns:sodipodi="http://sodipodi.sourceforge.net/DTD/sodipodi-0.dtd"
   xmlns="http://www.w3.org/2000/svg"
   xmlns:svg="http://www.w3.org/2000/svg">
  <sodipodi:namedview
     id="namedview23959"
     pagecolor="#ffffff"
     bordercolor="#666666"
     borderopacity="1.0"
     inkscape:pageshadow="2"
     inkscape:pageopacity="0.0"
     inkscape:pagecheckerboard="0"
     inkscape:document-units="mm"
     showgrid="false"
     fit-margin-top="0"
     fit-margin-left="0"
     fit-margin-right="0"
     fit-margin-bottom="0"
     inkscape:zoom="0.77593294"
     inkscape:cx="190.09375"
     inkscape:cy="270.64194"
     inkscape:window-width="1916"
     inkscape:window-height="983"
     inkscape:window-x="1920"
     inkscape:window-y="95"
     inkscape:window-maximized="1"
     inkscape:current-layer="layer1" />
  <defs
     id="defs23954" />
  <g
     inkscape:label="Layer 1"
     inkscape:groupmode="layer"
     id="layer1"
     transform="translate(-54.426889,-76.9522)">
    <g
       id="g23922"
       transform="translate(-13.91191,-4.451302)">
      <path
         style="fill:#633119;fill-opacity:1;stroke:#000000;stroke-width:0.264583px;stroke-linecap:butt;stroke-linejoin:miter;stroke-opacity:1"
         d="m 74.885073,98.459842 c 0,0 -1.124596,-0.507556 -0.64044,-1.438431 0.484156,-0.930873 2.397911,-1.812449 3.229613,-1.8806 0.831701,-0.06815 4.352163,-0.975786 5.759635,-1.056929 1.407475,-0.08114 3.31733,0.03529 3.662979,0.198948 0.345649,0.163661 2.526498,0.990508 3.017231,1.02243 0.490731,0.03192 2.236311,0.610618 3.189224,0.208925 0.952913,-0.401693 1.722279,1.264648 1.434253,1.767435 -0.288025,0.502785 0.09619,0.877576 0.09619,0.877576 0,0 3.22906,-1.073714 2.887457,-2.155809 -0.341604,-1.082093 -2.191187,-5.696374 -4.770668,-6.029802 -2.579481,-0.333425 -17.29323,-0.138374 -18.522754,0.978049 -1.229524,1.116425 -3.795133,6.532356 -2.548676,7.496828 1.24646,0.964475 3.205954,0.01138 3.205954,0.01138 z"
         id="path23906" />
      <path
         style="opacity:1;fill:#efe4d4;fill-opacity:1;stroke:#000000;stroke-width:0.5;stroke-linecap:butt;stroke-linejoin:round;stroke-miterlimit:4;stroke-dasharray:none;stroke-opacity:1"
         d="m 77.812806,111.37814 c 0,0 1.725293,-0.1005 2.231504,-0.1122 0.506212,-0.0116 1.684211,-0.62975 2.738771,-0.62975 1.054563,0 3.772122,-0.15137 4.208436,-0.003 0.436314,0.14873 2.955496,0.53341 3.281542,0.24338 0.326046,-0.29003 0.357926,-0.83296 0.952357,-0.75267 0.594432,0.0803 0.617967,0.0848 0.617967,0.0848 0,0 0.680624,-3.69887 0.565562,-4.4617 -0.115059,-0.76285 -1.066622,-5.00605 -1.771078,-5.816702 -0.704456,-0.810651 -4.103719,-5.794703 -4.401476,-6.01437 -0.297757,-0.219668 0.4645,-1.7374 2.224071,-1.596094 1.759572,0.141306 4.976662,0.48822 5.899201,1.241743 0.922536,0.75352 1.513403,1.98743 1.322128,2.514486 -0.191275,0.527058 -0.732229,1.798825 -1.513867,1.379114 -0.78164,-0.419711 -0.993698,-0.462531 -0.993698,-0.462531 0,0 -0.461057,1.122523 0.04756,1.483243 0.508619,0.36072 1.218477,0.47988 2.113364,0.360577 0.894887,-0.119301 3.430728,-1.433412 3.663826,-2.988022 0.2331,-1.554609 -0.622959,-5.492765 -1.414082,-6.183521 -0.791122,-0.690758 -0.943192,-2.161477 -1.061659,-2.581989 -0.118467,-0.420511 -2.649701,-3.276262 -3.446428,-3.819547 -0.796726,-0.543284 -3.893963,-1.649388 -6.555539,-1.608788 -2.661576,0.0406 -4.665009,0.605488 -5.115438,0.773639 -0.450426,0.168151 -0.612894,0.842084 -1.181952,0.819579 -0.56906,-0.02252 -4.578445,1.089842 -5.083744,0.960731 -0.505298,-0.129109 -0.590409,-0.454401 -0.590409,-0.454401 0,0 -3.289216,2.626736 -4.14396,3.763201 -0.854742,1.136462 -1.878835,5.025313 -1.813809,6.457264 0.06502,1.431954 0.06677,3.133209 0.657797,4.22506 0.591021,1.091851 1.746866,2.203278 2.845504,2.216788 1.098637,0.0135 2.301195,-0.461971 2.51574,-0.8352 0.214548,-0.373226 0.274076,-1.121418 0.274076,-1.121418 0,0 -1.198131,0.705316 -1.795531,-0.333846 -0.597403,-1.039161 -0.573381,-2.869697 0.924526,-3.600238 1.497907,-0.730544 3.15581,-1.695577 4.229677,-1.46775 1.073867,0.22783 1.604787,0.341747 1.33007,0.990738 -0.274719,0.648994 -1.068522,1.065593 -1.308258,1.836923 -0.239737,0.771329 -1.212004,6.753971 -1.212004,7.523381 0,0.7694 0.490694,3.42913 0.490694,4.22807 0,0.79893 -0.767242,3.22221 -0.654473,3.51519 0.182586,0.24928 0.518482,0.234 0.923032,0.22583 z"
         id="path23908"
         sodipodi:nodetypes="ccscsscssssssscsssssssssscssssscssssssscc" />
      <path
         style="fill:#efd6c1;fill-opacity:1;stroke:none;stroke-width:0.264583px;stroke-linecap:butt;stroke-linejoin:miter;stroke-opacity:1"
         d="m 78.162503,83.964137 c -0.539628,0.309888 -0.459295,1.017704 0.220906,0.986621 0.680202,-0.03108 2.313496,0.425254 2.938105,-0.02051 0.62461,-0.445751 -0.08827,-1.45565 -0.450752,-1.504849 -0.362479,-0.0492 -2.497095,0.35892 -2.708259,0.538726 z"
         id="path23910" />
      <path
         style="fill:#efd6c1;fill-opacity:1;stroke:none;stroke-width:0.264583px;stroke-linecap:butt;stroke-linejoin:miter;stroke-opacity:1"
         d="m 91.361883,84.542526 c -1.020431,-0.139708 -0.858607,-0.416685 -1.458047,0.308226 -0.599437,0.724908 2.086208,1.074579 2.472751,1.755688 0.386543,0.681109 1.826866,1.272601 1.640469,0.342871 -0.186396,-0.929733 -1.637646,-2.498855 -2.015093,-2.521556 -0.377446,-0.0227 -0.334904,0.08556 -0.64008,0.114771 z"
         id="path23912" />
      <path
         style="fill:#efd6c1;fill-opacity:1;stroke:none;stroke-width:0.264583px;stroke-linecap:butt;stroke-linejoin:miter;stroke-opacity:1"
         d="m 73.390106,90.870039 c -1.05146,1.090274 -1.423874,1.944065 -0.103577,1.749168 1.320297,-0.1949 2.07001,-1.584296 1.728766,-2.171012 -0.341243,-0.586719 -1.14146,-1.692563 -1.615122,-0.986951 -0.473665,0.705609 0.425958,0.914326 -0.01005,1.408795 z"
         id="path23914" />
      <path
         style="fill:#efd6c1;fill-opacity:1;stroke:none;stroke-width:0.264583px;stroke-linecap:butt;stroke-linejoin:miter;stroke-opacity:1"
         d="m 88.459414,101.61422 c -0.385955,-3.206805 -0.459568,-4.391215 -1.41673,-4.883065 -0.957162,-0.491845 -2.687677,-0.838912 -1.365308,0.37078 1.322372,1.20969 1.891824,3.950275 1.735021,4.651755 -0.156805,0.70149 -0.391409,2.36108 0.442788,1.60499 0.8342,-0.7561 0.639025,-1.4611 0.604229,-1.74446 z"
         id="path23916" />
      <path
         style="fill:#dcd0bf;fill-opacity:1;stroke:none;stroke-width:0.264583px;stroke-linecap:butt;stroke-linejoin:miter;stroke-opacity:1"
         d="m 76.889773,111.15231 c 0,0 1.026103,-2.46773 1.359535,-3.70947 0.333431,-1.24175 0.649198,-3.70722 0.649198,-3.70722 0,0 0.08857,1.93298 0.222216,2.64216 0.133645,0.70917 0.477749,1.60903 0.477749,1.60903 0,0 0.662129,-1.41872 0.840993,-2.52301 0.178864,-1.10429 -0.0024,-4.05263 -0.0024,-4.05263 0,0 0.126884,1.72031 0.392045,2.82465 0.265162,1.10435 1.29674,3.74449 1.29674,3.74449 0,0 0.377044,-1.10565 0.429038,-1.76055 0.05199,-0.65491 -0.17144,-2.1228 -0.17144,-2.1228 0,0 0.648018,1.11213 0.952569,1.79857 0.304551,0.68645 0.8427,2.32239 0.8427,2.32239 0,0 0.03548,-3.04249 0.165304,-4.08792 0.129829,-1.04544 0.457552,-2.18208 0.457552,-2.18208 0,0 0.09394,2.55295 0.417566,3.55139 0.323628,0.99843 1.328285,2.37545 1.328285,2.37545 0,0 -0.113718,-1.60293 -0.08534,-2.1598 0.02838,-0.55687 0.166772,-1.17224 0.166772,-1.17224 0,0 0.29496,1.42154 0.563532,2.05501 0.268572,0.63347 0.548186,1.82211 0.548186,1.82211 0,0 0.471711,-0.56319 0.785986,-1.61446 0.314275,-1.05126 0.610792,-4.74865 0.610792,-4.74865 0,0 -0.0453,1.79109 0.01404,2.41079 0.05934,0.6197 0.243755,1.30174 0.243755,1.30174 0,0 0.394239,-1.27784 0.532214,-2.05421 0.137975,-0.77638 0.255946,-2.59662 0.255946,-2.59662 0,0 0.05074,1.37451 0.12885,1.98623 0.07811,0.61172 0.3216,1.67922 0.3216,1.67922 0,0 0.154776,-0.26842 0.226854,-0.71118 0.07208,-0.44276 0.02718,-1.94485 0.02718,-1.94485 0,0 0.22568,0.81898 0.432058,1.35684 0.206378,0.53786 0.837116,1.85222 0.837116,1.85222 l 0.242047,0.84767 -0.55562,4.02412 -1.188265,-0.0431 -0.420997,0.7455 -3.490273,-0.31579 -4.433228,0.14059 -2.128015,0.50667 -2.369801,0.13562 z"
         id="path23918"
         sodipodi:nodetypes="czczczczczczczczczczczczczczczczcccccccccc" />
      <path
         style="opacity:1;fill:none;fill-opacity:1;stroke:#000000;stroke-width:0.5;stroke-linecap:butt;stroke-linejoin:round;stroke-miterlimit:4;stroke-dasharray:none;stroke-opacity:1"
         d="m 77.812806,111.37814 c 0,0 1.725293,-0.1005 2.231504,-0.1122 0.506212,-0.0116 1.684211,-0.62975 2.738771,-0.62975 1.054563,0 3.772122,-0.15137 4.208436,-0.003 0.436314,0.14873 2.955496,0.53341 3.281542,0.24338 0.326046,-0.29003 0.357926,-0.83296 0.952357,-0.75267 0.594432,0.0803 0.617967,0.0848 0.617967,0.0848 0,0 0.680624,-3.69887 0.565562,-4.4617 -0.115059,-0.76285 -1.066622,-5.00605 -1.771078,-5.816702 -0.704456,-0.810651 -4.103719,-5.794703 -4.401476,-6.01437 -0.297757,-0.219668 0.4645,-1.7374 2.224071,-1.596094 1.759572,0.141306 4.976662,0.48822 5.899201,1.241743 0.922536,0.75352 1.513403,1.98743 1.322128,2.514486 -0.191275,0.527058 -0.732229,1.798825 -1.513867,1.379114 -0.78164,-0.419711 -0.993698,-0.462531 -0.993698,-0.462531 0,0 -0.461057,1.122523 0.04756,1.483243 0.508619,0.36072 1.218477,0.47988 2.113364,0.360577 0.894887,-0.119301 3.430728,-1.433412 3.663826,-2.988022 0.2331,-1.554609 -0.622959,-5.492765 -1.414082,-6.183521 -0.791122,-0.690758 -0.943192,-2.161477 -1.061659,-2.581989 -0.118467,-0.420511 -2.649701,-3.276262 -3.446428,-3.819547 -0.796726,-0.543284 -3.893963,-1.649388 -6.555539,-1.608788 -2.661576,0.0406 -4.665009,0.605488 -5.115438,0.773639 -0.450426,0.168151 -0.612894,0.842084 -1.181952,0.819579 -0.56906,-0.02252 -4.578445,1.089842 -5.083744,0.960731 -0.505298,-0.129109 -0.590409,-0.454401 -0.590409,-0.454401 0,0 -3.289216,2.626736 -4.14396,3.763201 -0.854742,1.136462 -1.878835,5.025313 -1.813809,6.457264 0.06502,1.431954 0.06677,3.133209 0.657797,4.22506 0.591021,1.091851 1.746866,2.203278 2.845504,2.216788 1.098637,0.0135 2.301195,-0.461971 2.51574,-0.8352 0.214548,-0.373226 0.274076,-1.121418 0.274076,-1.121418 0,0 -1.198131,0.705316 -1.795531,-0.333846 -0.597403,-1.039161 -0.573381,-2.869697 0.924526,-3.600238 1.497907,-0.730544 3.15581,-1.695577 4.229677,-1.46775 1.073867,0.22783 1.604787,0.341747 1.33007,0.990738 -0.274719,0.648994 -1.068522,1.065593 -1.308258,1.836923 -0.239737,0.771329 -1.212004,6.753971 -1.212004,7.523381 0,0.7694 0.490694,3.42913 0.490694,4.22807 0,0.79893 -0.767242,3.22221 -0.654473,3.51519 0.182586,0.24928 0.518482,0.234 0.923032,0.22583 z"
         id="path23920"
         sodipodi:nodetypes="ccscsscssssssscsssssssssscssssscssssssscc" />
    </g>
  </g>
</svg>
