<?xml version="1.0" encoding="UTF-8" standalone="no"?>
<!-- Created with Inkscape (http://www.inkscape.org/) -->

<svg
   width="27.206436mm"
   height="25.854576mm"
   viewBox="0 0 27.206436 25.854576"
   version="1.1"
   id="svg63366"
   inkscape:version="1.1.1 (3bf5ae0d25, 2021-09-20)"
   sodipodi:docname="olive_01_green.svg"
   xmlns:inkscape="http://www.inkscape.org/namespaces/inkscape"
   xmlns:sodipodi="http://sodipodi.sourceforge.net/DTD/sodipodi-0.dtd"
   xmlns="http://www.w3.org/2000/svg"
   xmlns:svg="http://www.w3.org/2000/svg">
  <sodipodi:namedview
     id="namedview63368"
     pagecolor="#ffffff"
     bordercolor="#666666"
     borderopacity="1.0"
     inkscape:pageshadow="2"
     inkscape:pageopacity="0.0"
     inkscape:pagecheckerboard="0"
     inkscape:document-units="mm"
     showgrid="false"
     fit-margin-top="0"
     fit-margin-left="0"
     fit-margin-right="0"
     fit-margin-bottom="0"
     inkscape:zoom="6.1592097"
     inkscape:cx="62.751557"
     inkscape:cy="73.873114"
     inkscape:window-width="1916"
     inkscape:window-height="947"
     inkscape:window-x="0"
     inkscape:window-y="131"
     inkscape:window-maximized="1"
     inkscape:current-layer="layer1" />
  <defs
     id="defs63363" />
  <g
     inkscape:label="Layer 1"
     inkscape:groupmode="layer"
     id="layer1"
     transform="translate(-126.51122,-75.327201)">
    <g
       id="g63339"
       transform="translate(236.67155,11.032922)">
      <path
         id="path37968"
         style="fill:#5d3e00;fill-opacity:1;stroke:none;stroke-width:0.264583px;stroke-linecap:butt;stroke-linejoin:miter;stroke-opacity:1"
         d="m -96.996963,70.93918 c -2.891747,0 -6.185157,2.984608 -6.185157,5.520076 0,1.899939 1.12368,4.051091 2.9037,5.010031 -0.48969,-0.733904 -1.02153,-1.839706 -1.0666,-3.219958 -0.085,-2.602397 0.31451,-4.669727 1.875857,-5.467366 1.090062,-0.556876 2.362626,-1.318051 3.534667,-1.673802 -0.335831,-0.108601 -0.69019,-0.168981 -1.062467,-0.168981 z" />
      <path
         id="path37970"
         style="fill:#cdb252;fill-opacity:1;stroke:#161616;stroke-width:0.565;stroke-linecap:round;stroke-linejoin:round;stroke-miterlimit:4;stroke-dasharray:none;stroke-dashoffset:0;stroke-opacity:1"
         d="m -97.658939,64.576779 c -3.245271,0 -7.124871,1.511226 -9.469701,4.118094 -2.02129,2.247164 -2.74919,5.374785 -2.74919,8.271846 0,2.393011 0.98958,5.14092 2.28616,6.863149 2.09406,2.781485 5.33206,3.876249 9.064051,3.876249 2.89438,0 5.838277,-1.294289 7.912179,-3.204456 2.25589,-2.077792 3.519165,-4.906503 3.519165,-8.166944 -3e-6,-3.170828 -0.858984,-6.235261 -2.790011,-8.400005 -1.879994,-2.107533 -4.791739,-3.357933 -7.772653,-3.357933 z m 0.661976,6.362401 c 2.891745,0 4.735111,3.573203 4.735111,6.108671 0,2.53547 -3.135792,4.929415 -6.027539,4.929415 -2.891749,0 -4.892729,-2.98254 -4.892729,-5.51801 0,-2.535468 3.29341,-5.520076 6.185157,-5.520076 z" />
      <path
         id="path37972"
         style="fill:#685200;fill-opacity:1;stroke:none;stroke-width:0.264583px;stroke-linecap:butt;stroke-linejoin:miter;stroke-opacity:1"
         d="m -96.383542,64.563148 c -0.02747,-0.0013 -0.283641,0.09641 -0.01656,0.128172 2.492682,0.313862 4.918689,1.455213 6.513809,3.243394 1.931027,2.164745 2.790007,5.229178 2.79001,8.400005 0,3.260442 -1.263274,6.089153 -3.519165,8.166944 -2.073902,1.910167 -5.017799,3.204456 -7.912179,3.204456 -2.218103,0 -5.575043,-1.046464 -7.307683,-1.9442 0.62347,0.608181 2.6923,1.93313 3.36529,2.348825 1.4817,0.915223 4.944304,2.363827 7.844481,1.97249 2.900175,-0.39134 6.943212,-2.467851 8.320421,-4.458126 1.377209,-1.990278 3.35548,-5.336231 3.351218,-9.697082 -0.0016,-1.70592 -0.550127,-3.263406 -1.088658,-4.631513 -0.786429,-1.997882 -2.073288,-3.202607 -3.527636,-4.280913 -2.026851,-1.502783 -7.246493,-2.388227 -8.065767,-2.512441 -0.819275,-0.124217 -0.720112,0.06123 -0.747589,0.05999 z"
         sodipodi:nodetypes="zcsssscsssssszz" />
      <path
         id="path37974"
         style="fill:#b59f26;fill-opacity:1;stroke:none;stroke-width:0.264583px;stroke-linecap:butt;stroke-linejoin:miter;stroke-opacity:1"
         d="m -87.976325,71.157771 c 0.599178,1.592871 0.880047,3.367299 0.88005,5.176946 0,0.949941 -0.110033,1.86183 -0.31781,2.730582 0.77397,-0.69078 1.688711,-1.411269 2.316655,-1.593702 1.288452,-0.374322 1.746662,-2.122866 1.746662,-2.122866 0,0 -0.777946,-1.620464 -2.198833,-2.894915 -0.732774,-0.657254 -1.67976,-1.059354 -2.426724,-1.296045 z m -0.271819,10.213848 c -0.584224,1.169101 -1.38081,2.221436 -2.367296,3.130042 -0.640771,0.590182 -1.364822,1.12096 -2.144572,1.573545 0.959852,0.240411 2.275493,0.487643 3.502628,0.438217 2.288929,-0.09219 2.709219,-1.946749 2.193665,-3.135726 -0.276246,-0.637082 -0.77639,-1.414899 -1.184425,-2.006078 z m -15.479156,5.265827 c 0.0111,0.104484 0.0503,0.207338 0.12402,0.306443 0.7026,0.94456 5.629859,2.685198 6.494695,2.820498 0.864838,0.1353 2.860739,-0.0043 3.440102,-0.645954 0.366861,-0.406299 -1.255943,-1.178269 -2.497005,-1.690854 -0.778754,0.179081 -1.572057,0.278538 -2.362131,0.278538 -1.500081,0 -3.512541,-0.481119 -5.199681,-1.068671 z" />
      <path
         id="path37976"
         style="fill:#b2a439;fill-opacity:1;stroke:none;stroke-width:0.264583px;stroke-linecap:butt;stroke-linejoin:miter;stroke-opacity:1"
         d="m -97.658818,64.577007 c -2.983422,0 -6.501982,1.277848 -8.872332,3.509346 1.9923,-0.05101 3.97297,-0.988589 5.49895,-1.035463 2.329728,-0.07156 4.03497,0.698315 5.463982,0.672206 1.429015,-0.02611 2.328021,-0.349229 3.218119,-0.192781 0.890098,0.156448 0.893215,1.160915 2.117184,0.76481 0.143792,-0.04653 0.314757,-0.108442 0.499194,-0.183967 -0.05026,-0.05935 -0.100649,-0.11815 -0.152445,-0.176215 -1.879995,-2.107534 -4.791739,-3.357936 -7.772652,-3.357936 z"
         sodipodi:nodetypes="scsssscss" />
      <path
         id="path37978"
         style="fill:#b2a439;fill-opacity:1;stroke:none;stroke-width:0.264583px;stroke-linecap:butt;stroke-linejoin:miter;stroke-opacity:1"
         d="m -92.631734,78.573568 c -0.910776,1.892382 -3.360272,3.403926 -5.657538,3.403926 -0.842351,0 -1.608471,-0.254543 -2.272208,-0.675926 -0.38146,0.657606 -0.61414,1.334545 -0.45011,1.847948 0.36031,1.127673 1.368109,1.006612 2.490807,1.239718 1.122702,0.233106 2.944278,0.226359 4.091742,-0.214458 1.147461,-0.440814 2.390592,-1.973892 2.546615,-2.064472 0.156019,-0.09058 1.012033,-0.916943 0.850077,-1.755965 -0.122627,-0.635262 -0.825728,-1.325007 -1.599385,-1.780771 z" />
      <path
         id="path37980"
         style="fill:none;fill-opacity:1;stroke:#5c4802;stroke-width:0.565;stroke-linecap:round;stroke-linejoin:round;stroke-miterlimit:4;stroke-dasharray:none;stroke-dashoffset:0;stroke-opacity:1"
         d="m -97.658939,64.576779 c -3.245271,0 -7.124871,1.511226 -9.469701,4.118094 -2.02129,2.247164 -2.74919,5.374785 -2.74919,8.271846 0,2.393011 0.98958,5.14092 2.28616,6.863149 2.09406,2.781485 5.33206,3.876249 9.064051,3.876249 2.89438,0 5.838277,-1.294289 7.912179,-3.204456 2.25589,-2.077792 3.519165,-4.906503 3.519165,-8.166944 -3e-6,-3.170828 -0.858984,-6.235261 -2.790011,-8.400005 -1.879994,-2.107533 -4.791739,-3.357933 -7.772653,-3.357933 z m 0.661976,6.362401 c 2.891745,0 4.735111,3.573203 4.735111,6.108671 0,2.53547 -3.135792,4.929415 -6.027539,4.929415 -2.891749,0 -4.892729,-2.98254 -4.892729,-5.51801 0,-2.535468 3.29341,-5.520076 6.185157,-5.520076 z" />
    </g>
  </g>
</svg>
