<?xml version="1.0" encoding="UTF-8" standalone="no"?>
<!-- Created with Inkscape (http://www.inkscape.org/) -->

<svg
   width="27.206438mm"
   height="25.854576mm"
   viewBox="0 0 27.206438 25.854576"
   version="1.1"
   id="svg63366"
   inkscape:version="1.1.1 (3bf5ae0d25, 2021-09-20)"
   sodipodi:docname="olive_01_black.svg"
   xmlns:inkscape="http://www.inkscape.org/namespaces/inkscape"
   xmlns:sodipodi="http://sodipodi.sourceforge.net/DTD/sodipodi-0.dtd"
   xmlns="http://www.w3.org/2000/svg"
   xmlns:svg="http://www.w3.org/2000/svg">
  <sodipodi:namedview
     id="namedview63368"
     pagecolor="#ffffff"
     bordercolor="#666666"
     borderopacity="1.0"
     inkscape:pageshadow="2"
     inkscape:pageopacity="0.0"
     inkscape:pagecheckerboard="0"
     inkscape:document-units="mm"
     showgrid="false"
     fit-margin-top="0"
     fit-margin-left="0"
     fit-margin-right="0"
     fit-margin-bottom="0"
     inkscape:zoom="6.1592097"
     inkscape:cx="61.290331"
     inkscape:cy="42.700284"
     inkscape:window-width="1916"
     inkscape:window-height="947"
     inkscape:window-x="0"
     inkscape:window-y="131"
     inkscape:window-maximized="1"
     inkscape:current-layer="layer1" />
  <defs
     id="defs63363" />
  <g
     inkscape:label="Layer 1"
     inkscape:groupmode="layer"
     id="layer1"
     transform="translate(-126.88358,-83.572138)">
    <g
       id="g37966"
       transform="translate(172.87194,38.750126)">
      <path
         id="path2138"
         style="fill:#2b241f;fill-opacity:1;stroke:none;stroke-width:0.264583px;stroke-linecap:butt;stroke-linejoin:miter;stroke-opacity:1"
         d="m -32.824989,51.466913 c -2.891747,0 -6.185153,2.984608 -6.185153,5.520076 0,1.899939 1.12368,4.051091 2.903698,5.010031 -0.489693,-0.733904 -1.021535,-1.839706 -1.066601,-3.219958 -0.08497,-2.602397 0.31451,-4.669727 1.875856,-5.467366 1.090062,-0.556876 2.362626,-1.318051 3.534667,-1.673802 -0.335831,-0.108601 -0.69019,-0.168981 -1.062467,-0.168981 z" />
      <path
         id="path858"
         style="fill:#413227;fill-opacity:1;stroke:#161616;stroke-width:0.565;stroke-linecap:round;stroke-linejoin:round;stroke-miterlimit:4;stroke-dasharray:none;stroke-dashoffset:0;stroke-opacity:1"
         d="m -33.486965,45.104512 c -3.245271,0 -7.124872,1.511226 -9.469705,4.118094 -2.021287,2.247164 -2.749188,5.374785 -2.749188,8.271846 0,2.393011 0.989584,5.14092 2.286167,6.863149 2.09405,2.781485 5.33205,3.876249 9.064046,3.876249 2.89438,0 5.838277,-1.294289 7.912179,-3.204456 2.25589,-2.077792 3.519165,-4.906503 3.519165,-8.166944 -3e-6,-3.170828 -0.858984,-6.235261 -2.790011,-8.400005 -1.879994,-2.107533 -4.791739,-3.357933 -7.772653,-3.357933 z m 0.661976,6.362401 c 2.891745,0 4.735111,3.573203 4.735111,6.108671 0,2.53547 -3.135792,4.929415 -6.027539,4.929415 -2.891745,0 -4.892725,-2.98254 -4.892725,-5.51801 0,-2.535468 3.293406,-5.520076 6.185153,-5.520076 z" />
      <path
         id="path18461"
         style="opacity:1;fill:#0f0f0f;fill-opacity:1;stroke:none;stroke-width:0.264583px;stroke-linecap:butt;stroke-linejoin:miter;stroke-opacity:1"
         d="m -32.211568,45.090881 c -0.02747,-0.0013 -0.283641,0.09641 -0.01656,0.128172 2.492682,0.313862 4.918689,1.455213 6.513809,3.243394 1.931027,2.164745 2.790007,5.229178 2.79001,8.400005 0,3.260442 -1.263274,6.089153 -3.519165,8.166944 -2.073902,1.910167 -5.017799,3.204456 -7.912179,3.204456 -2.218105,0 -5.575043,-1.046464 -7.30768,-1.9442 0.623464,0.608181 2.692294,1.93313 3.365285,2.348825 1.481704,0.915223 4.944306,2.363827 7.844483,1.97249 2.900175,-0.39134 6.943212,-2.467851 8.320421,-4.458126 1.377209,-1.990278 3.35548,-5.336231 3.351218,-9.697082 -0.0016,-1.70592 -0.550127,-3.263406 -1.088658,-4.631513 -0.786429,-1.997882 -2.073288,-3.202607 -3.527636,-4.280913 -2.026851,-1.502783 -7.246493,-2.388227 -8.065767,-2.512441 -0.819275,-0.124217 -0.720112,0.06123 -0.747589,0.05999 z"
         sodipodi:nodetypes="zcsssscsssssszz" />
      <path
         id="path24089"
         style="fill:#343436;fill-opacity:1;stroke:none;stroke-width:0.264583px;stroke-linecap:butt;stroke-linejoin:miter;stroke-opacity:1"
         d="m -23.804351,51.685504 c 0.599178,1.592871 0.880047,3.367299 0.88005,5.176946 0,0.949941 -0.110033,1.86183 -0.31781,2.730582 0.77397,-0.69078 1.688711,-1.411269 2.316655,-1.593702 1.288452,-0.374322 1.746662,-2.122866 1.746662,-2.122866 0,0 -0.777946,-1.620464 -2.198833,-2.894915 -0.732774,-0.657254 -1.67976,-1.059354 -2.426724,-1.296045 z m -0.271819,10.213848 c -0.584224,1.169101 -1.38081,2.221436 -2.367296,3.130042 -0.640771,0.590182 -1.364822,1.12096 -2.144572,1.573545 0.959852,0.240411 2.275493,0.487643 3.502628,0.438217 2.288929,-0.09219 2.709219,-1.946749 2.193665,-3.135726 -0.276246,-0.637082 -0.77639,-1.414899 -1.184425,-2.006078 z m -15.479157,5.265827 c 0.01114,0.104484 0.05031,0.207338 0.124023,0.306443 0.702601,0.94456 5.629857,2.685198 6.494693,2.820498 0.864838,0.1353 2.860739,-0.0043 3.440102,-0.645954 0.366861,-0.406299 -1.255943,-1.178269 -2.497005,-1.690854 -0.778754,0.179081 -1.572057,0.278538 -2.362131,0.278538 -1.500085,0 -3.512543,-0.481119 -5.199682,-1.068671 z" />
      <path
         id="path33545"
         style="fill:#544034;fill-opacity:1;stroke:none;stroke-width:0.999999px;stroke-linecap:butt;stroke-linejoin:miter;stroke-opacity:1"
         d="m -126.56445,170.47461 c -11.27593,0 -24.57444,4.82966 -33.53321,13.26367 7.52992,-0.19278 15.01594,-3.7364 20.78343,-3.91356 8.80526,-0.27046 15.25027,2.6393 20.65126,2.54062 5.401,-0.0987 8.79882,-1.31992 12.16297,-0.72862 3.36415,0.5913 3.37593,4.38771 8.001953,2.89062 0.543467,-0.17587 1.189634,-0.40986 1.886719,-0.69531 -0.189952,-0.2243 -0.380405,-0.44655 -0.576172,-0.66601 -7.10549,-7.96548 -18.11051,-12.69141 -29.37695,-12.69141 z"
         transform="scale(0.26458333)"
         sodipodi:nodetypes="scsssscss" />
      <path
         id="path36705"
         style="fill:#544034;fill-opacity:1;stroke:none;stroke-width:0.999999px;stroke-linecap:butt;stroke-linejoin:miter;stroke-opacity:1"
         d="m -107.56445,223.375 c -3.4423,7.15231 -12.70024,12.86523 -21.38282,12.86523 -3.18369,0 -6.07926,-0.96205 -8.58789,-2.55468 -1.44173,2.48544 -2.32116,5.04395 -1.70117,6.98437 1.36178,4.26207 5.17079,3.80452 9.41406,4.68555 4.24328,0.88103 11.12798,0.85553 15.46485,-0.81055 4.33686,-1.66607 9.03531,-7.46038 9.625,-7.80273 0.58968,-0.34235 3.82501,-3.46561 3.21289,-6.63672 -0.46347,-2.40099 -3.12086,-5.0079 -6.04492,-6.73047 z"
         transform="scale(0.26458333)" />
      <path
         id="path37939"
         style="fill:none;fill-opacity:1;stroke:#161616;stroke-width:0.565;stroke-linecap:round;stroke-linejoin:round;stroke-miterlimit:4;stroke-dasharray:none;stroke-dashoffset:0;stroke-opacity:1"
         d="m -33.486965,45.104512 c -3.245271,0 -7.124872,1.511226 -9.469705,4.118094 -2.021287,2.247164 -2.749188,5.374785 -2.749188,8.271846 0,2.393011 0.989584,5.14092 2.286167,6.863149 2.09405,2.781485 5.33205,3.876249 9.064046,3.876249 2.89438,0 5.838277,-1.294289 7.912179,-3.204456 2.25589,-2.077792 3.519165,-4.906503 3.519165,-8.166944 -3e-6,-3.170828 -0.858984,-6.235261 -2.790011,-8.400005 -1.879994,-2.107533 -4.791739,-3.357933 -7.772653,-3.357933 z m 0.661976,6.362401 c 2.891745,0 4.735111,3.573203 4.735111,6.108671 0,2.53547 -3.135792,4.929415 -6.027539,4.929415 -2.891745,0 -4.892725,-2.98254 -4.892725,-5.51801 0,-2.535468 3.293406,-5.520076 6.185153,-5.520076 z" />
    </g>
  </g>
</svg>
