<?xml version="1.0" encoding="UTF-8" standalone="no"?>
<!-- Created with Inkscape (http://www.inkscape.org/) -->

<svg
   width="108.90859mm"
   height="102.53867mm"
   viewBox="0 0 108.90859 102.53867"
   version="1.1"
   id="svg38767"
   inkscape:version="1.1.1 (3bf5ae0d25, 2021-09-20)"
   sodipodi:docname="onion_01.svg"
   xmlns:inkscape="http://www.inkscape.org/namespaces/inkscape"
   xmlns:sodipodi="http://sodipodi.sourceforge.net/DTD/sodipodi-0.dtd"
   xmlns="http://www.w3.org/2000/svg"
   xmlns:svg="http://www.w3.org/2000/svg">
  <sodipodi:namedview
     id="namedview38769"
     pagecolor="#ffffff"
     bordercolor="#666666"
     borderopacity="1.0"
     inkscape:pageshadow="2"
     inkscape:pageopacity="0.0"
     inkscape:pagecheckerboard="0"
     inkscape:document-units="mm"
     showgrid="false"
     fit-margin-top="0"
     fit-margin-left="0"
     fit-margin-right="0"
     fit-margin-bottom="0"
     inkscape:zoom="0.77593294"
     inkscape:cx="-4.5106991"
     inkscape:cy="177.85042"
     inkscape:window-width="1916"
     inkscape:window-height="947"
     inkscape:window-x="0"
     inkscape:window-y="131"
     inkscape:window-maximized="1"
     inkscape:current-layer="layer1" />
  <defs
     id="defs38764" />
  <g
     inkscape:label="Layer 1"
     inkscape:groupmode="layer"
     id="layer1"
     transform="translate(-106.15076,-101.49301)">
    <g
       id="g38712"
       transform="translate(-65.179703,38.046691)">
      <path
         id="path12886"
         style="fill:#df96d2;fill-opacity:1;stroke:#ac4881;stroke-width:1.4;stroke-linecap:round;stroke-linejoin:round;stroke-miterlimit:4;stroke-dasharray:none;stroke-opacity:1"
         d="m 279.53905,116.6676 c 0,6.94803 -1.26842,10.78754 -3.90134,17.02942 -3.37586,8.00317 -7.7316,16.30008 -15.01853,21.59528 -5.64663,4.10325 -13.51692,6.49855 -20.51035,8.47501 -5.75415,1.62622 -13.09925,1.51536 -19.14181,1.51536 -12.08767,0 -18.98496,-2.62728 -28.39219,-9.79426 -3.93636,-2.99895 -5.97606,-6.70191 -8.67675,-10.65072 -1.11385,-1.62863 -3.13098,-3.56078 -4.19124,-5.08939 -5.60285,-8.07776 -7.67638,-14.54313 -7.67638,-24.90531 0,-3.93595 0.94111,-5.42556 1.48596,-8.776 0.62278,-3.82966 0.96449,-9.45828 2.87809,-13.032239 4.42895,-8.271796 11.67136,-15.98959 20.55096,-20.947697 8.18002,-4.567484 18.64374,-7.940737 28.8484,-7.940737 8.8177,0 16.74321,1.771693 24.05635,5.272766 15.53654,7.437914 26.67851,21.794366 29.18013,38.895787 0.18651,1.27499 -0.0449,2.85405 0.0367,4.36393 0.0765,1.41429 0.47198,2.7591 0.47198,3.9888 z"
         sodipodi:nodetypes="sssssssssssssssss" />
      <path
         id="path16920"
         style="fill:#e89cda;fill-opacity:1;stroke:#ac4881;stroke-width:1.25492;stroke-linecap:round;stroke-linejoin:round;stroke-miterlimit:4;stroke-dasharray:none;stroke-opacity:1"
         d="m 181.53161,133.85718 c -2.67832,-5.6227 -3.13191,-9.21878 -3.40733,-15.28496 -0.35313,-7.7779 -0.0265,-16.17122 3.82924,-23.26532 2.98782,-5.497218 8.43352,-10.469441 13.33108,-14.764712 4.02967,-3.534125 10.01644,-6.275796 14.90639,-8.605075 9.78195,-4.659541 16.37636,-5.192171 26.75188,-3.018574 4.34153,0.909518 7.41958,3.119882 11.12729,5.274405 1.52919,0.888595 3.90636,1.674636 5.35362,2.502955 7.64792,4.377156 11.81819,8.809958 15.8126,17.195563 1.51722,3.18517 1.32983,4.753417 2.18044,7.674798 0.97226,3.33921 2.86545,8.0259 2.69455,11.65578 -0.39553,8.40123 -3.28141,17.43866 -8.55599,24.87391 -4.85902,6.84946 -12.02647,13.61281 -20.2846,17.5465 -7.13574,3.39903 -14.2324,5.0204 -21.50016,5.00622 -15.44012,-0.0301 -29.99088,-7.35311 -38.60755,-20.22813 -0.64241,-0.95989 -1.06379,-2.32697 -1.71191,-3.51737 -0.60711,-1.11502 -1.44552,-2.05086 -1.91955,-3.046 z"
         sodipodi:nodetypes="sssssssssssssssss" />
      <path
         id="path16922"
         style="fill:#ddaad7;fill-opacity:1;stroke:#ac4881;stroke-width:1.08001;stroke-linecap:round;stroke-linejoin:round;stroke-miterlimit:4;stroke-dasharray:none;stroke-opacity:1"
         d="m 240.11646,153.6557 c -4.99674,1.93948 -8.11202,2.09906 -13.33588,1.94794 -6.69789,-0.19378 -13.88055,-1.01025 -19.72271,-4.77259 -4.5271,-2.91543 -8.44661,-7.90679 -11.82015,-12.38447 -2.77573,-3.6842 -4.74633,-8.99744 -6.43305,-13.343 -3.37416,-8.69294 -3.41005,-14.38658 -0.88179,-23.15246 1.05791,-3.667983 3.15157,-6.16851 5.23752,-9.213 0.86031,-1.255657 1.68678,-3.245633 2.49013,-4.434825 4.24521,-6.284176 8.31602,-9.580124 15.76808,-12.472639 2.83056,-1.098673 4.16453,-0.837671 6.72612,-1.381087 2.92797,-0.621137 7.07123,-1.946572 10.17564,-1.568025 7.18504,0.876122 14.75701,3.930211 20.80133,8.932044 5.56812,4.607761 10.91488,11.191211 13.76342,18.529982 2.46137,6.34133 3.39957,12.53556 2.92315,18.77217 -1.01212,13.24946 -8.22655,25.26977 -19.82687,31.84254 -0.86486,0.49003 -2.06506,0.76435 -3.12812,1.24455 -0.99574,0.44982 -1.85248,1.10961 -2.73683,1.45287 z"
         sodipodi:nodetypes="sssssssssssssssss" />
      <path
         id="path16924"
         style="fill:#eac6ee;fill-opacity:1;stroke:#ac4881;stroke-width:0.923284;stroke-linecap:round;stroke-linejoin:round;stroke-miterlimit:4;stroke-dasharray:none;stroke-opacity:1"
         d="m 253.54498,137.12588 c -2.83433,3.60035 -5.05785,5.07249 -8.96845,7.23287 -5.01408,2.76998 -10.65573,5.29244 -16.59176,5.06375 -4.59984,-0.1772 -9.6552,-2.14655 -14.08534,-3.97523 -3.64509,-1.50463 -7.40598,-4.55838 -10.53712,-7.02333 -6.26362,-4.93095 -8.76593,-9.106 -10.71695,-16.65731 -0.81638,-3.15977 -0.36276,-5.91065 -0.15136,-9.05854 0.0872,-1.29831 -0.16987,-3.12237 -0.0957,-4.34698 0.39188,-6.47134 1.95484,-10.667447 6.18191,-16.036956 1.6056,-2.039532 2.70093,-2.427508 4.35002,-3.941391 1.88495,-1.730409 4.35812,-4.507669 6.80765,-5.579011 5.66935,-2.479596 12.57057,-3.524408 19.1944,-2.471334 6.10196,0.970108 12.90014,3.490629 18.18802,7.653441 4.56917,3.59704 7.9533,7.748154 10.31465,12.545631 5.01663,10.19203 4.9337,22.17648 -0.74622,32.05863 -0.42347,0.73676 -1.18755,1.46058 -1.76117,2.27629 -0.53728,0.76408 -0.88095,1.62226 -1.38259,2.25947 z"
         sodipodi:nodetypes="sssssssssssssssss" />
      <path
         id="path16926"
         style="fill:#ebc9f4;fill-opacity:1;stroke:#ac4881;stroke-width:0.741547;stroke-linecap:round;stroke-linejoin:round;stroke-miterlimit:4;stroke-dasharray:none;stroke-opacity:1"
         d="m 254.56157,118.15068 c -0.3508,3.66344 -1.21343,5.62383 -2.91681,8.78201 -2.18404,4.04934 -4.89956,8.20407 -9.00902,10.62814 -3.18443,1.87841 -7.45507,2.744 -11.24224,3.43303 -3.11605,0.56693 -6.98326,0.13764 -10.16927,-0.16743 -6.37338,-0.61029 -9.87743,-2.34379 -14.47566,-6.59762 -1.92408,-1.77998 -2.8126,-3.8354 -4.03719,-6.0538 -0.50507,-0.91496 -1.47108,-2.03555 -1.95293,-2.89507 -2.54635,-4.54198 -3.01881,-10.78336 -2.49564,-16.24696 0.19872,-2.07528 0.77014,-2.81318 1.22658,-4.55224 0.52172,-1.98779 0.98607,-4.938302 2.17548,-6.726102 2.75285,-4.137811 6.96116,-7.841461 11.89337,-10.007372 4.54363,-1.995267 9.93664,-0.517819 15.31719,-0.0026 4.64924,0.445206 8.73861,1.779483 12.41781,3.994696 7.81633,4.706117 12.96622,12.838318 13.42182,21.981558 0.034,0.68167 -0.16779,1.50256 -0.20097,2.30279 -0.0311,0.74957 0.10956,1.47861 0.0475,2.12698 z"
         sodipodi:nodetypes="ssssssssssssssssss" />
      <path
         id="path16928"
         style="fill:#eeceee;fill-opacity:1;stroke:#ac4881;stroke-width:0.8;stroke-linecap:round;stroke-linejoin:round;stroke-miterlimit:4;stroke-dasharray:none;stroke-opacity:1"
         d="m 248.44062,116.68296 c -0.28419,2.9678 -0.98302,4.55593 -2.36294,7.1144 -1.76932,3.28042 -3.81056,8.22752 -7.13967,10.19128 -2.57974,1.52172 -6.03943,2.22294 -9.10746,2.78113 -2.52435,0.45928 -5.65721,0.11151 -8.23823,-0.13563 -5.16314,-0.49441 -8.00181,-1.89873 -11.72689,-5.3448 -1.55872,-1.44198 -2.27851,-3.1071 -3.27057,-4.90425 -0.40916,-0.74122 -1.19173,-1.64902 -1.58209,-2.34533 -2.06282,-3.6795 -2.8427,-8.10724 -2.41889,-12.53336 0.16099,-1.68121 0.62391,-2.27899 0.99367,-3.68782 0.42265,-1.61033 0.79883,-4.00057 1.76238,-5.44888 2.23012,-3.352089 5.63931,-6.352455 9.63495,-8.107082 3.68084,-1.616387 8.28828,-2.629271 12.64712,-2.211893 3.7664,0.360666 7.07924,1.441578 10.0598,3.236145 6.33209,3.812475 10.50407,10.40046 10.87316,17.80749 0.0275,0.55223 -0.13593,1.21724 -0.16281,1.86552 -0.0252,0.60723 0.0888,1.19783 0.0385,1.72308 z"
         sodipodi:nodetypes="ssssssssssssssssss" />
      <path
         id="path16930"
         style="fill:#f3dcf8;fill-opacity:0.993252;stroke:#ac4881;stroke-width:0.8;stroke-linecap:round;stroke-linejoin:round;stroke-miterlimit:4;stroke-dasharray:none;stroke-opacity:1"
         d="m 232.834,127.95062 c -1.80607,1.00642 -2.98784,1.23287 -4.99173,1.4526 -2.56935,0.28173 -5.35697,0.3513 -7.78891,-0.77584 -1.88452,-0.87344 -3.64715,-2.57228 -5.17391,-4.10387 -1.25622,-1.26017 -2.29131,-3.18553 -3.16665,-4.75618 -1.75089,-3.14208 -2.06703,-5.31552 -1.56668,-8.79897 0.20936,-1.45761 0.87646,-2.52419 1.51172,-3.79819 0.26201,-0.52544 0.47207,-1.32964 0.71585,-1.82667 1.28815,-2.62647 2.66841,-4.10197 5.36196,-5.602932 1.02311,-0.570117 1.54664,-0.541255 2.49647,-0.884937 1.08569,-0.39284 2.5983,-1.119325 3.80449,-1.139586 2.79172,-0.04691 8.56332,-0.03741 11.13834,1.55257 2.37214,1.464715 4.76465,3.696025 6.2428,6.348625 1.27723,2.29208 1.96471,4.60886 2.11395,7.01697 0.31708,5.11595 -4.51724,10.8469 -8.60022,13.97431 -0.30439,0.23318 -0.74841,0.4017 -1.12903,0.64166 -0.35658,0.22471 -0.64881,0.52239 -0.96847,0.70049 z"
         sodipodi:nodetypes="ssssssssssssssssss" />
      <path
         id="path16932"
         style="fill:#f4def8;fill-opacity:0.993252;stroke:#ac4881;stroke-width:0.8;stroke-linecap:round;stroke-linejoin:round;stroke-miterlimit:4;stroke-dasharray:none;stroke-opacity:1"
         d="m 235.9144,118.8702 c -0.54672,1.18376 -1.06495,1.73812 -2.00469,2.59439 -1.20491,1.0979 -2.59988,2.16873 -4.25805,2.49751 -1.28492,0.25477 -2.81429,0.0436 -4.16132,-0.16998 -1.10833,-0.17571 -2.35102,-0.77259 -3.38053,-1.248 -2.05944,-0.95117 -3.02783,-1.94152 -4.06663,-3.90282 -0.43467,-0.82068 -0.49081,-1.61207 -0.64021,-2.49736 -0.0616,-0.36513 -0.16347,-0.88171 -0.31361,-1.19691 -0.83378,-1.75042 -2.18549,-4.10572 0.36834,-6.09641 0.58258,-0.45411 0.58726,-0.85033 0.94373,-1.37829 0.40745,-0.60347 0.90857,-1.53556 1.51583,-1.99389 1.40546,-1.06082 3.53022,-0.55668 5.43323,-0.70271 1.75307,-0.13451 3.80125,0.11414 5.53987,0.91712 1.5023,0.69385 2.7132,1.61933 3.68368,2.79128 2.06178,2.48976 2.83039,5.81248 1.91094,8.92297 -0.0685,0.23191 -0.23226,0.48271 -0.33712,0.74639 -0.0983,0.24697 -0.13667,0.50723 -0.23345,0.71674 z"
         sodipodi:nodetypes="ssssssssssssssssss" />
      <path
         id="path16934"
         style="fill:#f5e2f9;fill-opacity:0.993252;stroke:#ac4881;stroke-width:0.8;stroke-linecap:round;stroke-linejoin:round;stroke-miterlimit:4;stroke-dasharray:none;stroke-opacity:1"
         d="m 231.27078,117.93147 c -0.27433,0.41824 -0.62898,0.79397 -1.03411,1.08732 -0.4202,0.30425 -0.74517,0.53597 -1.40618,0.66703 -0.51222,0.10156 -1.12188,0.0174 -1.65886,-0.0678 -0.44182,-0.0701 -0.93721,-0.30798 -1.34761,-0.4975 -0.82097,-0.37917 -2.03897,-2.24179 -2.45307,-3.02364 -0.17328,-0.32716 -0.19566,-0.64264 -0.25522,-0.99555 -0.0246,-0.14555 -0.10095,-0.34005 -0.12501,-0.47713 -0.12715,-0.72437 -0.0652,-1.22853 0.25986,-1.9323 0.12346,-0.26733 0.45492,-2.86952 0.59702,-3.07998 0.16242,-0.24057 0.36219,-0.61214 0.60427,-0.79484 0.56027,-0.42289 1.29425,-0.71988 2.05286,-0.77809 0.69884,-0.0536 1.51532,0.0455 2.2084,0.3656 0.59888,0.2766 1.08159,0.64553 1.46846,1.11271 0.8219,0.99251 1.73945,6.31545 1.37292,7.55541 -0.0273,0.0924 -0.0926,0.19242 -0.13439,0.29754 -0.0392,0.0984 0.0237,0.15283 -0.0122,0.23756 0,0 -0.0729,0.22568 -0.13712,0.32366 z"
         sodipodi:nodetypes="aasssssssssssssssa" />
    </g>
  </g>
</svg>
