<?xml version="1.0" encoding="UTF-8" standalone="no"?>
<!-- Created with Inkscape (http://www.inkscape.org/) -->

<svg
   width="37.960114mm"
   height="37.077888mm"
   viewBox="0 0 37.960114 37.077888"
   version="1.1"
   id="svg57230"
   inkscape:version="1.1.1 (3bf5ae0d25, 2021-09-20)"
   sodipodi:docname="paprika_01_yellow.svg"
   xmlns:inkscape="http://www.inkscape.org/namespaces/inkscape"
   xmlns:sodipodi="http://sodipodi.sourceforge.net/DTD/sodipodi-0.dtd"
   xmlns="http://www.w3.org/2000/svg"
   xmlns:svg="http://www.w3.org/2000/svg">
  <sodipodi:namedview
     id="namedview57232"
     pagecolor="#ffffff"
     bordercolor="#666666"
     borderopacity="1.0"
     inkscape:pageshadow="2"
     inkscape:pageopacity="0.0"
     inkscape:pagecheckerboard="0"
     inkscape:document-units="mm"
     showgrid="false"
     fit-margin-top="0"
     fit-margin-left="0"
     fit-margin-right="0"
     fit-margin-bottom="0"
     inkscape:zoom="0.77593294"
     inkscape:cx="7.0882414"
     inkscape:cy="159.80762"
     inkscape:window-width="1916"
     inkscape:window-height="965"
     inkscape:window-x="1920"
     inkscape:window-y="113"
     inkscape:window-maximized="1"
     inkscape:current-layer="layer1" />
  <defs
     id="defs57227" />
  <g
     inkscape:label="Layer 1"
     inkscape:groupmode="layer"
     id="layer1"
     transform="translate(-165.26836,-73.402019)">
    <g
       id="g57162"
       transform="translate(-94.50829,0.42918696)">
      <path
         id="path24137"
         style="fill:#e7ac1d;fill-opacity:1;stroke:#000000;stroke-width:0.264583px;stroke-linecap:butt;stroke-linejoin:miter;stroke-opacity:1"
         d="m 280.06493,73.105742 c -4.03012,-0.04346 -7.02024,2.217954 -7.02024,2.217954 0,0 -1.51412,0.119026 -4.21318,0.541568 -2.69905,0.422545 -4.69297,2.621021 -6.15363,4.489133 -1.46067,1.868109 -0.73019,3.603955 -1.79317,5.470982 -1.06297,1.867027 -0.91194,3.944602 -0.97514,7.309115 -0.0632,3.36451 4.77645,7.026446 4.77645,7.026446 0,0 3.42911,5.83901 6.74481,7.78505 3.31569,1.94604 6.63898,2.67445 12.08453,1.17358 5.44557,-1.5009 6.56136,-5.67201 6.56136,-5.67201 0,0 4.83017,-1.0746 6.64611,-6.045626 1.81593,-4.971028 0.44539,-8.345929 -0.66404,-11.722798 -1.10943,-3.376872 -3.43184,-4.437457 -3.43184,-4.437457 -0.49927,-3.996486 -6.61845,-7.415342 -11.27993,-8.043436 -0.43701,-0.05888 -0.86518,-0.088 -1.28209,-0.0925 z m 0.67438,2.9068 c 2.52341,0.03854 3.37106,0.597477 4.54959,1.135848 1.17854,0.538369 1.46862,-0.384934 2.46238,0.997871 0.99376,1.382808 1.08499,1.912223 2.12907,3.778065 1.04407,1.865839 2.35736,2.875774 2.80138,4.104658 0.44403,1.228886 1.87768,2.184583 1.69085,3.889169 -0.18683,1.704586 -1.03432,2.269397 -0.67954,3.440617 0.35478,1.171218 -1.25456,4.325864 -1.9544,4.671034 -0.69983,0.345178 -0.95426,1.28357 -1.09244,1.86345 -0.13817,0.579886 -0.19541,-0.200102 -1.21492,-0.211873 -1.01951,-0.0118 -3.92635,0.690989 -3.82457,1.245399 0.10177,0.55441 1.07796,1.44079 0.16847,2.08928 -0.9095,0.64849 -1.89932,1.8192 -3.7667,2.24844 -1.86738,0.42923 -4.85176,1.70272 -6.01824,1.14929 -1.16648,-0.55343 -7.44597,-6.15725 -7.24451,-6.838346 0.20144,-0.681098 1.96983,-1.957924 1.5384,-2.474783 -0.43143,-0.516861 -1.41911,-2.372169 -2.52646,-2.093931 -1.10734,0.278242 -2.48147,0.652799 -2.97139,-0.207221 -0.48993,-0.860023 -1.9722,-6.08942 -0.98547,-7.089489 0.98672,-1.00007 1.35465,-2.559797 1.37717,-3.229261 0.0225,-0.669465 2.50027,-4.691301 3.60857,-5.039484 1.10829,-0.348182 2.12094,-1.215472 2.69441,-0.984954 0.57347,0.230521 0.98,0.870781 1.66449,0.806151 0.68451,-0.06463 1.26453,-0.484206 1.26453,-0.484206 1.11062,-0.88492 0.5038,-1.163365 1.34668,-1.5782 0.8429,-0.414835 2.45923,-1.226071 4.98265,-1.187524 z" />
      <path
         id="path24139"
         style="fill:#fee403;fill-opacity:1;stroke:none;stroke-width:0.264583px;stroke-linecap:butt;stroke-linejoin:miter;stroke-opacity:1"
         d="m 280.02012,73.505758 c -4.03012,-0.04346 -6.80922,2.426779 -6.80922,2.426779 0,0 -1.54617,0.07589 -4.24523,0.49843 -2.69905,0.422545 -4.2087,2.150465 -5.66936,4.018576 -1.46067,1.86811 -0.64926,3.595288 -1.71224,5.462315 -1.06297,1.867027 -1.03734,3.752139 -1.10054,7.116652 -0.0632,3.36451 4.75558,6.820341 4.75558,6.820341 0,0 2.97313,5.502709 6.28883,7.448749 3.31569,1.94604 6.00633,2.63351 11.45189,1.13263 5.44556,-1.50089 6.35946,-5.69611 6.35946,-5.69611 0,0 4.70667,-0.41266 6.52261,-5.383692 1.81593,-4.971029 0.97052,-8.019425 -0.13891,-11.396295 -1.10943,-3.376871 -3.75952,-4.403404 -3.75952,-4.403404 -1.1764,-3.925999 -5.15409,-6.999198 -9.81557,-7.627292 -0.43701,-0.05888 -1.71087,-0.413181 -2.12778,-0.417679 z m 0.71919,2.506784 c 2.52341,0.03854 3.37106,0.597477 4.54959,1.135848 1.17854,0.538369 1.46862,-0.384934 2.46238,0.997871 0.99376,1.382808 1.08499,1.912223 2.12907,3.778065 1.04407,1.865839 2.35736,2.875774 2.80138,4.104658 0.44403,1.228886 1.87768,2.184583 1.69085,3.889169 -0.18683,1.704586 -1.03432,2.269397 -0.67954,3.440617 0.35478,1.171218 -1.25456,4.325864 -1.9544,4.671034 -0.69983,0.345178 -0.95426,1.28357 -1.09244,1.86345 -0.13817,0.579886 -0.19541,-0.200102 -1.21492,-0.211873 -1.01951,-0.0118 -3.92635,0.690989 -3.82457,1.245399 0.10177,0.55441 1.07796,1.44079 0.16847,2.08928 -0.9095,0.64849 -1.89932,1.8192 -3.7667,2.24844 -1.86738,0.42923 -4.85176,1.70272 -6.01824,1.14929 -1.16648,-0.55343 -7.44597,-6.15725 -7.24451,-6.838346 0.20144,-0.681098 1.96983,-1.957924 1.5384,-2.474783 -0.43143,-0.516861 -1.41911,-2.372169 -2.52646,-2.093931 -1.10734,0.278242 -2.48147,0.652799 -2.97139,-0.207221 -0.48993,-0.860023 -1.9722,-6.08942 -0.98547,-7.089489 0.98672,-1.00007 1.35465,-2.559797 1.37717,-3.229261 0.0225,-0.669465 2.50027,-4.691301 3.60857,-5.039484 1.10829,-0.348182 2.12094,-1.215472 2.69441,-0.984954 0.57347,0.230521 0.98,0.870781 1.66449,0.806151 0.68451,-0.06463 1.26453,-0.484206 1.26453,-0.484206 1.11062,-0.88492 0.5038,-1.163365 1.34668,-1.5782 0.8429,-0.414835 2.45923,-1.226071 4.98265,-1.187524 z"
         sodipodi:nodetypes="scsssccsscsscssssssssssssssssssssssssscss" />
      <path
         id="path24141"
         style="fill:#fff7b0;fill-opacity:1;stroke:none;stroke-width:0.264583px;stroke-linecap:butt;stroke-linejoin:miter;stroke-opacity:1"
         d="m 274.7159,76.789239 c -0.34377,0.01674 -0.46709,0.583883 -0.80253,0.686779 -0.26989,0.08279 -0.57706,-0.18143 -0.84285,-0.0863 -0.22017,0.0788 -0.27163,0.424291 -0.4935,0.49816 -0.38355,0.127699 -0.93805,-0.486161 -1.19942,-0.177765 -0.1682,0.198472 -0.10296,0.466868 0.0346,0.734838 0.0221,0.0056 0.0478,0.0029 0.0687,0.01137 0.57347,0.230521 0.98,0.870781 1.66449,0.806151 0.68451,-0.06463 1.26453,-0.484206 1.26453,-0.484206 0.88754,-0.707176 0.68757,-1.027261 0.99787,-1.338937 -0.0375,-0.06186 -0.0777,-0.121934 -0.11989,-0.179316 -0.14383,-0.195501 -0.31281,-0.470088 -0.55552,-0.470774 -0.006,-1.5e-5 -0.0111,-2.67e-4 -0.0165,0 z" />
      <path
         id="path24143"
         style="fill:#fff7b0;fill-opacity:1;stroke:none;stroke-width:0.264583px;stroke-linecap:butt;stroke-linejoin:miter;stroke-opacity:1"
         d="m 267.96386,94.978825 c -0.0682,0.0016 -0.13698,0.01052 -0.20619,0.02791 -0.91229,0.229233 -2.00467,0.522216 -2.6355,0.137978 -0.44984,0.123044 -0.82085,0.238689 -0.46819,0.421164 0.56247,0.29101 0.75381,0.109572 1.17306,0.428913 0.27639,0.210529 -0.0253,0.582216 0.26872,0.767395 0.3107,0.19572 0.87511,-0.295648 1.10174,-0.0067 0.40706,0.51897 -0.64714,1.079169 -0.0171,1.274342 0.38494,0.119248 0.72019,-0.216911 1.05782,0.02532 0.41346,0.296568 -0.20713,0.620807 -0.13487,1.124479 0.0369,0.257468 0.0726,0.611867 0.31109,0.715719 0.13589,0.05918 0.27798,0.02196 0.42013,-0.04754 -0.0646,-0.116962 -0.10544,-0.216353 -0.0889,-0.272336 0.20144,-0.681098 1.96983,-1.957924 1.5384,-2.474783 -0.40446,-0.484558 -1.29775,-2.145374 -2.32027,-2.121836 z" />
      <path
         id="path24145"
         style="fill:#fff7b0;fill-opacity:1;stroke:none;stroke-width:0.264583px;stroke-linecap:butt;stroke-linejoin:miter;stroke-opacity:1"
         d="m 292.15928,97.619491 c -0.15551,0.194236 -0.30292,0.35225 -0.42064,0.410313 -0.69983,0.345175 -0.95426,1.28357 -1.09244,1.86345 -0.13817,0.579886 -0.19541,-0.200102 -1.21492,-0.211873 -1.01951,-0.0118 -3.92635,0.690989 -3.82457,1.245399 0.0967,0.52671 0.97937,1.35274 0.28784,1.99006 0.142,0.27059 0.31462,0.49331 0.5519,0.41807 0.26665,-0.0845 -0.0741,-0.59816 0.0729,-0.83613 0.14629,-0.23684 0.44479,-0.35768 0.71158,-0.43718 0.30236,-0.0901 0.67806,0.13987 0.9462,-0.0263 0.24854,-0.15408 0.35306,-0.48817 0.41186,-0.77463 0.0462,-0.2253 -0.22314,-0.52735 -0.0579,-0.6873 0.4005,-0.38763 1.22517,0.54304 1.66036,0.19482 0.1475,-0.11801 -0.0771,-0.43274 0.0589,-0.56379 0.17512,-0.16871 0.50722,0.053 0.72813,-0.0486 0.12527,-0.0576 0.24358,-0.165517 0.28938,-0.295589 0.0696,-0.197559 -0.0938,-0.418394 -0.061,-0.625285 0.0431,-0.27229 0.14418,-0.555103 0.33073,-0.758092 0.27064,-0.29451 1.15053,-0.183073 1.05523,-0.571542 -0.0475,-0.193704 -0.21611,-0.273034 -0.43357,-0.285771 z" />
      <path
         id="path24147"
         style="fill:#fff7b0;fill-opacity:1;stroke:none;stroke-width:0.264583px;stroke-linecap:butt;stroke-linejoin:miter;stroke-opacity:1"
         d="m 288.34866,78.640804 c -0.0313,0.0018 -0.064,0.01075 -0.0977,0.02791 -0.0421,0.02147 -0.0758,0.0465 -0.10283,0.07545 0.62496,0.97119 0.85938,1.620391 1.73219,3.180168 1.04407,1.865839 2.35736,2.875774 2.80138,4.104658 0.0564,0.155972 0.12897,0.30756 0.21188,0.456822 0.0448,-0.04343 0.084,-0.09045 0.11472,-0.139012 0.107,-0.169397 0.0542,-0.408104 0,-0.600996 -0.2286,-0.813514 -0.76494,-1.527344 -1.32034,-2.16421 -0.19599,-0.224742 -0.53499,-0.312753 -0.69349,-0.56534 -0.13193,-0.210265 -0.0524,-0.507286 -0.1726,-0.724503 -0.23758,-0.429496 -0.75516,-0.644914 -1.03147,-1.050581 -0.34185,-0.501899 -0.41507,-1.152099 -0.74259,-1.663465 -0.19693,-0.307472 -0.39632,-0.954447 -0.69918,-0.936895 z" />
    </g>
  </g>
</svg>
