<?xml version="1.0" encoding="UTF-8" standalone="no"?>
<!-- Created with Inkscape (http://www.inkscape.org/) -->

<svg
   width="37.960114mm"
   height="37.077892mm"
   viewBox="0 0 37.960114 37.077892"
   version="1.1"
   id="svg57230"
   inkscape:version="1.1.1 (3bf5ae0d25, 2021-09-20)"
   sodipodi:docname="paprika_01_green.svg"
   xmlns:inkscape="http://www.inkscape.org/namespaces/inkscape"
   xmlns:sodipodi="http://sodipodi.sourceforge.net/DTD/sodipodi-0.dtd"
   xmlns="http://www.w3.org/2000/svg"
   xmlns:svg="http://www.w3.org/2000/svg">
  <sodipodi:namedview
     id="namedview57232"
     pagecolor="#ffffff"
     bordercolor="#666666"
     borderopacity="1.0"
     inkscape:pageshadow="2"
     inkscape:pageopacity="0.0"
     inkscape:pagecheckerboard="0"
     inkscape:document-units="mm"
     showgrid="false"
     fit-margin-top="0"
     fit-margin-left="0"
     fit-margin-right="0"
     fit-margin-bottom="0"
     inkscape:zoom="0.77593294"
     inkscape:cx="-230.04565"
     inkscape:cy="65.727329"
     inkscape:window-width="1916"
     inkscape:window-height="965"
     inkscape:window-x="1920"
     inkscape:window-y="113"
     inkscape:window-maximized="1"
     inkscape:current-layer="layer1" />
  <defs
     id="defs57227" />
  <g
     inkscape:label="Layer 1"
     inkscape:groupmode="layer"
     id="layer1"
     transform="translate(-228.12527,-98.168469)">
    <g
       id="g57170"
       transform="translate(-31.651381,-32.06101)">
      <path
         id="path24149"
         style="fill:#276e00;fill-opacity:1;stroke:#000000;stroke-width:0.264583px;stroke-linecap:butt;stroke-linejoin:miter;stroke-opacity:1"
         d="m 280.06493,130.36239 c -4.03012,-0.0435 -7.02024,2.21796 -7.02024,2.21796 0,0 -1.51412,0.11902 -4.21318,0.54156 -2.69905,0.42255 -4.69297,2.62103 -6.15363,4.48914 -1.46067,1.86811 -0.73019,3.60395 -1.79317,5.47098 -1.06297,1.86703 -0.91194,3.9446 -0.97514,7.30911 -0.0632,3.36451 4.77645,7.02645 4.77645,7.02645 0,0 3.42911,5.83901 6.74481,7.78505 3.31569,1.94604 6.63898,2.67445 12.08453,1.17358 5.44557,-1.5009 6.56136,-5.67201 6.56136,-5.67201 0,0 4.83017,-1.0746 6.64611,-6.04563 1.81593,-4.97102 0.44539,-8.34592 -0.66404,-11.72279 -1.10943,-3.37688 -3.43184,-4.43746 -3.43184,-4.43746 -0.49927,-3.99649 -6.61845,-7.41534 -11.27993,-8.04344 -0.43701,-0.0589 -0.86518,-0.088 -1.28209,-0.0925 z m 0.67438,2.9068 c 2.52341,0.0385 3.37106,0.59748 4.54959,1.13585 1.17854,0.53837 1.46862,-0.38493 2.46238,0.99787 0.99376,1.38281 1.08499,1.91222 2.12907,3.77807 1.04407,1.86584 2.35736,2.87577 2.80138,4.10465 0.44403,1.22889 1.87768,2.18459 1.69085,3.88917 -0.18683,1.70459 -1.03432,2.2694 -0.67954,3.44062 0.35478,1.17122 -1.25456,4.32586 -1.9544,4.67103 -0.69983,0.34518 -0.95426,1.28357 -1.09244,1.86345 -0.13817,0.57989 -0.19541,-0.2001 -1.21492,-0.21187 -1.01951,-0.0118 -3.92635,0.69099 -3.82457,1.2454 0.10177,0.55441 1.07796,1.44079 0.16847,2.08928 -0.9095,0.64849 -1.89932,1.8192 -3.7667,2.24844 -1.86738,0.42923 -4.85176,1.70272 -6.01824,1.14929 -1.16648,-0.55343 -7.44597,-6.15725 -7.24451,-6.83835 0.20144,-0.68109 1.96983,-1.95792 1.5384,-2.47478 -0.43143,-0.51686 -1.41911,-2.37217 -2.52646,-2.09393 -1.10734,0.27824 -2.48147,0.6528 -2.97139,-0.20722 -0.48993,-0.86002 -1.9722,-6.08942 -0.98547,-7.08949 0.98672,-1.00007 1.35465,-2.5598 1.37717,-3.22926 0.0225,-0.66947 2.50027,-4.6913 3.60857,-5.03948 1.10829,-0.34819 2.12094,-1.21548 2.69441,-0.98496 0.57347,0.23052 0.98,0.87078 1.66449,0.80615 0.68451,-0.0646 1.26453,-0.4842 1.26453,-0.4842 1.11062,-0.88492 0.5038,-1.16337 1.34668,-1.5782 0.8429,-0.41484 2.45923,-1.22607 4.98265,-1.18753 z" />
      <path
         id="path24151"
         style="fill:#75b20e;fill-opacity:1;stroke:none;stroke-width:0.264583px;stroke-linecap:butt;stroke-linejoin:miter;stroke-opacity:1"
         d="m 280.02012,130.76241 c -4.03012,-0.0435 -6.80922,2.42678 -6.80922,2.42678 0,0 -1.54617,0.0759 -4.24523,0.49843 -2.69905,0.42254 -4.2087,2.15046 -5.66936,4.01857 -1.46067,1.86811 -0.64926,3.59529 -1.71224,5.46232 -1.06297,1.86703 -1.03734,3.75214 -1.10054,7.11665 -0.0632,3.36451 4.75558,6.82034 4.75558,6.82034 0,0 2.97313,5.50271 6.28883,7.44875 3.31569,1.94604 6.00633,2.63351 11.45189,1.13263 5.44556,-1.50089 6.35946,-5.69611 6.35946,-5.69611 0,0 4.70667,-0.41266 6.52261,-5.38369 1.81593,-4.97103 0.97052,-8.01943 -0.13891,-11.3963 -1.10943,-3.37687 -3.75952,-4.4034 -3.75952,-4.4034 -1.1764,-3.926 -5.15409,-6.9992 -9.81557,-7.62729 -0.43701,-0.0589 -1.71087,-0.41318 -2.12778,-0.41768 z m 0.71919,2.50678 c 2.52341,0.0385 3.37106,0.59748 4.54959,1.13585 1.17854,0.53837 1.46862,-0.38493 2.46238,0.99787 0.99376,1.38281 1.08499,1.91222 2.12907,3.77807 1.04407,1.86584 2.35736,2.87577 2.80138,4.10465 0.44403,1.22889 1.87768,2.18459 1.69085,3.88917 -0.18683,1.70459 -1.03432,2.2694 -0.67954,3.44062 0.35478,1.17122 -1.25456,4.32586 -1.9544,4.67103 -0.69983,0.34518 -0.95426,1.28357 -1.09244,1.86345 -0.13817,0.57989 -0.19541,-0.2001 -1.21492,-0.21187 -1.01951,-0.0118 -3.92635,0.69099 -3.82457,1.2454 0.10177,0.55441 1.07796,1.44079 0.16847,2.08928 -0.9095,0.64849 -1.89932,1.8192 -3.7667,2.24844 -1.86738,0.42923 -4.85176,1.70272 -6.01824,1.14929 -1.16648,-0.55343 -7.44597,-6.15725 -7.24451,-6.83835 0.20144,-0.68109 1.96983,-1.95792 1.5384,-2.47478 -0.43143,-0.51686 -1.41911,-2.37217 -2.52646,-2.09393 -1.10734,0.27824 -2.48147,0.6528 -2.97139,-0.20722 -0.48993,-0.86002 -1.9722,-6.08942 -0.98547,-7.08949 0.98672,-1.00007 1.35465,-2.5598 1.37717,-3.22926 0.0225,-0.66947 2.50027,-4.6913 3.60857,-5.03948 1.10829,-0.34819 2.12094,-1.21548 2.69441,-0.98496 0.57347,0.23052 0.98,0.87078 1.66449,0.80615 0.68451,-0.0646 1.26453,-0.4842 1.26453,-0.4842 1.11062,-0.88492 0.5038,-1.16337 1.34668,-1.5782 0.8429,-0.41484 2.45923,-1.22607 4.98265,-1.18753 z"
         sodipodi:nodetypes="scsssccsscsscssssssssssssssssssssssssscss" />
      <path
         id="path24153"
         style="fill:#c6e843;fill-opacity:1;stroke:none;stroke-width:0.264583px;stroke-linecap:butt;stroke-linejoin:miter;stroke-opacity:1"
         d="m 274.7159,134.04589 c -0.34377,0.0167 -0.46709,0.58388 -0.80253,0.68678 -0.26989,0.0828 -0.57706,-0.18143 -0.84285,-0.0863 -0.22017,0.0788 -0.27163,0.42429 -0.4935,0.49816 -0.38355,0.1277 -0.93805,-0.48616 -1.19942,-0.17777 -0.1682,0.19848 -0.10296,0.46687 0.0346,0.73484 0.0221,0.006 0.0478,0.003 0.0687,0.0114 0.57347,0.23052 0.98,0.87078 1.66449,0.80615 0.68451,-0.0646 1.26453,-0.4842 1.26453,-0.4842 0.88754,-0.70718 0.68757,-1.02726 0.99787,-1.33894 -0.0375,-0.0619 -0.0777,-0.12193 -0.11989,-0.17932 -0.14383,-0.1955 -0.31281,-0.47008 -0.55552,-0.47077 -0.006,-2e-5 -0.0111,-2.7e-4 -0.0165,0 z" />
      <path
         id="path24155"
         style="fill:#c6e843;fill-opacity:1;stroke:none;stroke-width:0.264583px;stroke-linecap:butt;stroke-linejoin:miter;stroke-opacity:1"
         d="m 267.96386,152.23548 c -0.0682,0.002 -0.13698,0.0105 -0.20619,0.0279 -0.91229,0.22923 -2.00467,0.52221 -2.6355,0.13797 -0.44984,0.12305 -0.82085,0.23869 -0.46819,0.42117 0.56247,0.29101 0.75381,0.10957 1.17306,0.42891 0.27639,0.21053 -0.0253,0.58222 0.26872,0.7674 0.3107,0.19572 0.87511,-0.29565 1.10174,-0.007 0.40706,0.51897 -0.64714,1.07916 -0.0171,1.27434 0.38494,0.11925 0.72019,-0.21691 1.05782,0.0253 0.41346,0.29657 -0.20713,0.6208 -0.13487,1.12448 0.0369,0.25746 0.0726,0.61186 0.31109,0.71572 0.13589,0.0592 0.27798,0.022 0.42013,-0.0475 -0.0646,-0.11697 -0.10544,-0.21636 -0.0889,-0.27234 0.20144,-0.6811 1.96983,-1.95792 1.5384,-2.47478 -0.40446,-0.48456 -1.29775,-2.14538 -2.32027,-2.12184 z" />
      <path
         id="path24157"
         style="fill:#c6e843;fill-opacity:1;stroke:none;stroke-width:0.264583px;stroke-linecap:butt;stroke-linejoin:miter;stroke-opacity:1"
         d="m 292.15928,154.87614 c -0.15551,0.19424 -0.30292,0.35225 -0.42064,0.41031 -0.69983,0.34518 -0.95426,1.28357 -1.09244,1.86345 -0.13817,0.57989 -0.19541,-0.2001 -1.21492,-0.21187 -1.01951,-0.0118 -3.92635,0.69099 -3.82457,1.2454 0.0967,0.52671 0.97937,1.35274 0.28784,1.99006 0.142,0.27059 0.31462,0.49331 0.5519,0.41807 0.26665,-0.0845 -0.0741,-0.59816 0.0729,-0.83613 0.14629,-0.23684 0.44479,-0.35768 0.71158,-0.43718 0.30236,-0.0901 0.67806,0.13987 0.9462,-0.0263 0.24854,-0.15408 0.35306,-0.48817 0.41186,-0.77463 0.0462,-0.2253 -0.22314,-0.52735 -0.0579,-0.6873 0.4005,-0.38763 1.22517,0.54304 1.66036,0.19482 0.1475,-0.11801 -0.0771,-0.43274 0.0589,-0.56379 0.17512,-0.16871 0.50722,0.053 0.72813,-0.0486 0.12527,-0.0576 0.24358,-0.16552 0.28938,-0.29559 0.0696,-0.19756 -0.0938,-0.41839 -0.061,-0.62528 0.0431,-0.27229 0.14418,-0.55511 0.33073,-0.7581 0.27064,-0.29451 1.15053,-0.18307 1.05523,-0.57154 -0.0475,-0.1937 -0.21611,-0.27303 -0.43357,-0.28577 z" />
      <path
         id="path24159"
         style="fill:#c6e843;fill-opacity:1;stroke:none;stroke-width:0.264583px;stroke-linecap:butt;stroke-linejoin:miter;stroke-opacity:1"
         d="m 288.34866,135.89745 c -0.0313,0.002 -0.064,0.0108 -0.0977,0.0279 -0.0421,0.0215 -0.0758,0.0465 -0.10283,0.0754 0.62496,0.97119 0.85938,1.6204 1.73219,3.18017 1.04407,1.86584 2.35736,2.87578 2.80138,4.10466 0.0564,0.15597 0.12897,0.30756 0.21188,0.45682 0.0448,-0.0434 0.084,-0.0905 0.11472,-0.13901 0.107,-0.1694 0.0542,-0.4081 0,-0.601 -0.2286,-0.81351 -0.76494,-1.52734 -1.32034,-2.16421 -0.19599,-0.22474 -0.53499,-0.31275 -0.69349,-0.56534 -0.13193,-0.21026 -0.0524,-0.50728 -0.1726,-0.7245 -0.23758,-0.42949 -0.75516,-0.64491 -1.03147,-1.05058 -0.34185,-0.5019 -0.41507,-1.1521 -0.74259,-1.66346 -0.19693,-0.30748 -0.39632,-0.95445 -0.69918,-0.9369 z" />
    </g>
  </g>
</svg>
