<?xml version="1.0" encoding="UTF-8" standalone="no"?>
<!-- Created with Inkscape (http://www.inkscape.org/) -->

<svg
   width="190.05649mm"
   height="87.375977mm"
   viewBox="0 0 190.05649 87.375977"
   version="1.1"
   id="svg33707"
   inkscape:version="1.1.1 (3bf5ae0d25, 2021-09-20)"
   sodipodi:docname="prosciutto.svg"
   xmlns:inkscape="http://www.inkscape.org/namespaces/inkscape"
   xmlns:sodipodi="http://sodipodi.sourceforge.net/DTD/sodipodi-0.dtd"
   xmlns="http://www.w3.org/2000/svg"
   xmlns:svg="http://www.w3.org/2000/svg">
  <sodipodi:namedview
     id="namedview33709"
     pagecolor="#ffffff"
     bordercolor="#666666"
     borderopacity="1.0"
     inkscape:pageshadow="2"
     inkscape:pageopacity="0.0"
     inkscape:pagecheckerboard="0"
     inkscape:document-units="mm"
     showgrid="false"
     fit-margin-top="0"
     fit-margin-left="0"
     fit-margin-right="0"
     fit-margin-bottom="0"
     inkscape:zoom="1.1286665"
     inkscape:cx="387.62557"
     inkscape:cy="147.96222"
     inkscape:window-width="1916"
     inkscape:window-height="947"
     inkscape:window-x="0"
     inkscape:window-y="131"
     inkscape:window-maximized="1"
     inkscape:current-layer="layer1" />
  <defs
     id="defs33704" />
  <g
     inkscape:label="Layer 1"
     inkscape:groupmode="layer"
     id="layer1"
     transform="translate(-41.788293,-126.67038)">
    <g
       id="g34029"
       transform="translate(33.313441,-49.171468)">
      <path
         style="fill:#f5eee4;fill-opacity:1;stroke:#000000;stroke-width:0.264583px;stroke-linecap:butt;stroke-linejoin:miter;stroke-opacity:1"
         d="m 17.413111,177.12076 c -4.306024,2.65817 -9.1562238,11.40865 -8.5355537,18.87197 0.6206705,7.46333 -1.2914735,24.22511 0.5619774,28.5889 1.8534513,4.36379 4.8117483,13.15131 4.6336823,16.2493 -0.178066,3.09799 2.576784,15.71796 8.179778,17.44672 5.602994,1.72876 27.507803,3.0835 33.236659,2.45479 5.728859,-0.6287 33.099198,0.33095 37.256542,1.01637 4.157348,0.68543 17.216954,-1.49868 22.020574,-0.6936 4.80361,0.80508 22.37238,1.04676 33.44193,1.39661 11.06957,0.34985 23.27646,1.66495 30.85673,-1.02289 7.58026,-2.68784 18.0783,-5.36033 18.50739,-9.54397 0.42908,-4.18363 -5.24999,-9.14779 -4.10438,-14.21197 1.14561,-5.06418 1.83268,-13.09369 0.73667,-15.91891 -1.09602,-2.82522 4.81308,-11.70856 4.13971,-17.02133 -0.67336,-5.31276 -9.74665,-12.69091 -13.97721,-15.65424 -4.23056,-2.96332 -11.10546,-7.06319 -22.95371,-5.45701 -11.84825,1.60618 -27.40728,0.0256 -32.38288,-0.63674 -4.9756,-0.66229 -25.24941,-1.1277 -30.318393,-1.1277 -5.06898,0 -16.979304,-3.40002 -27.317543,-3.41586 -10.338239,-0.0159 -18.482837,1.27806 -21.718151,2.4508 -3.235314,1.17275 -3.07793,-1.40323 -10.316294,-2.59171 -7.238368,-1.18849 -17.641503,-3.8377 -21.947528,-1.17953 z"
         id="path10943"
         sodipodi:nodetypes="zssssssssssssssscssssz" />
      <path
         id="path11035"
         style="fill:#cb4b45;fill-opacity:1;stroke:none;stroke-width:0.264583px;stroke-linecap:butt;stroke-linejoin:miter;stroke-opacity:1"
         d="m 22.953637,175.97695 c -2.253824,6.3e-4 -4.195114,0.31292 -5.540747,1.1436 -0.487988,0.30124 -0.982667,0.69041 -1.475878,1.1374 -1.264257,2.38343 -2.613672,5.19345 -2.660303,6.4208 -0.08831,2.32429 3.943068,5.73569 4.725293,10.03142 0.782225,4.29573 3.495564,18.71426 3.821989,20.6313 0.326424,1.91704 2.269393,-2.70577 3.415295,-6.01668 1.145903,-3.31093 -2.81779,-18.35913 -1.353922,-21.63796 1.463867,-3.27883 2.666592,-7.01493 6.537586,-7.27914 2.255301,-0.15393 4.714584,-1.32544 6.584609,-2.52181 -4.55235,-0.82837 -9.84128,-1.9101 -14.053922,-1.90893 z" />
      <path
         id="path11153"
         style="fill:#d45f42;fill-opacity:1;stroke:none;stroke-width:0.264583px;stroke-linecap:butt;stroke-linejoin:miter;stroke-opacity:1"
         d="m 38.410059,178.13289 c -4.093355,2.73447 -9.282435,8.6043 -10.56473,11.17865 -1.587308,3.18667 -0.831318,10.93693 -0.795816,16.45119 0.0355,5.51425 -5.936477,21.26827 -5.128888,27.15131 0.807589,5.88304 4.384489,9.96889 6.249231,10.98486 1.864741,1.01597 -0.811056,2.95765 1.320332,4.07934 2.131385,1.12169 4.243922,0.54584 4.609023,2.19521 0.365101,1.64937 4.40848,0.80101 6.270416,0.29301 1.861942,-0.50801 2.379782,0.63654 5.108218,0.0749 2.728431,-0.56165 8.404799,-1.88114 12.377539,-5.04414 3.97274,-3.16301 15.663023,-12.03558 21.52065,-14.04772 5.85762,-2.01213 14.243475,-5.07027 14.413073,-8.87284 0.169598,-3.80258 -5.554345,-11.34093 -7.768002,-15.94115 -2.213658,-4.60021 -4.138597,-8.10009 -4.089673,-10.39626 0.04892,-2.29617 -25.667192,-10.00263 -28.118696,-11.22361 -1.480926,-0.73758 -3.512871,-2.31792 -5.082379,-3.87418 -2.337213,0.37053 -2.921323,-1.78235 -9.36997,-2.84117 -0.302318,-0.0496 -0.637646,-0.11319 -0.950328,-0.16743 z" />
      <path
         style="fill:#d58565;fill-opacity:1;stroke:none;stroke-width:0.264583px;stroke-linecap:butt;stroke-linejoin:miter;stroke-opacity:1"
         d="m 174.15772,229.59594 c 6.34864,-0.39614 8.54849,0.69034 11.23278,-1.43948 2.68428,-2.12982 5.31942,-3.36176 6.1443,-1.76377 0.82488,1.598 3.00224,8.39206 -0.22909,10.67146 -3.23133,2.2794 -2.57791,5.3324 -5.14577,7.17068 -2.56786,1.83827 -5.94117,6.04429 -9.80025,6.50948 -3.85908,0.46519 -11.26068,0.37674 -14.36114,-0.34086 -3.10045,-0.71761 -8.00024,-0.5262 -9.02201,-1.45099 -1.02177,-0.92479 -1.43188,-1.35212 -3.30277,0.5683 -1.87089,1.92043 -7.89459,0.17698 -13.19205,1.17265 -5.29746,0.99567 -12.38542,1.0155 -16.72379,2.41861 -4.33837,1.4031 -7.47949,2.91151 -10.55365,1.9623 -3.07416,-0.94922 -12.039198,-3.16474 -16.945732,-1.92524 -4.906531,1.2395 -19.132338,2.81809 -21.458867,2.72563 -2.326529,-0.0924 -2.692233,-1.35256 -4.851365,-1.35256 -2.159133,0 -11.165496,1.52046 -12.960797,-0.006 -1.795301,-1.5261 1.346308,-2.0492 1.392626,-3.34599 0.04632,-1.29679 -0.07482,-1.91753 4.026305,-4.39602 4.101126,-2.4785 12.943358,-10.84413 16.514842,-12.13049 3.571483,-1.28637 11.972504,-4.43619 14.177261,-5.8015 2.204759,-1.36531 9.96002,2.71707 14.258087,3.31731 4.29807,0.60023 14.59517,1.42901 17.59913,1.91256 3.00395,0.48355 8.36903,0.40921 11.56979,0.30103 3.20077,-0.10818 15.46605,0.61044 18.55014,0.34918 3.08408,-0.26126 16.65786,-2.84896 18.59477,-4.2085 1.93691,-1.35954 4.48725,-0.91816 4.48725,-0.91816 z"
         id="path11271" />
      <path
         style="fill:#cd453f;fill-opacity:1;stroke:none;stroke-width:0.264583px;stroke-linecap:butt;stroke-linejoin:miter;stroke-opacity:1"
         d="m 169.90155,190.38565 c -4.29962,0.34137 -6.74244,1.43708 -10.09542,3.08443 -3.35299,1.64736 -12.82863,4.58367 -13.9037,6.45331 -1.07506,1.86964 0.21914,4.06839 3.33345,4.39051 3.1143,0.32211 8.63988,0.85476 11.05971,0.48481 2.41983,-0.36995 4.91696,0.0299 6.99843,0.39492 2.08147,0.36504 9.91394,-0.40831 10.90549,-2.31017 0.99154,-1.90186 3.33117,-6.53548 0.92333,-7.25332 -2.40784,-0.71784 -3.63223,-1.46749 -3.80099,-1.99844 -0.16875,-0.53095 -3.11114,0.46281 -3.2443,-0.16521 -0.13317,-0.62802 0.44073,-2.73463 -0.81708,-2.97778 -1.25781,-0.24315 -1.35892,-0.10306 -1.35892,-0.10306 z"
         id="path11273" />
      <path
         id="path11275"
         style="fill:#d6704c;fill-opacity:1;stroke:none;stroke-width:0.264583px;stroke-linecap:butt;stroke-linejoin:miter;stroke-opacity:1"
         d="m 71.395123,178.4414 c -10.338239,-0.0159 -18.482738,1.27775 -21.718052,2.4505 -0.089,0.0323 -0.166545,0.0513 -0.250632,0.078 0.936175,0.85832 1.963089,1.51578 2.394688,1.90221 1.08063,0.96753 9.218033,4.22955 10.703221,4.44624 1.485188,0.2167 16.939077,5.89145 18.852078,6.80165 1.913004,0.91021 2.526504,2.51148 4.163055,3.33623 1.636551,0.82475 6.072979,-0.0634 8.534363,-0.95447 2.461387,-0.89101 10.884186,0.13758 14.160896,0.66353 3.2767,0.52595 12.015,0.59215 14.32263,0.2372 2.30764,-0.35498 4.28672,0.94214 6.35517,1.58905 2.06844,0.6469 7.89892,1.25439 10.05055,1.15135 2.15163,-0.10304 6.31944,-1.07985 7.3732,-1.84744 1.05375,-0.76759 8.75556,-3.44709 10.27534,-3.9982 1.51978,-0.55113 9.42268,-3.9678 10.47171,-4.4726 1.04904,-0.50479 -1.22134,-1.70551 0.37052,-2.72024 1.59187,-1.01473 9.05367,1.35666 11.42979,2.51922 2.37613,1.16256 8.63485,5.66464 11.03551,5.50974 0.70647,-0.0456 0.9343,-0.38824 0.88676,-0.894 -2.3584,-2.13945 -4.77301,-3.99441 -6.43836,-5.16093 -4.23056,-2.96332 -11.10539,-7.0632 -22.95364,-5.45703 -11.84825,1.60619 -27.40744,0.0257 -32.38304,-0.63665 -4.9756,-0.66229 -25.24906,-1.12758 -30.318044,-1.12758 -5.06898,0 -16.979473,-3.39997 -27.317713,-3.41581 z" />
      <path
         id="path11393"
         style="fill:#e06546;fill-opacity:1;stroke:none;stroke-width:0.264583px;stroke-linecap:butt;stroke-linejoin:miter;stroke-opacity:1"
         d="m 83.054877,197.08006 c 0.337595,2.27611 2.064544,5.48237 4.024561,9.55549 2.213658,4.60022 7.937601,12.13856 7.768003,15.94114 -0.07941,1.7805 -1.969421,3.3952 -4.548561,4.81831 0.767057,0.4404 1.664137,0.64818 2.830836,0.81236 2.069983,0.29129 5.925976,2.32507 7.726144,2.3766 1.80017,0.0515 7.47673,0.94083 8.66976,0.87643 1.19303,-0.0644 3.28757,1.56183 4.48086,1.33945 1.19328,-0.22239 1.97809,-0.6097 2.85616,-0.22221 0.87806,0.38749 5.8377,1.50074 7.87962,0.93069 2.04192,-0.57005 11.0427,-0.087 13.01936,-0.0512 1.97666,0.0358 9.5847,0.87004 11.19001,0.7829 1.60531,-0.0872 2.75779,-1.58768 4.60902,-1.65209 1.85123,-0.0644 2.81901,0.57844 5.12837,0.28474 2.30935,-0.29372 12.39279,-2.23761 13.20075,-3.4892 0.80795,-1.25159 -0.43999,-3.17442 0.93224,-3.30832 1.37223,-0.1339 2.43175,1.24482 5.38572,0.58756 2.95396,-0.65726 8.71873,-2.04973 8.99118,-2.9223 0.27246,-0.87256 3.19628,0.3931 4.18011,-0.38034 0.98383,-0.77343 0.40738,-4.83444 -1.00563,-5.74745 -1.41301,-0.91303 -6.82864,-3.30432 -7.24038,-5.46427 -0.41174,-2.15995 0.15146,-4.70056 -2.35593,-5.14801 -2.5074,-0.44744 -4.17028,-1.02616 -7.15305,-0.35966 -2.98277,0.66648 -11.36175,0.54849 -14.96084,0.32194 -3.59909,-0.22655 -15.60178,-3.56451 -17.61805,-4.84518 -2.01626,-1.28066 -13.20334,-1.40614 -14.85491,-1.38183 -1.65158,0.0243 -6.31498,-1.92701 -9.43353,-2.09135 -3.11855,-0.16434 -11.19847,-0.10219 -14.1242,-0.50953 -2.925735,-0.40734 -7.438344,-0.33511 -9.587533,-0.13849 -2.149189,0.19662 -3.781481,2.71669 -5.309238,1.95854 -1.527754,-0.75815 -2.642925,-2.37966 -4.155302,-2.77193 -0.169934,-0.0441 -0.34667,-0.0776 -0.52555,-0.10283 z" />
      <path
         style="fill:#ecddca;fill-opacity:1;stroke:none;stroke-width:0.264583px;stroke-linecap:butt;stroke-linejoin:miter;stroke-opacity:1"
         d="m 81.196086,214.77349 c -1.898208,2.09206 -4.459512,4.37188 -5.926288,4.93493 -1.466776,0.56306 -7.25361,2.60912 -7.566853,4.48252 -0.313243,1.8734 -1.077882,3.19672 -0.08949,3.63267 0.988388,0.43594 -0.827877,-0.31428 1.034086,-2.11057 1.861963,-1.79629 3.063354,-3.31539 4.068445,-3.22244 1.005094,0.0929 5.83628,-3.72206 6.892591,-3.99422 1.056312,-0.27216 5.069317,-2.38591 5.294313,-2.75886 0.224996,-0.37295 0.564097,2.74232 -0.557951,4.2748 -1.122047,1.53247 -2.925199,5.08219 -1.915139,3.60454 1.01006,-1.47765 3.174212,-1.62565 3.224194,-3.41369 0.04998,-1.78804 0.554736,-4.17797 0.604721,-5.53241 0.04999,-1.35442 -0.807841,-1.3364 -1.9236,-0.33549 -1.115758,1.0009 -2.815965,2.86654 -2.720943,2.14275 0.09502,-0.72379 0.560369,-1.00268 0.599898,-1.86119 0.03953,-0.8585 -1.017985,0.15666 -1.017984,0.15666 z"
         id="path30763"
         sodipodi:nodetypes="csssscsssssssssc" />
      <path
         style="fill:#ecddca;fill-opacity:1;stroke:none;stroke-width:0.264583px;stroke-linecap:butt;stroke-linejoin:miter;stroke-opacity:1"
         d="m 44.990072,184.01731 c -0.693567,-0.20447 -2.645895,2.5391 -3.65108,4.12576 -1.005185,1.58666 -1.845998,3.30719 -2.269527,5.29439 -0.423529,1.9872 -0.751887,6.01345 -0.09647,6.42993 0.655417,0.41648 0.848198,-4.34336 1.333269,-5.68656 0.485071,-1.3432 0.718945,-1.26172 1.217891,-2.44087 0.498946,-1.17915 1.039844,-3.39077 1.641824,-4.6744 0.60198,-1.28364 1.824093,-3.04825 1.824093,-3.04825 z"
         id="path32618"
         sodipodi:nodetypes="szzzzzzs" />
      <path
         style="fill:#ecddca;fill-opacity:1;stroke:none;stroke-width:0.264583px;stroke-linecap:butt;stroke-linejoin:miter;stroke-opacity:1"
         d="m 93.4664,215.72005 c 0.280882,-1.38911 0.477716,-3.12664 1.760892,-2.56596 1.283179,0.56068 1.949707,0.75323 3.58104,0.18357 1.631328,-0.56966 2.671428,-0.84182 4.401988,-0.28972 1.73056,0.55209 3.68099,0.4939 4.04652,1.84545 0.36553,1.35155 -0.45264,2.71355 -1.51517,1.80255 -1.06253,-0.91099 -2.60128,-1.904 -4.30503,-1.84117 -1.703742,0.0628 -2.515862,0.46329 -2.648088,1.19835 -0.132225,0.73507 -1.263713,1.28487 -2.754842,1.29646 -1.49113,0.0116 -2.4254,-0.16312 -2.56731,-1.62953 z"
         id="path33016" />
      <path
         style="fill:#ecddca;fill-opacity:1;stroke:none;stroke-width:0.264583px;stroke-linecap:butt;stroke-linejoin:miter;stroke-opacity:1"
         d="m 152.72486,235.01633 c 0.7225,0.26036 2.70575,0.84909 3.61666,0.79681 0.91091,-0.0523 0.73712,-2.40042 1.43537,-1.76429 0.69826,0.63613 -0.15474,1.54355 1.60091,1.8057 1.75566,0.26215 2.68713,0.44208 3.38778,-0.5009 0.70064,-0.94299 0.50226,-0.64332 2.00133,-0.24874 1.49907,0.39458 2.52784,0.96622 3.07145,0.40427 0.54361,-0.56196 0.71478,-1.55078 1.4322,-2.70712 0.71742,-1.15633 1.1818,0.35275 1.1818,0.35275 -0.25915,0.70853 -0.50452,2.31846 -0.18884,2.52251 0.31567,0.20404 2.45745,0.32243 3.295,-0.0235 0.83755,-0.34594 1.81754,-0.44784 1.70928,-0.87853 -0.10825,-0.4307 1.19766,-0.27094 1.37289,0.18334 0.17522,0.45428 0.56426,0.52824 1.04941,0.69082 0.48514,0.16258 -0.13343,1.08908 -0.66818,0.90173 -0.53475,-0.18735 -0.95952,-0.69846 -1.33973,-0.38704 -0.38022,0.31143 -1.59566,0.55553 -1.52904,1.25382 0.0666,0.6983 1.01228,2.33647 1.76077,2.61514 0.74849,0.27867 1.17245,1.10903 0.30367,0.9586 -0.86879,-0.15043 -2.4066,-1.52683 -2.58708,-1.8793 -0.18047,-0.35247 -0.14661,-1.35472 -0.72525,-1.47529 -0.57864,-0.12058 -2.91604,-0.7915 -2.84301,-0.1936 0.073,0.59791 0.48439,2.32177 0.80153,2.66835 0.31714,0.34658 1.34298,0.53905 1.27347,1.39319 -0.0695,0.85415 -0.42775,1.6772 0.22534,1.89202 0.6531,0.21482 1.22161,0.0662 1.27574,0.832 0.0541,0.76581 -0.11075,2.26019 -0.38079,1.64163 -0.27004,-0.61856 -0.35246,-1.09659 -0.79898,-1.35871 -0.44653,-0.26212 -1.09164,-0.20458 -1.21655,-0.57543 -0.12491,-0.37084 0.0777,-2.12774 -0.21631,-2.52479 -0.29401,-0.39704 -1.04557,-0.7603 -1.133,-1.36365 -0.0874,-0.60335 0.063,-1.0765 -0.40746,-1.59207 -0.47048,-0.51556 -0.6566,-1.22538 -1.18858,-1.23141 -0.53198,-0.006 -1.51297,-0.70204 -2.18516,-0.79427 -0.67218,-0.0922 -2.64352,-0.51599 -3.31687,-0.005 -0.67335,0.51139 -0.11619,1.86476 -0.49508,2.02757 -0.37888,0.16281 -0.70085,-1.36797 -1.64553,-1.3717 -0.94468,-0.004 -2.68977,0.39118 -2.96456,0.58716 -0.2748,0.19597 -0.85867,0.234 -1.18295,-0.29917 -0.32428,-0.53317 -1.36685,-1.19941 -1.57919,-0.76526 -0.21235,0.43416 0.91159,1.592 0.3467,1.65775 -0.56489,0.0658 -1.9649,-0.0839 -2.21471,0.44675 -0.24981,0.53064 0.065,1.51503 0.37164,2.05371 0.30662,0.53869 0.71928,1.50225 0.48679,1.89942 -0.23249,0.39717 -0.30515,0.0956 -0.98455,-0.0816 -0.70142,-0.18289 -0.76107,-0.25968 0.0284,-0.46678 0.44364,-0.0507 0.13609,-1.07533 -0.61335,-1.43412 -0.74945,-0.35878 -1.85342,-0.40072 -2.26561,-0.75649 -0.4122,-0.35577 -0.71865,-1.6159 -0.11107,-1.11561 0.60758,0.50029 1.46094,0.68647 1.78768,0.49198 0.32674,-0.19449 0.38727,-0.68321 0.25435,-0.93299 -0.13291,-0.24979 0.35418,-0.34661 0.76431,-0.3761 0.41012,-0.0295 1.37194,-0.16646 0.89765,-0.55668 -0.4743,-0.39021 -1.36263,-0.29864 -2.27446,-0.48256 -0.91182,-0.18391 -1.55893,-0.081 -1.87079,-0.44898 -0.31185,-0.36795 1.16699,0.22909 1.9212,0.007 0.75421,-0.2219 1.87081,-0.0183 1.36825,-0.58316 -0.50257,-0.56481 -1.04132,-1.05136 -0.0949,-0.90976 z"
         id="path33167"
         sodipodi:nodetypes="cssssssscssssssssssssssssssssssssscscssscsssscssssssssscscc" />
    </g>
  </g>
</svg>
