<?xml version="1.0" encoding="UTF-8" standalone="no"?>
<!-- Created with Inkscape (http://www.inkscape.org/) -->

<svg
   width="121.37047mm"
   height="124.10303mm"
   viewBox="0 0 121.37047 124.10303"
   version="1.1"
   id="svg40509"
   inkscape:version="1.1.1 (3bf5ae0d25, 2021-09-20)"
   sodipodi:docname="salami_01.svg"
   xmlns:inkscape="http://www.inkscape.org/namespaces/inkscape"
   xmlns:sodipodi="http://sodipodi.sourceforge.net/DTD/sodipodi-0.dtd"
   xmlns="http://www.w3.org/2000/svg"
   xmlns:svg="http://www.w3.org/2000/svg">
  <sodipodi:namedview
     id="namedview40511"
     pagecolor="#ffffff"
     bordercolor="#666666"
     borderopacity="1.0"
     inkscape:pageshadow="2"
     inkscape:pageopacity="0.0"
     inkscape:pagecheckerboard="0"
     inkscape:document-units="mm"
     showgrid="false"
     fit-margin-top="0"
     fit-margin-left="0"
     fit-margin-right="0"
     fit-margin-bottom="0"
     inkscape:zoom="0.77593294"
     inkscape:cx="228.75688"
     inkscape:cy="318.32648"
     inkscape:window-width="1916"
     inkscape:window-height="965"
     inkscape:window-x="1920"
     inkscape:window-y="113"
     inkscape:window-maximized="1"
     inkscape:current-layer="layer1" />
  <defs
     id="defs40506" />
  <g
     inkscape:label="Layer 1"
     inkscape:groupmode="layer"
     id="layer1"
     transform="translate(-44.460836,-64.356954)">
    <g
       id="g40426"
       transform="translate(-0.68027758,15.320371)">
      <path
         id="path40362"
         style="opacity:1;fill:#ee3f1c;fill-opacity:1;stroke:#000000;stroke-width:1.6;stroke-linecap:round;stroke-linejoin:round"
         d="m 165.70746,121.65388 c -0.14798,11.13754 -3.38336,16.93051 -7.70422,24.24998 -5.52111,9.35266 -10.2519,16.25125 -22.41926,20.59802 -8.01731,2.86417 -20.43734,5.83774 -30.73262,5.83774 -10.706455,-1e-5 -18.921869,-2.06442 -26.647613,-5.23644 -7.935924,-3.25831 -14.829935,-7.01985 -19.987203,-14.36193 -6.68028,-9.51029 -12.275429,-24.11242 -12.27543,-38.52102 -10e-7,-17.525075 3.930135,-34.440824 13.593181,-45.887959 4.291464,-5.083798 11.080612,-9.393458 17.233175,-12.384733 8.737529,-4.248043 17.62186,-6.110953 28.54985,-6.110955 10.14724,-10e-7 15.83861,1.146572 24.29643,3.931655 9.00183,2.964222 17.44883,8.660885 22.52014,15.866533 5.78601,8.221125 9.04307,19.468424 11.18191,31.360369 1.2441,6.91721 2.47592,14.3165 2.39166,20.65874 z"
         sodipodi:nodetypes="ssssssssssssss" />
      <path
         style="fill:#d02a1d;fill-opacity:1;stroke:none;stroke-width:0.264583px;stroke-linecap:butt;stroke-linejoin:miter;stroke-opacity:1"
         d="m 107.62071,172.20194 c -15.743818,-1.69086 -38.811894,-9.99709 -24.936914,-9.1469 13.874977,0.85019 40.966744,6.13109 49.319964,-1.43176 8.35323,-7.56285 -4.9663,-3.46823 -12.50183,-3.61341 -7.53553,-0.14518 15.5586,-2.16858 21.64058,-10.55941 6.08198,-8.39082 2.62351,-18.24822 -8.0258,-21.25391 -10.64931,-3.00569 -10.07497,-8.34575 5.24616,-9.47852 15.32114,-1.13278 27.2764,1.18936 27.34459,4.93585 0.0885,4.86212 -1.14666,10.18711 -5.36767,19.71401 -2.50265,5.64852 -8.01514,13.90631 -10.76054,16.3619 -5.10816,4.56893 -9.726,6.94164 -17.43873,9.80647 -9.94802,3.69512 -21.77741,5.17299 -24.51981,4.66568 z"
         id="path40364"
         sodipodi:nodetypes="cssssssssssc" />
      <path
         style="fill:#d02a1d;fill-opacity:1;stroke:none;stroke-width:0.264583px;stroke-linecap:butt;stroke-linejoin:miter;stroke-opacity:1"
         d="m 48.748901,93.736417 c 8.627978,-3.924591 48.294374,-8.816991 37.312777,-4.907719 -10.981595,3.909271 -40.331345,11.564282 -19.081806,15.242642 21.249542,3.67836 66.714478,3.6346 56.892208,6.81704 -9.82227,3.18244 -56.188188,4.54058 -48.990577,7.77461 7.197613,3.23403 4.816607,17.584 19.670868,16.96324 14.854259,-0.62076 46.427229,-0.30287 34.399629,4.62557 -12.0276,4.92845 -42.728053,12.49643 -55.072168,7.34715 -12.344116,-5.14927 -20.896434,-6.79345 -23.891636,-12.90444 -2.995205,-6.111 -3.788384,-16.69987 -3.684479,-21.06649 0.103904,-4.36662 0.687149,-18.971091 2.445184,-19.891603 z"
         id="path40366" />
      <path
         style="fill:#d02a1d;fill-opacity:1;stroke:none;stroke-width:0.264583px;stroke-linecap:butt;stroke-linejoin:miter;stroke-opacity:1"
         d="m 137.80821,57.682067 c -13.14755,-0.536996 -39.014879,6.026501 -46.752397,9.086269 -7.737517,3.059769 -29.545644,17.936752 0.533956,14.38946 30.079601,-3.547295 55.161831,-1.670085 39.821861,3.077281 -15.33998,4.747366 -57.416758,18.317583 -33.084636,17.463263 24.332126,-0.85431 54.625516,-3.584803 47.859756,1.42966 -6.76577,5.01446 10.57075,7.83565 14.87683,3.16959 1.68881,-1.82999 1.69789,-9.620573 -0.61023,-17.334029 -1.87063,-6.25145 -5.12284,-14.835514 -9.26695,-20.633367 -3.78033,-5.288908 -8.29268,-7.946215 -13.37819,-10.648127 z"
         id="path40368"
         sodipodi:nodetypes="cssssssssc" />
      <path
         style="fill:#f9dfd2;fill-opacity:1;stroke:none;stroke-width:0.264583px;stroke-linecap:butt;stroke-linejoin:miter;stroke-opacity:1"
         d="m 138.98608,94.307312 c -0.86363,0.299337 -0.8375,1.784962 -0.70581,2.501506 0.13169,0.716544 0.90909,0.304553 1.05618,1.422956 0.14709,1.118403 -1.58178,2.780256 -1.8392,4.645256 -0.25742,1.865 -0.26527,4.78191 0.6457,6.26679 0.91097,1.48488 2.69514,1.4344 3.48934,2.25086 0.7942,0.81646 0.60957,1.81944 1.39087,2.29286 0.7813,0.47342 1.90635,0.66834 2.79373,0.17907 0.88738,-0.48927 0.69622,-2.58465 1.56989,-2.88047 0.87367,-0.29582 1.21701,1.09008 2.05902,0.91661 0.84201,-0.17347 1.77667,-1.31813 1.97041,-2.13371 0.19374,-0.81558 -0.73528,-1.27916 -0.58564,-2.04302 0.14963,-0.76385 1.32165,-1.15571 1.57248,-2.00102 0.25083,-0.84531 -0.0165,-1.77967 -0.24438,-2.73455 -0.22784,-0.95488 -0.43908,-1.90529 -1.16452,-2.92109 -0.72544,-1.015799 -2.62424,-1.98327 -3.29546,-2.831491 -0.67122,-0.848221 -0.43191,-1.531114 -0.98658,-1.904894 -0.55467,-0.37378 -1.41757,-0.472447 -1.85984,-0.173543 -0.44227,0.298904 -0.48178,0.467765 -0.38059,1.279522 0.10118,0.811757 2.03341,2.156343 1.82839,3.070104 -0.20502,0.913762 -0.81904,1.147482 -1.6972,1.141862 -0.87816,-0.006 -2.08271,-0.988472 -2.65194,-1.83251 -0.56923,-0.844038 -0.10298,-2.011298 -0.63113,-2.814915 -0.52815,-0.803617 -1.47009,-1.99552 -2.33372,-1.696183 z"
         id="path40370"
         sodipodi:nodetypes="zzzzzzzzzzzzzzzzzzzzzzzz" />
      <path
         style="fill:#f9dfd2;fill-opacity:1;stroke:none;stroke-width:0.264583px;stroke-linecap:butt;stroke-linejoin:miter;stroke-opacity:1"
         d="m 102.56984,88.429731 c -0.50298,-0.819125 -2.10442,0.81621 -2.5106,-0.01749 -0.406182,-0.8337 0.48989,-1.720813 1.86526,-2.417757 1.37537,-0.696944 5.04062,-1.317353 6.19575,-0.150902 1.15513,1.166451 0.33936,2.188572 -0.12452,3.650051 -0.46388,1.461479 -2.1529,3.266448 -3.0431,4.638733 -0.8902,1.372285 -2.25155,2.618121 -2.30356,3.591287 -0.052,0.973166 0.71582,0.334309 0.70678,1.413939 -0.009,1.079628 -2.72255,3.071458 -2.26295,4.343078 0.4596,1.27162 2.78016,0.18838 2.96566,1.24272 0.1855,1.05434 -1.58355,1.608 -2.35769,2.17503 -0.77414,0.56703 -1.767887,0.56264 -2.213733,1.26528 -0.445846,0.70264 0.177645,1.73482 -0.193524,2.43543 -0.371169,0.70061 -0.94564,1.39734 -1.805536,1.44732 -0.859896,0.05 -1.745495,-0.44273 -2.418654,-1.51517 -0.673159,-1.07244 -1.083639,-3.4643 -0.52026,-4.71455 0.563379,-1.25025 2.395947,-1.29948 2.847935,-2.00816 0.451988,-0.70868 -0.208595,-0.86944 0.277262,-1.53368 0.485857,-0.66424 2.55125,-0.94652 2.987,-1.5802 0.43575,-0.63368 0.43748,-0.734878 0.14856,-1.226083 -0.28892,-0.491205 -1.451822,-0.101244 -2.022818,-0.824005 -0.570996,-0.722761 -0.826643,-1.965789 -0.510339,-3.30318 0.316304,-1.337391 2.140747,-2.830662 2.840107,-3.997074 0.69936,-1.166412 1.95595,-2.095492 1.45297,-2.914617 z"
         id="path40372"
         sodipodi:nodetypes="zzzzzzzzzzzzzzzzzzzzzzzz" />
      <path
         style="fill:#f9dfd2;fill-opacity:1;stroke:none;stroke-width:0.264583px;stroke-linecap:butt;stroke-linejoin:miter;stroke-opacity:1"
         d="m 100.65877,122.96618 c -0.25178,-0.12993 0.17429,-1.00499 -0.0879,-1.54413 -0.26219,-0.53914 -0.753713,-1.41486 -1.538326,-1.35569 -0.784613,0.0592 -1.342264,1.25358 -1.716101,2.04624 -0.373837,0.79266 -0.620904,1.63149 -0.472201,2.54432 0.148703,0.91283 0.730135,1.82491 1.436568,2.58965 0.706433,0.76474 1.81792,1.57328 2.7376,1.81598 0.91968,0.2427 1.73786,0.14027 2.41596,-0.1686 0.6781,-0.30887 1.22857,-0.88594 1.4492,-1.44849 0.22063,-0.56255 0.14544,-1.17767 -0.0601,-1.5755 -0.20554,-0.39783 -0.7495,-0.0433 -0.88026,-0.67635 -0.13076,-0.63304 1.09112,-1.72699 1.34722,-2.41839 0.2561,-0.6914 0.62169,-1.24104 0.33088,-1.62213 -0.29081,-0.38109 -0.73976,-0.0869 -1.21808,-0.0804 -0.47832,0.006 -0.99244,-0.11871 -1.64233,0.15308 -0.64989,0.27179 -1.60464,1.39064 -1.97231,1.65882 -0.36767,0.26818 0.12196,0.21152 -0.12982,0.0816 z"
         id="path40374"
         sodipodi:nodetypes="zzzzzzzzzzzzzzzzz" />
      <path
         style="fill:#f9dfd2;fill-opacity:1;stroke:none;stroke-width:0.264583px;stroke-linecap:butt;stroke-linejoin:miter;stroke-opacity:1"
         d="m 98.085242,114.92849 c -0.0059,-0.77346 1.548438,-1.72734 2.343998,-1.86599 0.79556,-0.13865 1.17511,0.24221 1.75114,0.59441 0.57603,0.3522 1.23278,0.97198 1.58018,1.53325 0.3474,0.56127 0.11312,1.35074 0.53316,1.67594 0.42004,0.3252 0.98979,0.28823 1.42646,0.0783 0.43667,-0.20993 0.48622,-1.00705 0.85866,-1.20352 0.37244,-0.19647 0.69656,-0.34898 1.04785,-0.0207 0.35129,0.32828 0.43621,1.22925 0.088,1.83464 -0.34821,0.60539 -1.44291,0.74696 -2.08878,1.08461 -0.64587,0.33765 -1.1379,0.91439 -1.78685,0.94046 -0.64895,0.0261 -1.2843,-0.29428 -1.72633,-0.73838 -0.44203,-0.4441 -0.58016,-1.23582 -0.732,-1.73373 -0.15184,-0.49791 0.008,-0.96794 -0.23747,-1.21843 -0.24506,-0.25049 -0.54099,-0.1876 -0.84148,-0.18324 -0.30049,0.004 -0.492217,0.31558 -0.914162,0.22705 -0.421945,-0.0885 -1.296468,-0.23121 -1.302376,-1.00467 z"
         id="path40376"
         sodipodi:nodetypes="zzzzzzzzzzzzzzzzz" />
      <path
         style="fill:#f9dfd2;fill-opacity:1;stroke:none;stroke-width:0.264583px;stroke-linecap:butt;stroke-linejoin:miter;stroke-opacity:1"
         d="m 102.10001,108.27419 c -0.0904,-0.97302 1.95305,-1.70045 3.01602,-2.02063 1.06297,-0.32018 2.34674,-0.4658 3.03051,0.0156 0.68377,0.4814 0.2086,1.39398 0.67959,1.86704 0.47099,0.47306 1.28722,-0.16044 1.8936,0.69869 0.60638,0.85913 0.41524,3.33097 0.0511,4.29073 -0.36414,0.95976 -0.673,1.1163 -1.25572,1.38309 -0.58272,0.26679 -1.35088,0.28433 -1.97661,0.0496 -0.62573,-0.23473 -1.3051,-0.80015 -1.49708,-1.37483 -0.19198,-0.57468 0.72251,-0.95563 0.29187,-1.57598 -0.43064,-0.62035 -2.46649,0.21368 -2.88403,-0.5071 -0.41754,-0.72078 0.98871,-1.28873 0.70313,-1.94651 -0.28558,-0.65778 -1.96195,0.0933 -2.05238,-0.8797 z"
         id="path40378"
         sodipodi:nodetypes="zzzzzzzzzzzzz" />
      <path
         style="fill:#f9dfd2;fill-opacity:1;stroke:none;stroke-width:0.264583px;stroke-linecap:butt;stroke-linejoin:miter;stroke-opacity:1"
         d="m 113.72329,113.7298 c -0.95224,0.19395 -2.1094,2.0036 -2.58036,3.07708 -0.47096,1.07348 -0.49077,2.21232 -0.38837,2.99257 0.1024,0.78025 0.96309,1.11408 0.6479,1.57601 -0.31519,0.46193 -1.16616,-0.35968 -1.6511,-0.0277 -0.48494,0.33198 -0.5973,1.24768 -0.64888,1.75893 -0.0516,0.51125 -0.11753,0.85046 0.18335,1.19429 0.30088,0.34383 0.64443,0.4769 1.47105,0.43156 0.82662,-0.0453 2.41662,-0.73541 3.16972,-1.32135 0.7531,-0.58594 1.12073,-1.01176 1.37437,-1.83308 0.25364,-0.82132 0.0861,-2.11427 -0.12693,-2.86365 -0.21306,-0.74938 -0.83473,-0.81376 -0.88219,-1.57821 -0.0475,-0.76445 1.31674,-1.86397 1.04868,-2.58268 -0.26806,-0.71871 -0.665,-1.01772 -1.61724,-0.82377 z"
         id="path40380"
         sodipodi:nodetypes="zzzzzzzzzzzzzz" />
      <path
         style="fill:#f9dfd2;fill-opacity:1;stroke:none;stroke-width:0.264583px;stroke-linecap:butt;stroke-linejoin:miter;stroke-opacity:1"
         d="m 62.397734,124.70244 c 1.115762,0.0847 0.57538,-2.68668 1.414156,-3.23495 0.838776,-0.54827 1.873161,0.19786 2.481868,0.002 0.608707,-0.19586 0.177008,-0.64029 1.099939,-0.79091 0.922931,-0.15062 2.628034,1.19471 4.066165,1.25716 1.438131,0.0624 3.248935,0.0619 4.281797,-0.92631 1.032862,-0.98819 1.142614,-3.00804 1.067517,-4.05779 -0.0751,-1.04975 -0.30191,-1.65343 -0.825236,-1.95142 -0.523326,-0.29799 -0.77216,0.68154 -1.480886,0.20184 -0.708726,-0.4797 0.002,-2.86875 -0.883999,-3.53131 -0.886017,-0.66256 -2.135991,0.0231 -2.995282,0.12384 -0.859291,0.1007 -1.519188,-0.0775 -2.152891,0.4185 -0.633703,0.49597 -0.389021,2.3556 -1.109607,2.39009 -0.720586,0.0345 -0.121982,-1.15265 -0.856466,-1.4608 -0.734484,-0.30815 -2.155888,0.12689 -2.992761,0.75153 -0.836873,0.62464 -1.21829,1.43263 -1.619784,2.73658 -0.401494,1.30395 -0.44962,3.63797 -0.314912,4.99621 0.134708,1.35824 -0.29538,2.99108 0.820382,3.07574 z"
         id="path40382"
         sodipodi:nodetypes="zzzzzzzzzzzzzzzzzz" />
      <path
         style="fill:#f9dfd2;fill-opacity:1;stroke:none;stroke-width:0.264583px;stroke-linecap:butt;stroke-linejoin:miter;stroke-opacity:1"
         d="m 55.857647,130.90951 c 1.074152,-0.13355 1.704657,-1.28979 2.158246,-2.44418 0.453589,-1.15439 0.23645,-2.82345 0.106323,-4.17982 -0.130127,-1.35637 -0.973043,-2.96297 -0.858914,-3.90098 0.114129,-0.93801 0.792174,-0.90499 0.741984,-1.50185 -0.05019,-0.59686 -0.664172,-0.42153 -1.125193,-1.55411 -0.461021,-1.13258 -0.232658,-4.37845 -0.790864,-5.36017 -0.558206,-0.98172 -0.52825,-0.92241 -1.052936,-0.85716 -0.524686,0.0653 -0.955196,0.91295 -1.083834,1.45542 -0.128638,0.54247 0.33075,0.98419 0.265597,1.50722 -0.06515,0.52303 -0.519186,0.70257 -0.668874,1.48865 -0.149688,0.78608 0.362062,2.36941 0.14556,3.1659 -0.216502,0.79649 -0.814512,0.85255 -0.972336,1.49464 -0.157824,0.64209 0.452953,1.74998 0.206574,2.17434 -0.246379,0.42436 -0.507303,-0.10039 -0.692743,0.31271 -0.18544,0.4131 0.377395,0.80808 0.583705,1.86775 0.20631,1.05967 -0.280317,3.38794 0.3688,4.50551 0.649117,1.11757 1.594753,1.95968 2.668905,1.82613 z"
         id="path40384"
         sodipodi:nodetypes="zzzzzzzzzzzzzzzzzz" />
      <path
         style="fill:#f9dfd2;fill-opacity:1;stroke:none;stroke-width:0.264583px;stroke-linecap:butt;stroke-linejoin:miter;stroke-opacity:1"
         d="m 54.856355,86.829706 c -0.172007,-0.55747 0.677738,-1.044965 0.776489,-1.930038 0.09875,-0.885073 -1.121412,-2.412399 -0.520737,-3.221188 0.600675,-0.808789 2.026074,-0.391723 2.757141,-0.368649 0.731067,0.02307 1.151455,-0.256917 1.576133,0.312975 0.424678,0.569892 -0.13465,1.986749 -0.249282,2.64572 -0.114632,0.658971 -0.596708,0.838834 -0.336106,1.313442 0.260602,0.474608 1.116987,0.756588 1.799204,0.588235 0.682217,-0.168353 0.90748,-1.665321 1.61879,-1.666325 0.71131,-0.001 1.317843,0.789507 1.359,1.391026 0.04116,0.601519 -0.567678,0.965685 -0.995159,1.34466 -0.427481,0.378975 -1.184949,0.433329 -1.525508,0.867325 -0.340559,0.433996 -0.0012,1.099607 -0.42509,1.495931 -0.42387,0.396324 -1.345677,0.753866 -1.884383,0.401092 -0.538706,-0.352774 0.127179,-1.382966 -0.387702,-1.897827 -0.514881,-0.514861 -1.79022,-0.239249 -2.38261,-0.486643 -0.59239,-0.247394 -1.008173,-0.232266 -1.18018,-0.789736 z"
         id="path40386"
         sodipodi:nodetypes="zzzzzzzzzzzzzzzzz" />
      <path
         style="fill:#f9dfd2;fill-opacity:1;stroke:none;stroke-width:0.264583px;stroke-linecap:butt;stroke-linejoin:miter;stroke-opacity:1"
         d="m 79.300191,81.855259 c -0.739324,-1.239216 1.408487,-2.36713 1.659554,-3.199083 0.251067,-0.831953 -0.162648,-1.319228 0.172976,-1.600829 0.335624,-0.281601 0.600835,-0.356656 1.016246,0.06816 0.415411,0.424816 -0.561001,2.05943 0.113491,2.543945 0.674492,0.484515 1.471019,-0.474404 2.341274,-0.674143 0.870255,-0.199739 2.324151,0.14968 2.878365,-0.496655 0.554214,-0.646335 -0.230143,-0.703993 0.03872,-2.187228 0.268863,-1.483235 1.264604,-5.472548 2.29276,-6.462191 1.028156,-0.989643 0.891322,-0.454789 1.627909,-0.508521 0.736587,-0.05373 2.132231,-0.354094 2.692194,0.426556 0.559963,0.78065 -0.53629,2.164338 -0.511577,2.995136 0.02471,0.830798 0.599827,1.174293 0.441637,1.897769 -0.15819,0.723476 -1.001686,1.17502 -1.528059,1.972238 -0.526373,0.797218 -0.861343,2.069822 -1.574374,2.82829 -0.713031,0.758468 -1.427593,1.170213 -2.533864,1.622954 -1.106271,0.452741 -2.544656,0.710205 -4.073837,0.856552 -1.529181,0.146347 -4.314091,1.156266 -5.053415,-0.08295 z"
         id="path40388"
         sodipodi:nodetypes="zzzzzzzzzzzzzzzzzz" />
      <path
         style="fill:#f9dfd2;fill-opacity:1;stroke:none;stroke-width:0.264583px;stroke-linecap:butt;stroke-linejoin:miter;stroke-opacity:1"
         d="m 114.08942,73.266431 c 0.4016,0.505936 1.61218,0.929234 2.40516,0.828151 0.79298,-0.101083 1.00181,-0.162069 1.8778,-1.244242 0.87599,-1.082173 2.13028,-4.209899 2.23677,-5.676286 0.10649,-1.466387 0.0233,-1.950678 -0.62121,-2.648519 -0.64448,-0.697841 -1.90176,-1.07636 -2.83724,-0.908357 -0.93548,0.168003 -1.8009,0.906451 -2.14282,1.681104 -0.34192,0.774653 0.291,1.219385 0.17478,2.350492 -0.11622,1.131107 -1.14467,3.330248 -1.22975,4.292719 -0.0851,0.962471 -0.26509,0.819002 0.13651,1.324938 z"
         id="path40390"
         sodipodi:nodetypes="zzzzzzzzzz" />
      <path
         style="fill:#f9dfd2;fill-opacity:1;stroke:none;stroke-width:0.264583px;stroke-linecap:butt;stroke-linejoin:miter;stroke-opacity:1"
         d="m 121.05984,73.181114 c 0.40066,-0.997378 3.30519,-1.435354 4.20114,-2.031095 0.89595,-0.595741 0.8593,-1.028213 1.34129,-1.184175 0.48199,-0.155962 0.87787,0.390941 1.24444,0.121566 0.36657,-0.269375 0.29469,-0.849945 0.30245,-1.447795 0.008,-0.59785 -1.0613,-1.451552 -0.37741,-2.074299 0.68389,-0.622747 2.3909,0.623718 3.3134,0.929508 0.9225,0.30579 2.08344,0.09767 2.23098,0.856766 0.14754,0.759093 -1.32895,0.84184 -1.64533,1.534665 -0.31638,0.692825 -0.35098,1.754874 -0.0848,2.318366 0.26618,0.563492 0.95455,0.113974 1.12846,0.860756 0.17391,0.746782 -0.75573,2.212594 -1.41682,2.848404 -0.66109,0.63581 -1.44823,0.920348 -2.11773,0.952315 -0.6695,0.03197 -1.3231,0.136291 -1.6094,-0.546177 -0.2863,-0.682468 2.00601,-1.470967 1.19027,-2.469055 -0.81574,-0.998088 -3.63536,1.140965 -4.83947,1.229635 -1.20411,0.08867 -1.70741,0.182384 -2.23931,-0.228766 -0.5319,-0.41115 -1.02282,-0.673241 -0.62216,-1.670619 z"
         id="path40392"
         sodipodi:nodetypes="zzzzzzzzzzzzzzzzzz" />
      <path
         style="fill:#f9dfd2;fill-opacity:1;stroke:none;stroke-width:0.264583px;stroke-linecap:butt;stroke-linejoin:miter;stroke-opacity:1"
         d="m 124.89369,95.702704 c 0.72654,-0.165954 2.23576,-1.309781 3.04661,-1.498389 0.81085,-0.188608 0.86586,0.520851 1.59983,0 0.73397,-0.520851 1.05679,-2.451181 1.25464,-3.587067 0.19785,-1.135886 0.46804,-2.137932 0.0263,-3.117665 -0.44174,-0.979733 -1.2371,-2.024998 -2.51445,-2.184014 -1.27735,-0.159016 -3.4222,0.882618 -3.92141,1.979534 -0.49921,1.096916 0.40112,1.956539 0.69982,2.750679 0.2987,0.79414 1.16511,1.203153 1.02087,2.007804 -0.14424,0.804651 -1.58449,1.139185 -1.94858,1.799561 -0.36409,0.660376 -0.65279,1.462038 -0.33994,1.840997 0.31285,0.378959 0.34977,0.174514 1.07631,0.0086 z"
         id="path40394"
         sodipodi:nodetypes="zzzzzzzzzzzz" />
      <path
         style="fill:#f9dfd2;fill-opacity:1;stroke:none;stroke-width:0.264583px;stroke-linecap:butt;stroke-linejoin:miter;stroke-opacity:1"
         d="m 106.50777,51.105064 c -1.19355,0.366175 -2.4543,0.746779 -2.46904,1.619607 -0.0147,0.872828 1.31024,0.793277 1.86709,1.317046 0.55685,0.523769 0.8412,1.458324 1.43948,1.796367 0.59828,0.338043 1.09835,0.465471 1.80494,0.242144 0.70659,-0.223327 1.25383,-1.41953 1.92859,-1.780953 0.67476,-0.361423 1.48227,0.06013 1.91224,-0.463637 0.42997,-0.523768 0.48669,-1.511276 0.0877,-2.096421 -0.39899,-0.585145 -0.93274,-0.525181 -2.03358,-0.701304 -1.10084,-0.176123 -3.34387,-0.299024 -4.53742,0.06715 z"
         id="path40396"
         sodipodi:nodetypes="zzzzzzzzzz" />
      <path
         style="fill:#f9dfd2;fill-opacity:1;stroke:none;stroke-width:0.264583px;stroke-linecap:butt;stroke-linejoin:miter;stroke-opacity:1"
         d="m 76.749811,57.277235 c -1.082418,1.112752 -1.641384,2.633004 -1.197552,3.320124 0.443832,0.68712 1.007218,-0.134184 1.374341,0.106875 0.367123,0.241059 0.254915,0.896098 0.587397,1.110922 0.332482,0.214824 0.806347,0.06437 1.116208,0.07027 0.309861,0.0059 0.373299,0.187028 0.740857,-0.01836 0.367558,-0.205388 0.584777,-1.087435 0.973016,-1.49674 0.388239,-0.409305 0.899193,-0.462584 1.293273,-0.941467 0.39408,-0.478883 0.153515,-1.352863 0.895103,-1.923359 0.741588,-0.570496 1.895629,-0.347394 3.438285,-0.612325 1.542656,-0.264931 4.529192,-0.314925 5.819986,-0.962605 1.290794,-0.64768 1.950963,-1.10848 1.993014,-1.917964 0.04205,-0.809484 -0.349362,-1.214881 -1.352481,-1.603172 -1.003119,-0.388291 -2.583723,0.144376 -4.318881,0.570651 -1.735158,0.426275 -4.083833,1.467503 -5.977324,2.184799 -1.893491,0.717296 -4.302824,0.999599 -5.385242,2.112351 z"
         id="path40398"
         sodipodi:nodetypes="zzzzzzzzzzzzzzzz" />
      <path
         style="fill:#f9dfd2;fill-opacity:1;stroke:none;stroke-width:0.264583px;stroke-linecap:butt;stroke-linejoin:miter;stroke-opacity:1"
         d="m 108.72933,165.72746 c -0.36674,-1.68402 2.44277,-1.99142 3.70353,-2.90928 1.26076,-0.91786 2.92987,-1.91913 3.85465,-2.59604 0.92478,-0.67691 0.80385,-1.10815 1.7457,-1.38592 0.94185,-0.27777 3.0333,-0.49012 3.64542,0.35635 0.61212,0.84647 0.0201,1.41093 -0.57142,2.54141 -0.59154,1.13048 -2.21875,2.84866 -3.41668,3.7194 -1.19793,0.87074 -1.91678,1.44481 -3.48726,1.59626 -1.57048,0.15145 -5.1072,0.36184 -5.47394,-1.32218 z"
         id="path40400"
         sodipodi:nodetypes="zzzzzzzzz" />
      <path
         style="fill:#f9dfd2;fill-opacity:1;stroke:none;stroke-width:0.264583px;stroke-linecap:butt;stroke-linejoin:miter;stroke-opacity:1"
         d="m 119.50193,158.00987 c 0.65124,1.21357 3.29665,-0.15265 5.5189,-0.50583 2.22225,-0.35318 6.02403,-1.4543 7.76031,-1.7665 1.73628,-0.3122 2.43488,0.52977 2.60309,-0.34561 0.16821,-0.87538 -1.23097,-0.72949 -2.37377,-1.33302 -1.1428,-0.60353 -3.23762,-2.25387 -4.50858,-2.23427 -1.27096,0.0196 -1.6872,0.83557 -2.28838,1.22331 -0.60118,0.38774 -0.52864,0.52471 -1.34639,1.03365 -0.81775,0.50894 -2.77547,1.09758 -3.65989,1.80716 -0.88442,0.70958 -2.35653,0.90754 -1.70529,2.12111 z"
         id="path40402"
         sodipodi:nodetypes="zzzzzzzzzz" />
      <path
         style="fill:#f9dfd2;fill-opacity:1;stroke:none;stroke-width:0.264583px;stroke-linecap:butt;stroke-linejoin:miter;stroke-opacity:1"
         d="m 134.82888,149.39528 c 1.58439,0.004 1.40101,-0.77658 2.04414,-0.95377 0.64313,-0.17719 1.09888,0.24117 1.73791,-0.17637 0.63903,-0.41754 1.52152,-1.75818 1.39403,-2.46659 -0.12749,-0.70841 -0.4262,-0.63151 -1.1359,-0.95724 -0.7097,-0.32573 -2.20964,-0.0186 -3.15878,-0.51079 -0.94914,-0.49222 -1.26929,-1.81728 -2.24812,-2.29864 -0.97883,-0.48136 -2.77484,-0.92197 -3.30652,-0.39057 -0.53168,0.5314 0.69431,0.85936 0.1379,1.17269 -0.55641,0.31333 -1.28644,-1.74785 -2.09055,-1.62955 -0.80411,0.1183 -1.32827,1.16229 -1.28707,1.81612 0.0412,0.65383 0.89661,0.68489 1.15255,1.25617 0.25594,0.57128 -0.68932,0.7744 0.20474,2.04093 0.89406,1.26653 4.97128,3.09377 6.55567,3.09761 z"
         id="path40404"
         sodipodi:nodetypes="zzzzzzzzzzzzzz" />
      <path
         style="fill:#f9dfd2;fill-opacity:1;stroke:none;stroke-width:0.264583px;stroke-linecap:butt;stroke-linejoin:miter;stroke-opacity:1"
         d="m 120.31317,134.88669 c 0.20784,-0.9533 3.88506,-0.48469 4.66761,-1.18031 0.78255,-0.69562 0.005,-0.99116 0.52411,-1.37088 0.51957,-0.37972 1.61785,-0.26255 2.38974,-0.13546 0.77189,0.12709 1.83071,0.11815 2.13348,0.85953 0.30277,0.74138 -0.3301,1.76869 -1.00392,2.2948 -0.67382,0.52611 -1.97805,0.58731 -2.58782,0.43737 -0.60977,-0.14994 -0.55121,-0.71685 -0.91021,-0.69144 -0.359,0.0254 0.0217,0.44805 -0.71465,0.72263 -0.73636,0.27458 -2.95373,0.006 -3.68802,-0.28497 -0.73429,-0.29078 -1.01816,0.30203 -0.81032,-0.65127 z"
         id="path40406"
         sodipodi:nodetypes="zzzzzzzzzzz" />
      <path
         style="fill:#f9dfd2;fill-opacity:1;stroke:none;stroke-width:0.264583px;stroke-linecap:butt;stroke-linejoin:miter;stroke-opacity:1"
         d="m 152.61345,121.67722 c 0.97571,0.61098 3.42108,0.59239 4.05821,0.0999 0.63713,-0.49249 -0.0343,-0.6052 0.17613,-0.75193 0.21048,-0.14673 0.40194,-0.20801 0.76137,0.0942 0.35943,0.30221 0.14865,1.50739 0.59741,1.96146 0.44876,0.45407 0.83595,0.75756 1.69657,0.53862 0.86062,-0.21894 2.29667,-1.23056 2.45765,-2.55924 0.16098,-1.32868 -1.03198,-3.05804 -2.24267,-3.88074 -1.21069,-0.8227 -2.9291,-0.5964 -4.25408,-0.62955 -1.32498,-0.0332 -2.94843,-0.23782 -3.63485,0.35329 -0.68642,0.59111 -0.23386,1.36566 -0.43397,1.72957 -0.20011,0.36391 -0.40436,-0.0731 -0.48801,0.51377 -0.0837,0.58682 0.33053,1.91967 1.30624,2.53065 z"
         id="path40408"
         sodipodi:nodetypes="zzzzzzzzzzzzz" />
      <path
         style="fill:#f9dfd2;fill-opacity:1;stroke:none;stroke-width:0.264583px;stroke-linecap:butt;stroke-linejoin:miter;stroke-opacity:1"
         d="m 94.479921,155.3858 c -0.635568,-0.79762 0.495848,-2.75868 1.152919,-3.89218 0.657071,-1.1335 1.601342,-2.33969 2.626545,-2.74848 1.025203,-0.40879 1.973775,0.0784 2.817085,0.13881 0.84331,0.0604 1.27184,0.13409 2.24242,0.21079 0.97058,0.0767 3.05439,-0.49823 3.58199,0.22953 0.5276,0.72776 0.057,1.05286 -0.45023,1.74688 -0.50725,0.69402 -1.81558,1.60841 -2.84027,1.78355 -1.02469,0.17514 -1.94894,-0.6151 -2.81261,-0.6353 -0.863667,-0.0202 -1.467424,-0.0862 -2.26467,0.40132 -0.797246,0.48755 -1.209183,2.21281 -1.997345,2.63581 -0.788162,0.423 -1.420266,0.92689 -2.055834,0.12927 z"
         id="path40410"
         sodipodi:nodetypes="zzzzzzzzzzzz" />
      <path
         style="fill:#f9dfd2;fill-opacity:1;stroke:none;stroke-width:0.264583px;stroke-linecap:butt;stroke-linejoin:miter;stroke-opacity:1"
         d="m 66.116009,155.66514 c -0.04708,-0.99478 1.011516,-1.36617 1.613384,-1.47043 0.601868,-0.10426 1.038408,0.16989 1.367351,0.57171 0.328943,0.40182 -0.222713,1.17322 0.320122,1.60202 0.542835,0.4288 1.766947,0.12906 2.515216,-0.0917 0.748269,-0.22076 1.275509,-1.17785 1.859074,-1.10768 0.583565,0.0702 0.74082,0.33198 0.97183,0.95505 0.23101,0.62307 0.08164,1.95235 -0.220207,2.61526 -0.301842,0.66291 -0.420009,1.02431 -1.216044,1.25271 -0.796035,0.2284 -2.441979,-0.33719 -3.129603,-0.77053 -0.687624,-0.43334 -0.393966,-0.65005 -1.049453,-1.27791 -0.655487,-0.62786 -2.984595,-1.28372 -3.03167,-2.2785 z"
         id="path40412"
         sodipodi:nodetypes="zzzzzzzzzzzz" />
      <path
         style="fill:#f9dfd2;fill-opacity:1;stroke:none;stroke-width:0.264583px;stroke-linecap:butt;stroke-linejoin:miter;stroke-opacity:1"
         d="m 75.387638,144.28975 c -0.895334,0.0297 -1.857817,-1.29824 -1.987269,-2.36282 -0.129452,-1.06458 1.293487,-2.01144 1.477764,-3.00325 0.184277,-0.99181 -0.613124,-1.29777 -0.242811,-2.69467 0.370313,-1.3969 2.88592,-3.89747 3.408217,-4.89582 0.522297,-0.99835 -0.134347,-0.50532 0.276984,-0.74519 0.411331,-0.23987 1.423474,-0.57919 2.035961,0.32654 0.612487,0.90573 -0.428805,3.35882 -0.992947,4.38737 -0.564142,1.02855 -1.429778,1.09369 -1.787943,1.8045 -0.358165,0.71081 -0.123015,1.51229 -0.34004,2.20942 -0.217025,0.69713 -0.906677,1.36129 -0.934889,1.93096 -0.02821,0.56967 0.523326,0.61036 0.440126,1.19856 -0.0832,0.5882 -0.457819,1.8147 -1.353153,1.8444 z"
         id="path40414"
         sodipodi:nodetypes="zzzzzzzzzzzzz" />
      <path
         style="fill:#f9dfd2;fill-opacity:1;stroke:none;stroke-width:0.357356px;stroke-linecap:butt;stroke-linejoin:miter;stroke-opacity:1"
         d="m 81.594115,154.57253 c -0.420149,1.22876 0.936604,3.76833 1.888559,5.02594 0.951955,1.2576 2.289525,2.03757 3.285123,2.43801 0.995598,0.40044 1.979379,-0.37173 2.312173,0.29941 0.332793,0.67112 -1.223043,1.1078 -1.160336,1.8886 0.06271,0.7808 1.072351,1.51933 1.643665,1.91878 0.571301,0.39948 0.928712,0.70113 1.542086,0.5822 0.613371,-0.11887 1.005841,-0.42728 1.516517,-1.41216 0.510723,-0.98486 0.777741,-3.28009 0.596857,-4.53944 -0.180885,-1.25936 -0.435029,-1.96707 -1.236226,-2.80603 -0.801197,-0.83896 -2.449534,-1.50501 -3.484054,-1.75715 -1.034539,-0.25209 -1.535434,0.42314 -2.47477,-0.0302 -0.939365,-0.45333 -1.312226,-2.75998 -2.347938,-2.92818 -1.035711,-0.16818 -1.661506,0.0916 -2.081656,1.32028 z"
         id="path40416"
         sodipodi:nodetypes="zzzzzzzzzzzzzz" />
      <path
         style="fill:#f9dfd2;fill-opacity:1;stroke:none;stroke-width:0.37449px;stroke-linecap:butt;stroke-linejoin:miter;stroke-opacity:1"
         d="m 79.567482,101.79365 c -0.158679,1.30653 -2.156582,2.38528 -3.615828,2.31813 -1.459244,-0.0672 -2.415976,-2.35913 -3.707849,-2.86417 -1.291875,-0.50504 -1.879876,0.57895 -3.674827,-0.29313 -1.794951,-0.87209 -4.597125,-5.122077 -5.822814,-6.11926 -1.225687,-0.997185 -0.708823,0.07393 -0.939914,-0.580511 -0.231092,-0.654436 -0.462557,-2.204667 0.890372,-2.876606 1.352929,-0.671938 4.418313,1.426971 5.6753,2.492121 1.256987,1.065149 1.152519,2.337069 2.028228,3.027162 0.875711,0.690095 2.004859,0.540819 2.893491,1.022795 0.888635,0.481977 1.628133,1.64199 2.387371,1.819404 0.759239,0.177411 0.936248,-0.613296 1.708189,-0.351637 0.771942,0.261658 2.33696,1.099172 2.178281,2.405702 z"
         id="path40418"
         sodipodi:nodetypes="zzzzzzzzzzzzz" />
      <path
         style="fill:#f9dfd2;fill-opacity:1;stroke:none;stroke-width:0.319328px;stroke-linecap:butt;stroke-linejoin:miter;stroke-opacity:1"
         d="m 140.19142,136.32892 c -0.7494,-0.9554 -0.28289,-2.44156 0.0594,-3.17854 0.34225,-0.73697 0.8425,-0.91821 1.36011,-0.85755 0.51763,0.0606 0.69087,1.41882 1.37625,1.28224 0.68538,-0.13663 1.31829,-1.72405 1.67812,-2.73236 0.35983,-1.0083 0.0359,-2.52841 0.49109,-3.06997 0.45526,-0.54156 0.75292,-0.44216 1.36204,-0.0552 0.60911,0.38691 1.46325,1.88644 1.7316,2.87279 0.26831,0.9864 0.44675,1.47546 0.0593,2.54162 -0.38745,1.06615 -1.93635,2.22228 -2.7254,2.50622 -0.78906,0.28394 -0.74156,-0.24316 -1.64848,-0.18944 -0.90693,0.0537 -2.99461,1.83567 -3.74399,0.88023 z"
         id="path40420"
         sodipodi:nodetypes="zzzzzzzzzzzz" />
      <path
         style="fill:#f9dfd2;fill-opacity:1;stroke:none;stroke-width:0.346057px;stroke-linecap:butt;stroke-linejoin:miter;stroke-opacity:1"
         d="m 153.93748,89.352801 c 0.72957,0.228238 1.81788,-0.468816 2.14927,-1.401047 0.3314,-0.932236 0.38402,-1.220939 -0.22844,-3.470781 -0.61246,-2.24984 -3.08069,-7.455246 -4.50103,-9.406757 -1.42034,-1.951511 -1.95409,-2.475846 -3.00989,-2.698684 -1.05579,-0.222871 -2.12447,0.577894 -2.46626,1.738942 -0.34178,1.161044 -0.0701,2.968062 0.52411,4.289044 0.59414,1.321023 1.38849,1.237413 2.46546,2.777324 1.07697,1.539912 2.73233,5.34869 3.65628,6.644994 0.92394,1.296324 0.68094,1.298719 1.4105,1.526965 z"
         id="path40422"
         sodipodi:nodetypes="zzzzzzzzzz" />
      <path
         id="path40424"
         style="opacity:1;fill:none;fill-opacity:1;stroke:#000000;stroke-width:1.6;stroke-linecap:round;stroke-linejoin:round"
         d="m 165.70746,121.65388 c -0.14798,11.13754 -3.38336,16.93051 -7.70422,24.24998 -5.52111,9.35266 -10.2519,16.25125 -22.41926,20.59802 -8.01731,2.86417 -20.43734,5.83774 -30.73262,5.83774 -10.706455,-1e-5 -18.921869,-2.06442 -26.647613,-5.23644 -7.935924,-3.25831 -14.829935,-7.01985 -19.987203,-14.36193 -6.68028,-9.51029 -12.275429,-24.11242 -12.27543,-38.52102 -10e-7,-17.525075 3.930135,-34.440824 13.593181,-45.887959 4.291464,-5.083798 11.080612,-9.393458 17.233175,-12.384733 8.737529,-4.248043 17.62186,-6.110953 28.54985,-6.110955 10.14724,-10e-7 15.83861,1.146572 24.29643,3.931655 9.00183,2.964222 17.44883,8.660885 22.52014,15.866533 5.78601,8.221125 9.04307,19.468424 11.18191,31.360369 1.2441,6.91721 2.47592,14.3165 2.39166,20.65874 z"
         sodipodi:nodetypes="ssssssssssssss" />
    </g>
  </g>
</svg>
