<?xml version="1.0" encoding="UTF-8" standalone="no"?>
<!-- Created with Inkscape (http://www.inkscape.org/) -->

<svg
   width="34.607426mm"
   height="40.703533mm"
   viewBox="0 0 34.607426 40.703533"
   version="1.1"
   id="svg62458"
   inkscape:version="1.2.2 (b0a8486541, 2022-12-01)"
   sodipodi:docname="arrow_down.svg"
   xmlns:inkscape="http://www.inkscape.org/namespaces/inkscape"
   xmlns:sodipodi="http://sodipodi.sourceforge.net/DTD/sodipodi-0.dtd"
   xmlns="http://www.w3.org/2000/svg"
   xmlns:svg="http://www.w3.org/2000/svg">
  <sodipodi:namedview
     id="namedview62460"
     pagecolor="#ffffff"
     bordercolor="#666666"
     borderopacity="1.0"
     inkscape:showpageshadow="2"
     inkscape:pageopacity="0.0"
     inkscape:pagecheckerboard="0"
     inkscape:deskcolor="#d1d1d1"
     inkscape:document-units="mm"
     showgrid="false"
     inkscape:zoom="0.77593294"
     inkscape:cx="-199.75953"
     inkscape:cy="135.32097"
     inkscape:window-width="1916"
     inkscape:window-height="911"
     inkscape:window-x="1920"
     inkscape:window-y="167"
     inkscape:window-maximized="1"
     inkscape:current-layer="layer1" />
  <defs
     id="defs62455">
    <inkscape:path-effect
       effect="taper_stroke"
       id="path-effect60050"
       is_visible="true"
       lpeversion="1"
       stroke_width="5.76"
       attach_start="1.99999"
       end_offset="1e-07"
       start_smoothing="0.5"
       end_smoothing="0.1"
       jointype="extrapolated"
       start_shape="center"
       end_shape="center"
       miter_limit="100" />
    <inkscape:path-effect
       effect="taper_stroke"
       id="path-effect62421"
       is_visible="true"
       lpeversion="1"
       stroke_width="5.76"
       attach_start="1.99999"
       end_offset="1e-07"
       start_smoothing="0.5"
       end_smoothing="0.1"
       jointype="extrapolated"
       start_shape="center"
       end_shape="center"
       miter_limit="100" />
    <inkscape:path-effect
       effect="taper_stroke"
       id="path-effect69234"
       is_visible="true"
       lpeversion="1"
       stroke_width="6.66"
       attach_start="1.3"
       end_offset="0.2"
       start_smoothing="0.5"
       end_smoothing="0.5"
       jointype="extrapolated"
       start_shape="center"
       end_shape="center"
       miter_limit="100" />
  </defs>
  <g
     inkscape:label="Layer 1"
     inkscape:groupmode="layer"
     id="layer1"
     transform="translate(-135.31757,-112.88859)">
    <g
       id="g72000"
       transform="rotate(139.84782,371.77775,72.453813)">
      <path
         style="fill:#da3c43;fill-opacity:1;fill-rule:nonzero;stroke:none;stroke-width:0.264583px;stroke-linecap:butt;stroke-linejoin:miter;stroke-opacity:1"
         d="m 580.23728,169.45047 c -2.17981,0.44999 -4.31715,0.84397 -6.47109,1.16971 -1.9206,0.27189 -3.34999,0.60799 -4.79993,0.67863 -3.70542,0.17456 -9.67721,0.1954 -11.87745,0.235 -3.07156,0.0553 -4.95489,0.173 -4.95489,0.173 0,0 1.74425,0.71513 4.64661,1.73447 2.76879,0.97243 7.12111,2.40019 11.8632,3.16758 2.02224,0.27762 3.87961,0.22038 5.63468,0.1858 2.41795,-0.0542 4.87319,-0.31921 7.30591,-0.82183 3.97396,-0.82073 8.00454,-2.09668 11.0784,-3.73329 0.88975,-0.46477 1.32135,-1.72114 1.41637,-2.82914 0.0949,-1.10623 -0.14373,-2.01118 -0.14373,-2.01118 0,0 -0.87574,-0.33643 -1.81489,-0.67906 -0.93653,-0.34167 -1.96394,-0.69989 -2.58773,-0.3593 -2.43137,1.29454 -5.65891,2.33857 -9.29546,3.08961 z"
         id="path69232"
         inkscape:path-effect="#path-effect69234"
         inkscape:original-d="m 552.13392,171.70681 c 18.94175,3.02013 18.21832,2.30507 21.88838,2.00061 7.5292,-0.6246 16.03422,-2.91005 19.91306,-6.3082"
         sodipodi:nodetypes="csc" />
      <path
         style="fill:#da3c43;fill-opacity:1;stroke:none;stroke-width:0.264583px;stroke-linecap:butt;stroke-linejoin:miter;stroke-opacity:1"
         d="m 591.14398,177.82545 c 0,0 5.31436,-3.76079 8.23046,-9.2056 1.27286,-2.37661 2.64062,-8.08508 2.64062,-8.08508 0,0 -3.21626,1.48516 -7.36747,2.51961 -3.18976,0.79486 -6.93153,1.19705 -10.19034,1.22672 0,0 5.6472,1.31147 7.27577,4.25032 1.62857,2.93882 -0.58904,9.29403 -0.58904,9.29403 z"
         id="path69236"
         sodipodi:nodetypes="cscscsc" />
    </g>
  </g>
</svg>
