<?xml version="1.0" encoding="UTF-8" standalone="no"?>
<!-- Created with Inkscape (http://www.inkscape.org/) -->

<svg
   width="71.350716mm"
   height="52.327126mm"
   viewBox="0 0 71.350716 52.327126"
   version="1.1"
   id="svg1154"
   inkscape:version="1.1.1 (3bf5ae0d25, 2021-09-20)"
   sodipodi:docname="directory.svg"
   xmlns:inkscape="http://www.inkscape.org/namespaces/inkscape"
   xmlns:sodipodi="http://sodipodi.sourceforge.net/DTD/sodipodi-0.dtd"
   xmlns="http://www.w3.org/2000/svg"
   xmlns:svg="http://www.w3.org/2000/svg">
  <sodipodi:namedview
     id="namedview1156"
     pagecolor="#ffffff"
     bordercolor="#666666"
     borderopacity="1.0"
     inkscape:pageshadow="2"
     inkscape:pageopacity="0.0"
     inkscape:pagecheckerboard="0"
     inkscape:document-units="mm"
     showgrid="false"
     fit-margin-top="0"
     fit-margin-left="0"
     fit-margin-right="0"
     fit-margin-bottom="0"
     inkscape:zoom="0.71812148"
     inkscape:cx="103.04663"
     inkscape:cy="209.57457"
     inkscape:window-width="1916"
     inkscape:window-height="1002"
     inkscape:window-x="1920"
     inkscape:window-y="76"
     inkscape:window-maximized="1"
     inkscape:current-layer="layer1" />
  <defs
     id="defs1151" />
  <g
     inkscape:label="Layer 1"
     inkscape:groupmode="layer"
     id="layer1"
     transform="translate(-66.52067,-37.369431)">
    <g
       id="g6090"
       transform="matrix(2.7390134,0,0,2.7390134,-107.95153,-150.01844)">
      <path
         id="path4086"
         style="fill:#cecece;fill-opacity:1;stroke:#000000;stroke-width:0.79375;stroke-linecap:round;stroke-linejoin:round;paint-order:markers fill stroke"
         d="m 69.194817,70.368437 h 2.517271 l 0.617386,-1.557194 h 5.132291 l 0.480575,1.557194 h 9.002043 c 1.3296,0 2.511755,1.075105 2.4,2.4 l -1.008272,11.953425 c -0.111755,1.324896 -1.0704,2.400001 -2.4,2.400001 H 68.186545 c -1.3296,0 -2.511755,-1.075105 -2.4,-2.400001 l 1.008272,-11.953425 c 0.111755,-1.324895 1.0704,-2.4 2.4,-2.4 z"
         sodipodi:nodetypes="sccccssssssss" />
      <path
         id="rect3847"
         style="fill:#ffffff;fill-opacity:1;stroke:#000000;stroke-width:0.79375;stroke-linecap:round;stroke-linejoin:round;paint-order:markers fill stroke"
         d="m 66.509069,72.335274 h 17.749566 c 1.3296,0 2.247149,1.079215 2.4,2.4 l 1.148309,9.922561 c 0.152851,1.320786 -1.0704,2.400001 -2.4,2.400001 H 67.657378 c -1.3296,0 -2.247149,-1.079215 -2.4,-2.400001 l -1.148309,-9.922561 c -0.152851,-1.320785 1.0704,-2.4 2.4,-2.4 z"
         sodipodi:nodetypes="sssssssss" />
    </g>
  </g>
</svg>
