<?xml version="1.0" encoding="UTF-8" standalone="no"?>
<!-- Created with Inkscape (http://www.inkscape.org/) -->

<svg
   width="25.634018mm"
   height="31.213465mm"
   viewBox="0 0 25.634018 31.213465"
   version="1.1"
   id="svg5256"
   inkscape:version="1.2.2 (b0a8486541, 2022-12-01)"
   sodipodi:docname="stopwatch.svg"
   xmlns:inkscape="http://www.inkscape.org/namespaces/inkscape"
   xmlns:sodipodi="http://sodipodi.sourceforge.net/DTD/sodipodi-0.dtd"
   xmlns="http://www.w3.org/2000/svg"
   xmlns:svg="http://www.w3.org/2000/svg">
  <sodipodi:namedview
     id="namedview5258"
     pagecolor="#ffffff"
     bordercolor="#666666"
     borderopacity="1.0"
     inkscape:showpageshadow="2"
     inkscape:pageopacity="0.0"
     inkscape:pagecheckerboard="0"
     inkscape:deskcolor="#d1d1d1"
     inkscape:document-units="mm"
     showgrid="false"
     inkscape:zoom="0.71152507"
     inkscape:cx="94.163934"
     inkscape:cy="-73.082457"
     inkscape:window-width="1916"
     inkscape:window-height="911"
     inkscape:window-x="0"
     inkscape:window-y="167"
     inkscape:window-maximized="1"
     inkscape:current-layer="layer1" />
  <defs
     id="defs5253">
    <inkscape:path-effect
       effect="copy_rotate"
       starting_point="-149.06602,300.00138"
       origin="-150.07624,300.00138"
       id="path-effect249791"
       is_visible="true"
       lpeversion="1.2"
       lpesatellites=""
       method="normal"
       num_copies="12"
       starting_angle="0"
       rotation_angle="30"
       gap="-0.03"
       copies_to_360="true"
       mirror_copies="false"
       split_items="false"
       link_styles="false" />
  </defs>
  <g
     inkscape:label="Layer 1"
     inkscape:groupmode="layer"
     id="layer1"
     transform="translate(-92.207089,-94.191198)">
    <g
       id="g5423">
      <path
         style="fill:#000000;fill-opacity:0.326121;stroke:none;stroke-width:3.74762;stroke-linecap:round;stroke-linejoin:round;stroke-dasharray:none;stroke-dashoffset:0;stroke-opacity:1"
         id="path252422"
         sodipodi:type="arc"
         sodipodi:cx="105.02322"
         sodipodi:cy="112.58882"
         sodipodi:rx="10.948279"
         sodipodi:ry="10.948279"
         sodipodi:start="1.5707963"
         sodipodi:end="3.9444441"
         sodipodi:arc-type="slice"
         d="m 105.02322,123.5371 a 10.948279,10.948279 0 0 1 -10.151072,-6.84698 10.948279,10.948279 0 0 1 2.545754,-11.97683 l 7.605318,7.87553 z" />
      <path
         style="fill:none;fill-opacity:1;stroke:#000000;stroke-width:3.74762;stroke-linecap:round;stroke-linejoin:round;stroke-dasharray:none;stroke-dashoffset:0;stroke-opacity:1"
         id="path249043"
         sodipodi:type="arc"
         sodipodi:cx="105.02322"
         sodipodi:cy="112.58882"
         sodipodi:rx="10.948279"
         sodipodi:ry="10.948279"
         sodipodi:start="5.7944931"
         sodipodi:end="5.1661746"
         sodipodi:arc-type="arc"
         d="m 114.68997,107.44892 a 10.948279,10.948279 0 0 1 -3.07791,13.88359 10.948279,10.948279 0 0 1 -14.194158,-0.86816 10.948279,10.948279 0 0 1 -1.362991,-14.1552 10.948279,10.948279 0 0 1 13.767719,-3.56058"
         sodipodi:open="true" />
      <path
         id="rect249783"
         style="fill:none;stroke:#000000;stroke-width:3.74762;stroke-linecap:round;stroke-linejoin:round"
         d="m 104.24547,96.065008 c -1.06211,0 -1.91778,0.854884 -1.91778,1.916989 v 3.997413 a 10.948279,10.948279 0 0 1 5.39273,7.9e-4 v -3.998203 c 0,-1.062105 -0.85489,-1.916989 -1.91699,-1.916989 z" />
      <path
         style="fill:none;stroke:#000000;stroke-width:0.465;stroke-linecap:round;stroke-linejoin:miter;stroke-dasharray:none;stroke-opacity:1"
         d="m -150.07624,304.63743 v 1.64163 m 2.31803,-2.26274 0.82081,1.42169 m 0.8761,-3.11861 1.42169,0.82082 m -0.80058,-3.13884 h 1.64163 m -2.26274,-2.31803 1.42169,-0.82081 m -3.1186,-0.8761 0.82081,-1.42169 m -3.13884,0.80058 v -1.64163 m -2.31803,2.26274 -0.82081,-1.42169 m -0.8761,3.1186 -1.42169,-0.82081 m 0.80058,3.13884 h -1.64163 m 2.26274,2.31802 -1.42169,0.82082 m 3.11861,0.8761 -0.82082,1.42169"
         id="path249789"
         inkscape:original-d="m -150.07624,304.63743 v 1.64163"
         inkscape:path-effect="#path-effect249791"
         class="UnoptimicedTransforms"
         sodipodi:nodetypes="cc"
         transform="matrix(1.5203341,0,0,1.5203341,333.19074,-343.5143)" />
      <path
         style="fill:#000000;fill-opacity:1;stroke:#000000;stroke-width:0.402889;stroke-linecap:round;stroke-linejoin:round;stroke-dasharray:none;stroke-opacity:1"
         d="m 105.0247,112.58801 c 0,0 -0.79638,-0.19921 -1.63588,-0.92033 -0.8395,-0.72113 -2.93494,-3.75158 -2.93494,-3.75158 v 0 c 0,0 2.89235,2.20053 3.61348,3.04003 0.72111,0.83952 0.95734,1.63191 0.95734,1.63191 z"
         id="path252349"
         sodipodi:nodetypes="czcczcc" />
    </g>
  </g>
</svg>
