<?xml version="1.0" encoding="UTF-8" standalone="no"?>
<!-- Created with Inkscape (http://www.inkscape.org/) -->

<svg
   width="71.61705mm"
   height="174.25601mm"
   viewBox="0 0 71.61705 174.25601"
   version="1.1"
   id="svg40316"
   xml:space="preserve"
   inkscape:version="1.2.2 (b0a8486541, 2022-12-01)"
   sodipodi:docname="all_extension.svg"
   inkscape:export-filename="all_extension.png"
   inkscape:export-xdpi="300"
   inkscape:export-ydpi="300"
   xmlns:inkscape="http://www.inkscape.org/namespaces/inkscape"
   xmlns:sodipodi="http://sodipodi.sourceforge.net/DTD/sodipodi-0.dtd"
   xmlns="http://www.w3.org/2000/svg"
   xmlns:svg="http://www.w3.org/2000/svg"><sodipodi:namedview
     id="namedview40318"
     pagecolor="#ffffff"
     bordercolor="#666666"
     borderopacity="1.0"
     inkscape:showpageshadow="2"
     inkscape:pageopacity="0.0"
     inkscape:pagecheckerboard="0"
     inkscape:deskcolor="#d1d1d1"
     inkscape:document-units="mm"
     showgrid="false"
     inkscape:zoom="2.1047166"
     inkscape:cx="343.9893"
     inkscape:cy="93.599298"
     inkscape:window-width="1916"
     inkscape:window-height="947"
     inkscape:window-x="1920"
     inkscape:window-y="131"
     inkscape:window-maximized="1"
     inkscape:current-layer="layer1" /><defs
     id="defs40313" /><g
     inkscape:label="Layer 1"
     inkscape:groupmode="layer"
     id="layer1"
     transform="translate(-74.747636,-89.273376)"><g
       id="g43867"><path
         style="fill:#cccccc;fill-opacity:1;stroke:#000000;stroke-width:0.264583px;stroke-linecap:butt;stroke-linejoin:miter;stroke-opacity:1"
         d="m 139.4051,142.92692 c 0.45024,2.42786 0.38553,10.55416 -0.54426,16.63357 -0.92979,6.07941 -3.09087,17.94806 -3.82671,22.77279 -0.73584,4.82471 -3.16416,8.3488 -4.14833,11.06194 -0.98417,2.71314 -2.11121,9.20801 -2.71323,12.97091 -0.60202,3.76292 -2.77164,20.27531 -2.77164,20.27531 l -2e-5,-2e-5 c -0.6332,3.45195 -0.4302,2.628 0.41892,7.60376 0.84911,4.97576 -1.52303,7.97298 -3.46812,14.60965 -1.94509,6.63668 -5.97166,10.86755 -12.57035,13.16234 -6.5987,2.29478 -14.096199,1.28563 -19.753586,0.12808 -5.65739,-1.15758 -10.946429,-8.11912 -14.031129,-14.47498 -3.084698,-6.35587 1.108538,-22.54067 2.197473,-25.40736 1.088932,-2.8667 3.149708,-13.17549 2.777699,-16.07126 -0.372007,-2.89577 -0.368845,-14.5875 0.87417,-20.01158 1.243015,-5.42408 1.929466,-13.63185 2.289683,-22.04581 0.360217,-8.41395 -0.549734,-11.15976 -0.642014,-15.55973 -0.09228,-4.39997 -1.497574,-6.26149 -1.906757,-7.59184 -0.409184,-1.33034 -1.216167,-6.50917 -1.190157,-8.6762 0.02602,-2.16703 1.557488,-7.9743 3.250668,-10.84093 1.693177,-2.86663 2.661563,-8.7254 3.321061,-10.21465 0.659481,-1.48924 0.09114,-6.13942 0.0218,-7.8969 -0.06933,-1.75747 1.828388,-5.803905 2.389889,-6.870215 0.561501,-1.06632 4.418959,-4.813258 4.748423,-5.460818 0.329467,-0.64756 2.567619,-1.28165 4.582651,-1.52191 2.015036,-0.24025 2.905516,-0.08662 5.737416,1.068198 2.83189,1.15482 3.50742,3.54837 3.86363,4.61619 0.35624,1.06783 -0.011,4.24815 -0.011,4.24815 0,0 -0.88834,4.998445 -1.27955,5.653915 -0.3912,0.65546 -1.59472,2.87044 -2.42391,4.60874 -0.8292,1.73829 -1.95252,3.88539 -1.95252,5.13942 0,1.25403 0.87044,1.93128 2.3547,2.14441 1.48426,0.21314 2.6349,0.39062 3.40739,-0.80685 0.77249,-1.19747 1.71952,-4.97818 2.81944,-6.75717 1.09991,-1.77898 2.34836,-4.41809 3.13971,-5.34823 0.79134,-0.93015 3.99366,-6.192335 6.04743,-6.466789 2.05378,-0.274455 5.63448,0.497976 6.59742,1.408076 0.96295,0.9101 2.17942,3.675563 2.5234,4.320813 0.34397,0.64526 2.44322,0.45485 3.36742,1.87378 0.9242,1.41893 1.71474,3.50568 1.71474,4.00075 0,0.49507 -0.58503,1.12651 0.0147,1.68639 0.59974,0.55988 3.68227,2.28057 3.67544,4.105 -0.007,1.82443 -0.15947,4.59881 -0.89175,6.39394 -0.73229,1.79513 -3.69907,5.67236 -4.52128,7.31402 -0.82222,1.64166 -2.3785,4.6409 -2.31311,5.37876 0.0654,0.73787 0.27822,2.48411 1.01469,1.76438 0.73647,-0.71973 2.93759,-6.71711 3.97013,-8.1986 1.03254,-1.4815 4.23747,-5.37437 6.04878,-5.77317 1.81131,-0.3988 3.42424,0.3647 3.67974,1.03486 0.25549,0.67015 0.853,5.22881 -0.11582,6.9567 -0.64778,1.15532 -1.86074,3.95627 -2.58637,4.73376 -0.72564,0.7775 -1.81146,2.87449 -2.76308,5.0695 -0.95162,2.195 -0.46589,2.55096 -0.42394,3.25691 z"
         id="path15189"
         sodipodi:nodetypes="cssssssssssssssssssssscsssscssssssssssssscsssssssssssc" /><path
         style="fill:none;stroke:#000000;stroke-width:0.264583px;stroke-linecap:butt;stroke-linejoin:miter;stroke-opacity:1"
         d="m 106.21624,122.78163 c 0.77011,-2.01106 2.19115,-6.60839 2.19115,-6.60839"
         id="path43140" /><path
         style="fill:none;stroke:#000000;stroke-width:0.264583px;stroke-linecap:butt;stroke-linejoin:miter;stroke-opacity:1"
         d="m 102.6453,114.83568 c 0,0 -1.23592,4.32226 -1.23592,5.03315 0,0.7109 -0.60744,2.44664 -0.45584,2.96011"
         id="path43142" /><path
         style="fill:none;stroke:#000000;stroke-width:0.264583px;stroke-linecap:butt;stroke-linejoin:miter;stroke-opacity:1"
         d="m 116.17304,124.51691 c 0.69215,-3.09141 1.14533,-4.61803 2.68389,-7.16782 1.53857,-2.54978 3.61213,-5.22279 4.59955,-6.11794 0.98742,-0.89514 5.73556,-4.02007 5.7862,-5.07214 0.0506,-1.05207 0.29211,-2.82907 0.29211,-2.82907"
         id="path43144" /><path
         style="fill:none;stroke:#000000;stroke-width:0.264583px;stroke-linecap:butt;stroke-linejoin:miter;stroke-opacity:1"
         d="m 121.94254,112.92587 c -0.49128,1.53453 -1.88352,4.35688 -2.29201,4.98166 -0.40848,0.62479 -1.2395,3.43517 -1.40757,3.93814 -0.16807,0.50298 -0.82042,1.44108 -0.83587,1.76839"
         id="path43146" /><path
         style="fill:none;stroke:#000000;stroke-width:0.264583px;stroke-linecap:butt;stroke-linejoin:miter;stroke-opacity:1"
         d="m 134.36203,110.34201 c -1.31575,2.71422 -3.32343,6.68226 -4.24677,7.9109 -0.92333,1.22864 -1.97551,3.91433 -3.20653,5.36739 -1.23103,1.45305 -2.96558,3.93633 -3.5097,5.34625 -0.54412,1.40993 -0.54412,1.98082 -0.54412,1.98082"
         id="path43148"
         sodipodi:nodetypes="csssc" /><path
         style="fill:none;stroke:#000000;stroke-width:0.264583px;stroke-linecap:butt;stroke-linejoin:miter;stroke-opacity:1"
         d="m 130.58095,134.08258 c -0.91508,1.34655 -0.91508,2.57341 -0.91508,3.17297"
         id="path43150" /><path
         style="fill:none;stroke:#000000;stroke-width:0.264583px;stroke-linecap:butt;stroke-linejoin:miter;stroke-opacity:1"
         d="m 130.69036,137.85945 c 0.95603,-1.00402 0.43794,-1.27873 0.90528,-2.01249"
         id="path43152" /><path
         style="fill:#b3b3b3;fill-opacity:1;stroke:#000000;stroke-width:0.264583px;stroke-linecap:butt;stroke-linejoin:miter;stroke-opacity:1"
         d="m 94.916862,95.51014 c -0.538824,1.179361 -1.097963,4.263752 -0.888579,4.78376 0.20938,0.52001 1.335918,2.67887 2.292233,3.24432 0.956318,0.56545 4.355604,0.76748 5.117064,0.39708 0.76146,-0.3704 3.26604,-2.33107 3.82867,-3.58407 0.56263,-1.252994 1.38116,-2.216635 0.77716,-2.277167 -0.604,-0.06053 -1.77379,0.854427 -3.31469,0.414629 -1.5409,-0.439801 -3.810202,-0.394547 -4.449012,-1.002797 -0.638813,-0.608251 -2.559976,-1.854825 -2.760461,-2.061171 -0.200488,-0.206346 -0.565537,-0.200199 -0.602385,0.08542 z"
         id="path43154" /><path
         style="fill:#b3b3b3;fill-opacity:1;stroke:#000000;stroke-width:0.264583px;stroke-linecap:butt;stroke-linejoin:miter;stroke-opacity:1"
         d="m 124.61793,101.13393 c -0.89562,-0.63363 -2.1527,-1.431891 -2.5494,-1.431891 -0.39669,0 -2.39679,1.942721 -2.39679,2.421831 0,0.47911 -0.53043,2.47249 0.21621,3.1148 0.74664,0.64231 2.30062,1.76796 2.83467,1.83981 0.53404,0.0719 1.73388,0.75947 2.81115,-0.1487 1.07726,-0.90817 1.77308,-1.16846 1.78852,-1.70615 0.0155,-0.53769 -1.29271,-2.61913 -1.54354,-2.95157 -0.25084,-0.33243 -1.16082,-1.13813 -1.16082,-1.13813 z"
         id="path43156" /><path
         style="fill:#b3b3b3;fill-opacity:1;stroke:#000000;stroke-width:0.264583px;stroke-linecap:butt;stroke-linejoin:miter;stroke-opacity:1"
         d="m 132.59788,108.97173 c -0.42099,-1.44542 -1.05246,-2.47289 -1.66049,-2.72786 -0.60802,-0.25497 -1.69471,-0.0849 -1.69471,-0.0849 0,0 -0.19338,0.51392 -0.41711,0.72461 -0.22373,0.21069 -1.72648,1.56309 -2.11069,1.8594 -0.3842,0.29631 -0.45416,1.45756 -0.30116,1.7541 0.153,0.29655 1.04643,1.55441 2.18812,1.41941 1.14169,-0.135 1.76872,0.002 2.23826,-0.59231 0.46954,-0.59448 1.73829,-1.97519 1.75778,-2.35249 z"
         id="path43158" /><path
         style="fill:#b3b3b3;fill-opacity:1;stroke:#000000;stroke-width:0.264583px;stroke-linecap:butt;stroke-linejoin:miter;stroke-opacity:1"
         d="m 133.4877,112.05894 c 0.57624,0.29004 1.87153,1.16137 2.05443,1.60101 0.1829,0.43963 0.28306,0.62102 0.1698,0.94922 -0.11327,0.32821 -0.84871,2.19456 -1.12943,2.45621 -0.28073,0.26165 -1.03473,1.30699 -1.49745,1.18753 -0.46272,-0.11945 -1.62343,-0.27374 -1.82933,-0.49698 -0.20591,-0.22324 -0.42752,-0.60968 -0.42752,-0.60968 z"
         id="path43160" /><path
         style="fill:#b3b3b3;fill-opacity:1;stroke:#000000;stroke-width:0.264583px;stroke-linecap:butt;stroke-linejoin:miter;stroke-opacity:1"
         d="m 145.64228,124.30738 c -0.81054,-0.26294 -1.28909,-0.34486 -1.98738,-0.16061 -0.69829,0.18424 -1.32007,0.41551 -1.72915,0.76963 -0.40908,0.35411 -0.94273,1.37304 -0.76282,1.8192 0.17991,0.44616 1.14232,1.1936 1.69766,1.25898 0.55535,0.0654 1.15387,-0.10391 1.72892,-0.89489 0.57505,-0.79098 1.31568,-1.40751 1.28388,-1.58703 -0.0318,-0.17953 -0.23111,-1.20528 -0.23111,-1.20528 z"
         id="path43162" /></g></g></svg>
