<?xml version="1.0" encoding="UTF-8" standalone="no"?>
<!-- Created with Inkscape (http://www.inkscape.org/) -->

<svg
   width="65.229294mm"
   height="174.25601mm"
   viewBox="0 0 65.229294 174.25601"
   version="1.1"
   id="svg46102"
   inkscape:version="1.2.2 (b0a8486541, 2022-12-01)"
   sodipodi:docname="hallux_extension.svg"
   inkscape:export-filename="hallux_extension.png"
   inkscape:export-xdpi="300"
   inkscape:export-ydpi="300"
   xmlns:inkscape="http://www.inkscape.org/namespaces/inkscape"
   xmlns:sodipodi="http://sodipodi.sourceforge.net/DTD/sodipodi-0.dtd"
   xmlns="http://www.w3.org/2000/svg"
   xmlns:svg="http://www.w3.org/2000/svg">
  <sodipodi:namedview
     id="namedview46104"
     pagecolor="#ffffff"
     bordercolor="#666666"
     borderopacity="1.0"
     inkscape:showpageshadow="2"
     inkscape:pageopacity="0.0"
     inkscape:pagecheckerboard="0"
     inkscape:deskcolor="#d1d1d1"
     inkscape:document-units="mm"
     showgrid="false"
     inkscape:zoom="0.49715793"
     inkscape:cx="235.33769"
     inkscape:cy="195.10903"
     inkscape:window-width="1916"
     inkscape:window-height="929"
     inkscape:window-x="1920"
     inkscape:window-y="149"
     inkscape:window-maximized="1"
     inkscape:current-layer="layer1" />
  <defs
     id="defs46099" />
  <g
     inkscape:label="Layer 1"
     inkscape:groupmode="layer"
     id="layer1"
     transform="translate(-72.385356,-27.771896)">
    <g
       id="g47694">
      <path
         style="fill:#cccccc;fill-opacity:1;stroke:#000000;stroke-width:0.264583px;stroke-linecap:butt;stroke-linejoin:miter;stroke-opacity:1"
         d="m 105.939,37.932131 c 0,0 -0.48977,2.885795 -0.79741,3.999819 -0.28039,1.015356 -1.39129,5.281211 -1.36323,6.246251 0.0281,0.96505 -0.24264,5.575102 -0.5564,7.012642 v 0 c -1.48426,-0.21313 -2.93895,-0.602612 -2.93895,-1.856642 0,-1.254031 1.12333,-3.401131 1.95253,-5.139421 0.82919,-1.7383 2.03271,-3.95328 2.42391,-4.60874 0.39121,-0.65547 1.27955,-5.653909 1.27955,-5.653909 0,0 0.36724,-3.180326 0.011,-4.248156 -0.35622,-1.06782 -1.03174,-3.46137 -3.86363,-4.61619 -2.8319,-1.154818 -3.72238,-1.308448 -5.73742,-1.068198 -2.01503,0.24026 -4.25318,0.87435 -4.58265,1.52191 -0.32946,0.64756 -4.18692,4.394498 -4.74842,5.460818 -0.5615,1.06631 -2.45919,5.112745 -2.38989,6.870215 0.0693,1.75748 0.63768,6.40766 -0.0218,7.8969 -0.6595,1.48925 -1.62788,7.348021 -3.32106,10.214651 v 0 c -1.69318,2.86663 -3.224649,8.6739 -3.250668,10.84093 -0.02601,2.16703 0.780973,7.34586 1.190157,8.6762 0.409183,1.33035 1.814475,3.19187 1.906757,7.59184 0.09228,4.39997 1.002231,7.14578 0.642014,15.559729 -0.360217,8.41396 -1.046668,16.62173 -2.289683,22.04581 -1.243015,5.42408 -1.246177,17.11581 -0.87417,20.01158 0.372009,2.89577 -1.688767,13.20456 -2.777699,16.07126 -1.088935,2.86669 -5.282171,19.05149 -2.197473,25.40736 3.0847,6.35587 8.373739,13.3174 14.031129,14.47498 5.657387,1.15755 13.154886,2.1667 19.753586,-0.12808 6.59869,-2.29479 10.62526,-6.52566 12.57035,-13.16234 1.94509,-6.63667 4.31723,-9.63389 3.46812,-14.60965 -0.84912,-4.97576 -1.05212,-4.15181 -0.41892,-7.60376 l 2e-5,3e-5 c 0,0 2.16962,-16.5124 2.77164,-20.27531 0.60202,-3.7629 1.72906,-10.25778 2.71323,-12.97091 0.98417,-2.71314 3.41249,-6.23723 4.14833,-11.06195 0.73584,-4.82473 2.89692,-16.69338 3.82671,-22.772779 0.92979,-6.07941 0.9945,-14.20571 0.54426,-16.63357 -0.45025,-2.42787 -0.49525,-5.82367 0.1389,-8.43544 0.63415,-2.61176 0.14648,-6.59815 -0.38048,-7.51225 -0.52697,-0.91409 -1.2187,-2.32483 -1.51159,-3.03121 -0.29289,-0.70638 0.002,-2.02722 -1.04171,-2.68442 -1.04336,-0.6572 -1.52355,-0.63297 -2.2079,-0.5503 -0.2737,0.0331 -0.65714,0.14906 -1.29765,0.36638 0.2222,-1.66706 -0.0228,-4.68426 -1.04325,-6.50283 -0.63986,-1.14031 -1.61107,-2.14099 -2.36822,-2.73377 -0.55186,-0.43207 -1.75518,-0.80147 -3.87729,-0.5074 -0.0781,-1.00374 1.15889,-4.34702 -0.33262,-6.09271 -1.49151,-1.74569 -1.98473,-2.5127 -3.17881,-2.54091 -1.19407,-0.0282 -3.25276,0.5546 -3.25276,0.5546 0,0 1.56808,-2.15579 1.67217,-2.92422 0.10409,-0.76843 0.80613,-2.93181 -1.07378,-4.31951 -1.87991,-1.3877 -3.93434,-2.92236 -6.36457,-2.51094 -2.43023,0.41143 -2.91689,1.01436 -3.53358,2.23381 -0.61669,1.21946 -1.45068,3.6978 -1.45068,3.6978 z"
         id="path15201"
         sodipodi:nodetypes="cscccssscsssssssccssssssssssssscsssssssscscsscsscssssc" />
      <path
         style="fill:#b3b3b3;stroke:#000000;stroke-width:0.264583px;stroke-linecap:butt;stroke-linejoin:miter;stroke-opacity:1"
         d="m 111.37191,36.757661 c 0.98875,0.45614 2.23657,1.11286 2.76217,1.10053 0.5256,-0.0123 1.73116,-0.47565 1.968,-0.77154 0.23684,-0.29588 1.24218,-0.92193 1.21397,-1.74856 -0.0282,-0.82663 -0.0643,-0.86578 -0.63108,-1.2696 -0.56674,-0.40383 -2.73447,-1.85147 -3.76387,-1.99234 -1.02939,-0.14086 -1.21061,-0.23107 -1.99784,-0.0756 -0.78724,0.15543 -1.392,2.34511 -1.42412,2.87195 -0.0321,0.52684 0.65464,0.99465 1.041,1.36986 0.38636,0.3752 0.83177,0.51533 0.83177,0.51533 z"
         id="path15193" />
      <path
         style="fill:#b3b3b3;stroke:#000000;stroke-width:0.264583px;stroke-linecap:butt;stroke-linejoin:miter;stroke-opacity:1"
         d="m 116.57327,44.378241 c 0.27151,1.09474 0.79352,1.29711 1.56679,1.4144 0.77327,0.11729 2.15666,0.5465 2.52486,0.35178 0.3682,-0.19471 1.07096,-1.98745 1.38859,-2.63827 0.31764,-0.65083 -0.0767,-1.18769 -0.48739,-1.54179 -0.41067,-0.35409 -1.62392,-0.76377 -1.62392,-0.76377 0,0 -1.39315,0.0886 -2.32296,0.32162 -0.9298,0.23298 -1.04597,2.85603 -1.04597,2.85603 z"
         id="path15195" />
      <path
         style="fill:#b3b3b3;stroke:#000000;stroke-width:0.264583px;stroke-linecap:butt;stroke-linejoin:miter;stroke-opacity:1"
         d="m 123.14982,52.065991 c 0.008,0.68628 -0.0968,1.33477 0.73878,1.64219 0.83557,0.30741 1.93134,0.66264 2.27369,0.66835 0.34236,0.006 1.62501,0.22774 1.6396,-0.57001 0.0146,-0.79776 0.096,-3.15127 -0.47097,-3.46491 -0.56702,-0.31365 -2.24067,-1.01037 -3.59529,-0.54325 -0.5249,0.18101 -0.594,1.58135 -0.58581,2.26763 z"
         id="path15197"
         sodipodi:nodetypes="zscsssz" />
      <path
         style="fill:#b3b3b3;stroke:#000000;stroke-width:0.264583px;stroke-linecap:butt;stroke-linejoin:miter;stroke-opacity:1"
         d="m 134.24794,59.762131 c -0.76942,0.23519 -1.42787,1.26343 -1.42787,1.26343 0,0 -0.47134,1.69833 0.28269,2.27219 0.75403,0.57386 1.07624,1.08344 1.87908,0.65836 0.80285,-0.42508 0.44018,-0.93932 0.30781,-1.50956 -0.13237,-0.57025 -0.1725,-2.2367 -1.04171,-2.68442"
         id="path15199" />
      <path
         style="fill:none;stroke:#000000;stroke-width:0.264583px;stroke-linecap:butt;stroke-linejoin:miter;stroke-opacity:1"
         d="m 116.68944,41.755191 c 0,0 -1.49716,1.48679 -1.7215,2.69963 -0.22434,1.21285 -1.00853,4.33613 -1.28457,5.53731 -0.27605,1.20119 -0.96168,7.14418 -0.73725,8.21071"
         id="path15205" />
      <path
         style="fill:none;stroke:#000000;stroke-width:0.264583px;stroke-linecap:butt;stroke-linejoin:miter;stroke-opacity:1"
         d="m 123.45363,49.834211 c 0,0 -0.79223,1.53572 -0.73543,2.49066 0.0568,0.95494 -0.29576,4.59634 -0.88231,6.5037 -0.58656,1.90736 -1.2683,4.86972 -1.38072,5.91082"
         id="path15207"
         sodipodi:nodetypes="cssc" />
      <path
         style="fill:none;stroke:#000000;stroke-width:0.264583px;stroke-linecap:butt;stroke-linejoin:miter;stroke-opacity:1"
         d="m 130.74239,59.578211 c 0,0 -0.16554,1.75538 -0.66199,3.7846 -0.49644,2.02922 -2.40252,7.15532 -2.39738,9.14845"
         id="path15209" />
      <path
         style="fill:none;stroke:#000000;stroke-width:0.264583px;stroke-linecap:butt;stroke-linejoin:miter;stroke-opacity:1"
         d="m 100.28301,53.334212 c 0,0 -1.23592,4.32226 -1.23592,5.03315 0,0.7109 -0.60744,2.44664 -0.45584,2.96011"
         id="path46566" />
      <path
         style="fill:#b3b3b3;fill-opacity:1;stroke:#000000;stroke-width:0.264583px;stroke-linecap:butt;stroke-linejoin:miter;stroke-opacity:1"
         d="m 92.389274,34.008672 c -0.53882,1.179361 -1.09796,4.263752 -0.88858,4.78376 0.20938,0.52001 1.33592,2.67887 2.29224,3.24432 0.95631,0.56545 4.355605,0.76748 5.117065,0.39708 0.76146,-0.3704 3.266051,-2.33107 3.828681,-3.58407 0.56263,-1.252994 1.38116,-2.216635 0.77716,-2.277167 -0.604,-0.06053 -1.77379,0.854427 -3.3147,0.414629 -1.540901,-0.439801 -3.810206,-0.394547 -4.449016,-1.002797 -0.63882,-0.608251 -2.55998,-1.854825 -2.76046,-2.061171 -0.20049,-0.206346 -0.56554,-0.200199 -0.60239,0.08542 z"
         id="path46568" />
      <path
         style="fill:none;stroke:#000000;stroke-width:0.264583px;stroke-linecap:butt;stroke-linejoin:miter;stroke-opacity:1"
         d="m 103.22196,55.190842 c 0,0 -0.18103,2.857767 -0.5022,3.616359"
         id="path47681" />
    </g>
  </g>
</svg>
