<?xml version="1.0" encoding="UTF-8" standalone="no"?>
<!-- Created with Inkscape (http://www.inkscape.org/) -->

<svg
   width="65.229286mm"
   height="170.24103mm"
   viewBox="0 0 65.229286 170.24103"
   version="1.1"
   id="svg15246"
   xml:space="preserve"
   inkscape:version="1.2.2 (b0a8486541, 2022-12-01)"
   sodipodi:docname="hallux_flex.svg"
   inkscape:export-filename="hallux_flex.png"
   inkscape:export-xdpi="300"
   inkscape:export-ydpi="300"
   xmlns:inkscape="http://www.inkscape.org/namespaces/inkscape"
   xmlns:sodipodi="http://sodipodi.sourceforge.net/DTD/sodipodi-0.dtd"
   xmlns="http://www.w3.org/2000/svg"
   xmlns:svg="http://www.w3.org/2000/svg"><sodipodi:namedview
     id="namedview15248"
     pagecolor="#ffffff"
     bordercolor="#666666"
     borderopacity="1.0"
     inkscape:showpageshadow="2"
     inkscape:pageopacity="0.0"
     inkscape:pagecheckerboard="0"
     inkscape:deskcolor="#d1d1d1"
     inkscape:document-units="mm"
     showgrid="false"
     inkscape:zoom="0.50576586"
     inkscape:cx="-324.26072"
     inkscape:cy="144.33556"
     inkscape:window-width="1916"
     inkscape:window-height="947"
     inkscape:window-x="1920"
     inkscape:window-y="131"
     inkscape:window-maximized="1"
     inkscape:current-layer="layer1" /><defs
     id="defs15243" /><g
     inkscape:label="Layer 1"
     inkscape:groupmode="layer"
     id="layer1"
     transform="translate(-81.562423,-112.67211)"><g
       id="g39522"><path
         style="fill:#cccccc;fill-opacity:1;stroke:#000000;stroke-width:0.264583px;stroke-linecap:butt;stroke-linejoin:miter;stroke-opacity:1"
         d="m 132.21571,246.0252 c 0,0 2.16962,-16.5124 2.77164,-20.27531 0.60202,-3.7629 1.72906,-10.25778 2.71323,-12.97091 0.98417,-2.71314 3.41249,-6.23723 4.14833,-11.06195 0.73584,-4.82473 2.89692,-16.69338 3.82671,-22.77278 0.92979,-6.07941 0.9945,-14.20571 0.54426,-16.63357 -0.45025,-2.42787 -0.49525,-5.82367 0.1389,-8.43544 0.63415,-2.61176 0.14648,-6.59815 -0.38048,-7.51225 -0.52697,-0.91409 -1.2187,-2.32483 -1.51159,-3.03121 -0.29289,-0.70638 0.002,-2.02722 -1.04171,-2.68442 -1.04336,-0.6572 -1.52355,-0.63297 -2.2079,-0.5503 -0.2737,0.0331 -0.65714,0.14906 -1.29765,0.36638 0.2222,-1.66706 -0.0228,-4.68426 -1.04325,-6.50283 -0.63986,-1.14031 -1.61107,-2.14099 -2.36822,-2.73377 -0.55186,-0.43207 -1.75518,-0.80147 -3.87729,-0.5074 -0.0781,-1.00374 1.15889,-4.34702 -0.33262,-6.09271 -1.49151,-1.74569 -1.98473,-2.5127 -3.17881,-2.54091 -1.19407,-0.0282 -3.25276,0.5546 -3.25276,0.5546 0,0 1.56808,-2.15579 1.67217,-2.92422 0.10409,-0.76843 0.80613,-2.93181 -1.07378,-4.31951 -1.87991,-1.3877 -3.93434,-2.92236 -6.36457,-2.51094 -2.43023,0.41143 -2.91689,1.01436 -3.53358,2.23381 -0.61669,1.21946 -2.82155,9.69058 -2.82155,9.69058 0,0 -0.71362,-1.53845 -2.53469,-3.20196 -0.97793,-0.89332 -2.18815,-1.82916 -3.92156,-2.09228 -2.28894,-0.34745 -2.59539,0.51451 -4.61051,0.75413 -1.13721,0.13523 -1.99993,-0.47942 -2.704415,-0.3017 -3.029376,0.7642 -3.427079,0.80255 -4.511491,2.57822 -0.628102,1.02849 -3.075614,2.90937 -3.00628,4.66684 0.06934,1.75748 -0.357786,5.97623 -1.017267,7.46547 -0.659498,1.48925 -1.304142,5.27808 -2.997319,8.14471 -1.69318,2.86663 -1.20411,6.69964 -1.230129,8.86667 -0.02601,2.16703 0.780973,7.34586 1.190157,8.6762 0.409183,1.33035 1.814475,3.19187 1.906757,7.59184 0.09228,4.39997 1.002231,7.14578 0.642014,15.55973 -0.360217,8.41396 -1.046668,16.62173 -2.289683,22.04581 -1.243015,5.42408 -1.246177,17.11581 -0.87417,20.01158 0.372009,2.89577 -1.688767,13.20456 -2.777699,16.07126 -1.088935,2.86669 -5.282171,19.05149 -2.197473,25.40736 3.0847,6.35587 8.373739,13.3174 14.031129,14.47498 5.657389,1.15755 13.154879,2.1667 19.753579,-0.12808 6.59869,-2.29479 10.62526,-6.52566 12.57035,-13.16234 1.94509,-6.63667 4.31723,-9.63389 3.46812,-14.60965 -0.84912,-4.97576 -1.05212,-4.15181 -0.41892,-7.60376 z"
         id="path15189"
         sodipodi:nodetypes="csssssssscscsscsscsssscsssssssssssssssssssssc" /><path
         style="fill:#b3b3b3;stroke:#000000;stroke-width:0.264583px;stroke-linecap:butt;stroke-linejoin:miter;stroke-opacity:1"
         d="m 120.54897,117.64289 c 0.98875,0.45614 2.23657,1.11286 2.76217,1.10053 0.5256,-0.0123 1.73116,-0.47565 1.968,-0.77154 0.23684,-0.29588 1.24218,-0.92193 1.21397,-1.74856 -0.0282,-0.82663 -0.0643,-0.86578 -0.63108,-1.2696 -0.56674,-0.40383 -2.73447,-1.85147 -3.76387,-1.99234 -1.02939,-0.14086 -1.21061,-0.23107 -1.99784,-0.0756 -0.78724,0.15543 -1.392,2.34511 -1.42412,2.87195 -0.0321,0.52684 0.65464,0.99465 1.041,1.36986 0.38636,0.3752 0.83177,0.51533 0.83177,0.51533 z"
         id="path15193" /><path
         style="fill:#b3b3b3;stroke:#000000;stroke-width:0.264583px;stroke-linecap:butt;stroke-linejoin:miter;stroke-opacity:1"
         d="m 125.75033,125.26347 c 0.27151,1.09474 0.79352,1.29711 1.56679,1.4144 0.77327,0.11729 2.15666,0.5465 2.52486,0.35178 0.3682,-0.19471 1.07096,-1.98745 1.38859,-2.63827 0.31764,-0.65083 -0.0767,-1.18769 -0.48739,-1.54179 -0.41067,-0.35409 -1.62392,-0.76377 -1.62392,-0.76377 0,0 -1.39315,0.0886 -2.32296,0.32162 -0.9298,0.23298 -1.04597,2.85603 -1.04597,2.85603 z"
         id="path15195" /><path
         style="fill:#b3b3b3;stroke:#000000;stroke-width:0.264583px;stroke-linecap:butt;stroke-linejoin:miter;stroke-opacity:1"
         d="m 132.32688,132.95122 c 0.008,0.68628 -0.0968,1.33477 0.73878,1.64219 0.83557,0.30741 1.93134,0.66264 2.27369,0.66835 0.34236,0.006 1.62501,0.22774 1.6396,-0.57001 0.0146,-0.79776 0.096,-3.15127 -0.47097,-3.46491 -0.56702,-0.31365 -2.24067,-1.01037 -3.59529,-0.54325 -0.5249,0.18101 -0.594,1.58135 -0.58581,2.26763 z"
         id="path15197"
         sodipodi:nodetypes="zscsssz" /><path
         style="fill:#b3b3b3;stroke:#000000;stroke-width:0.264583px;stroke-linecap:butt;stroke-linejoin:miter;stroke-opacity:1"
         d="m 143.425,140.64736 c -0.76942,0.23519 -1.42787,1.26343 -1.42787,1.26343 0,0 -0.47134,1.69833 0.28269,2.27219 0.75403,0.57386 1.07624,1.08344 1.87908,0.65836 0.80285,-0.42508 0.44018,-0.93932 0.30781,-1.50956 -0.13237,-0.57025 -0.1725,-2.2367 -1.04171,-2.68442"
         id="path15199" /><path
         style="fill:none;stroke:#000000;stroke-width:0.264583px;stroke-linecap:butt;stroke-linejoin:miter;stroke-opacity:1"
         d="m 113.74519,124.81014 c -0.7482,2.99093 -0.74276,1.29487 -0.78977,4.25329 0.0281,0.96505 -0.53306,7.66092 -0.84682,9.09846"
         id="path15201"
         sodipodi:nodetypes="ccc" /><path
         style="fill:none;stroke:#000000;stroke-width:0.264583px;stroke-linecap:butt;stroke-linejoin:miter;stroke-opacity:1"
         d="m 125.8665,122.64042 c 0,0 -1.49716,1.48679 -1.7215,2.69963 -0.22434,1.21285 -1.00853,4.33613 -1.28457,5.53731 -0.27605,1.20119 -0.96168,7.14418 -0.73725,8.21071"
         id="path15205" /><path
         style="fill:none;stroke:#000000;stroke-width:0.264583px;stroke-linecap:butt;stroke-linejoin:miter;stroke-opacity:1"
         d="m 132.63069,130.71944 c 0,0 -0.79223,1.53572 -0.73543,2.49066 0.0568,0.95494 -0.29576,4.59634 -0.88231,6.5037 -0.58656,1.90736 -1.2683,4.86972 -1.38072,5.91082"
         id="path15207"
         sodipodi:nodetypes="cssc" /><path
         style="fill:none;stroke:#000000;stroke-width:0.264583px;stroke-linecap:butt;stroke-linejoin:miter;stroke-opacity:1"
         d="m 139.91945,140.46344 c 0,0 -0.16554,1.75538 -0.66199,3.7846 -0.49644,2.02922 -2.40252,7.15532 -2.39738,9.14845"
         id="path15209" /><path
         style="fill:#b3b3b3;stroke:#000000;stroke-width:0.264583px;stroke-linecap:butt;stroke-linejoin:miter;stroke-opacity:1"
         d="m 103.32684,120.16214 c 0,0 -0.67792,0.32797 -0.43934,0.55035 0.23858,0.22239 3.33958,0.70606 3.9477,0.99405 0.60813,0.28799 2.89476,1.94462 3.33804,1.89081 0.44329,-0.0538 1.56935,0.22115 1.96109,-0.19277 0.39174,-0.41391 0.2536,-0.57891 0.2536,-0.57891 l -1.17743,-1.21749 c 0,0 -1.14129,-0.96416 -1.50873,-1.17979 -0.36743,-0.21563 -1.18354,-0.66083 -1.79819,-0.78666 -0.61464,-0.12583 -1.6189,-0.33516 -2.34349,-0.14449 -0.72459,0.19068 -2.23325,0.6649 -2.23325,0.6649 z"
         id="path15888" /><path
         style="fill:none;stroke:#000000;stroke-width:0.264583px;stroke-linecap:butt;stroke-linejoin:miter;stroke-opacity:1"
         d="m 109.95346,131.48407 c -0.18731,1.86332 -0.55907,2.6622 0.21456,3.64261 0.77363,0.9804 2.14883,1.65407 2.14883,1.65407"
         id="path15890" /><path
         style="fill:none;stroke:#000000;stroke-width:0.264583px;stroke-linecap:butt;stroke-linejoin:miter;stroke-opacity:1"
         d="m 110.16802,135.12668 c 0,0 2.14137,-0.92799 2.37572,-2.00577"
         id="path15892" /></g></g></svg>
