<?xml version="1.0" encoding="UTF-8" standalone="no"?>
<!-- Created with Inkscape (http://www.inkscape.org/) -->

<svg
   width="64.761436mm"
   height="175.5943mm"
   viewBox="0 0 64.761436 175.5943"
   version="1.1"
   id="svg18444"
   xml:space="preserve"
   sodipodi:docname="toes_flex.svg"
   inkscape:version="1.2.2 (b0a8486541, 2022-12-01)"
   inkscape:export-filename="toes_flex.png"
   inkscape:export-xdpi="300"
   inkscape:export-ydpi="300"
   xmlns:inkscape="http://www.inkscape.org/namespaces/inkscape"
   xmlns:sodipodi="http://sodipodi.sourceforge.net/DTD/sodipodi-0.dtd"
   xmlns="http://www.w3.org/2000/svg"
   xmlns:svg="http://www.w3.org/2000/svg"><sodipodi:namedview
     id="namedview18446"
     pagecolor="#ffffff"
     bordercolor="#666666"
     borderopacity="1.0"
     inkscape:showpageshadow="2"
     inkscape:pageopacity="0.0"
     inkscape:pagecheckerboard="0"
     inkscape:deskcolor="#d1d1d1"
     inkscape:document-units="mm"
     showgrid="false"
     inkscape:zoom="0.5696318"
     inkscape:cx="240.50624"
     inkscape:cy="-28.08832"
     inkscape:window-width="1916"
     inkscape:window-height="947"
     inkscape:window-x="1920"
     inkscape:window-y="131"
     inkscape:window-maximized="1"
     inkscape:current-layer="layer1" /><defs
     id="defs18441" /><g
     inkscape:label="Layer 1"
     inkscape:groupmode="layer"
     id="layer1"
     transform="translate(-68.644906,-122.90943)"><g
       id="g38387"><path
         style="fill:#cccccc;fill-opacity:0.987242;stroke:#000000;stroke-width:0.264583px;stroke-linecap:butt;stroke-linejoin:miter;stroke-opacity:1"
         d="m 131.58969,170.09741 c 0,-1.37507 0.88927,-4.07841 -0.12703,-5.30921 -1.01629,-1.2308 -5.56042,-4.22579 -5.92992,-5.01894 -0.3695,-0.79316 0.12805,-2.10969 -0.35664,-3.10185 -0.4847,-0.99217 -2.19934,-3.63294 -3.77607,-4.30763 -1.57674,-0.67469 -3.15359,-0.5505 -3.06897,-1.1048 0.0846,-0.5543 0.004,-3.30935 -1.21226,-4.43 -1.21581,-1.12065 -4.74237,-2.59884 -5.20149,-2.54892 -0.45911,0.0499 -1.53635,0.60374 -1.68371,0.16501 -0.14736,-0.43872 0.50234,-5.44745 -1.59348,-6.95122 -2.09581,-1.50376 -3.97585,-2.84875 -5.29495,-2.85974 -0.54776,-0.005 -1.39798,0.25915 -2.02135,0.46952 0,0 1.24197,-3.87201 0.88573,-4.93984 -0.35621,-1.06782 -1.12328,-4.68838 -3.955174,-5.8432 -2.8319,-1.15482 -4.82808,-1.43635 -6.84311,-1.1961 -2.01503,0.24026 -3.40546,1.23723 -3.73492,1.88479 -0.32947,0.64756 -3.83742,5.38653 -4.39892,6.45285 -0.5615,1.06631 -2.45922,5.11274 -2.38989,6.87021 0.0693,1.75748 0.63769,6.40767 -0.0218,7.89691 -0.65949,1.48925 -1.62788,7.34802 -3.32106,10.21465 -1.69318,2.86663 -3.22465,8.6739 -3.25066,10.84093 -0.026,2.16703 0.78097,7.34586 1.19015,8.6762 0.40919,1.33035 1.81448,3.19187 1.90676,7.59184 0.0923,4.39997 1.00223,7.14578 0.64201,15.55973 -0.36021,8.41396 -1.04666,16.62173 -2.28968,22.04581 -1.24301,5.42408 -1.24618,17.11581 -0.87417,20.01158 0.37201,2.89577 -1.68877,13.20456 -2.7777,16.07126 -1.08893,2.86669 -5.28217,19.05149 -2.19747,25.40736 3.0847,6.35587 8.37374,13.3174 14.03113,14.47498 5.65738,1.15755 13.15488,2.1667 19.753584,-0.12808 6.59869,-2.29479 10.62526,-6.52566 12.57035,-13.16234 1.94509,-6.63667 4.31723,-9.63389 3.46812,-14.60965 -0.84912,-4.97576 -1.05212,-4.15181 -0.41892,-7.60376 l 3e-5,3e-5 c 0,0 2.16962,-16.5124 2.77164,-20.27531 0.60202,-3.7629 1.72906,-10.25778 2.71323,-12.97091 0.98417,-2.71314 3.41249,-6.23723 4.14833,-11.06195 0.73584,-4.82473 2.89692,-16.69338 3.82671,-22.77278 0.92979,-6.07941 0.40699,-10.10507 -0.0433,-12.53293 -1.24146,-5.02054 -1.12518,-10.52943 -1.12518,-11.9045 z m -30.26587,-34.99778 c -0.61402,0.2821 -1.13874,0.59723 -1.31276,1.18598 -0.323405,1.09415 -1.171943,4.23139 -1.239626,4.90056 -0.06769,0.66916 0.09088,3.50548 0.408726,4.11247 0.317844,0.60698 0.85229,3.74519 0.67197,4.34521 -0.180322,0.60003 0.47335,1.95378 0.7016,2.62669"
         id="path21685"
         sodipodi:nodetypes="sssssscsssscssssssssssssssssssssscsssscscssssc" /><path
         style="fill:#b3b3b3;stroke:#000000;stroke-width:0.264583px;stroke-linecap:butt;stroke-linejoin:miter;stroke-opacity:1"
         d="m 92.065916,134.32569 c -2.0651,-0.28457 -3.28806,-0.1699 -3.62424,-1.03142 -0.33617,-0.86153 -0.35869,-7.2543 0.10284,-7.6395 0.46152,-0.38521 1.62596,-0.82704 2.7786,-0.77787 1.15265,0.0492 4.21835,0.6415 5.45163,1.46521 1.23329,0.8237 1.82788,1.38652 1.95837,1.66784 0.13048,0.28133 -0.84776,3.70211 -1.48638,4.40359 -0.63862,0.70147 -1.428,1.83081 -2.21663,2.04273 -0.78863,0.21191 -2.96419,-0.13058 -2.96419,-0.13058 z"
         id="path15191" /><path
         style="fill:none;stroke:#000000;stroke-width:0.264583px;stroke-linecap:butt;stroke-linejoin:miter;stroke-opacity:1"
         d="m 97.664303,152.52841 c -0.725781,-1.7608 -0.674349,-3.71797 -0.597167,-4.70502 0.07718,-0.98705 0.793919,-3.19806 1.100873,-3.68248 0.306956,-0.48443 0.532741,-2.47105 0.59337,-2.86013"
         id="path21687" /><path
         style="fill:none;stroke:#000000;stroke-width:0.264583px;stroke-linecap:butt;stroke-linejoin:miter;stroke-opacity:1"
         d="m 110.16355,144.37206 c 0.12227,1.4544 -0.20283,2.74604 0.1357,3.95616 0.33854,1.21012 0.78111,3.57013 1.23751,3.96217"
         id="path21689" /><path
         style="fill:none;stroke:#000000;stroke-width:0.264583px;stroke-linecap:butt;stroke-linejoin:miter;stroke-opacity:1"
         d="m 118.35815,151.24431 c 0,1.10408 -0.297,2.75516 -0.4219,3.54567 -0.12491,0.79052 0.26733,1.73299 0.52853,2.60024"
         id="path21691" /><path
         style="fill:none;stroke:#000000;stroke-width:0.264583px;stroke-linecap:butt;stroke-linejoin:miter;stroke-opacity:1"
         d="m 125.37919,159.3052 c -0.335,2.05233 -0.93201,3.05269 -0.727,4.76909 0.20501,1.71639 1.27665,2.93352 1.38779,3.28554"
         id="path21693" /></g></g></svg>
