<?xml version="1.0" encoding="UTF-8" standalone="no"?>
<!-- Created with Inkscape (http://www.inkscape.org/) -->

<svg
   width="64.732407mm"
   height="164.006mm"
   viewBox="0 0 64.732407 164.006"
   version="1.1"
   id="svg32824"
   xml:space="preserve"
   inkscape:version="1.2.2 (b0a8486541, 2022-12-01)"
   sodipodi:docname="all_flex.svg"
   inkscape:export-filename="all_flex.png"
   inkscape:export-xdpi="300"
   inkscape:export-ydpi="300"
   xmlns:inkscape="http://www.inkscape.org/namespaces/inkscape"
   xmlns:sodipodi="http://sodipodi.sourceforge.net/DTD/sodipodi-0.dtd"
   xmlns="http://www.w3.org/2000/svg"
   xmlns:svg="http://www.w3.org/2000/svg"><sodipodi:namedview
     id="namedview32826"
     pagecolor="#ffffff"
     bordercolor="#666666"
     borderopacity="1.0"
     inkscape:showpageshadow="2"
     inkscape:pageopacity="0.0"
     inkscape:pagecheckerboard="0"
     inkscape:deskcolor="#d1d1d1"
     inkscape:document-units="mm"
     showgrid="false"
     inkscape:zoom="0.5300509"
     inkscape:cx="184.8879"
     inkscape:cy="52.825116"
     inkscape:window-width="1916"
     inkscape:window-height="947"
     inkscape:window-x="1920"
     inkscape:window-y="131"
     inkscape:window-maximized="1"
     inkscape:current-layer="layer1" /><defs
     id="defs32821" /><g
     inkscape:label="Layer 1"
     inkscape:groupmode="layer"
     id="layer1"
     transform="translate(-85.613032,-81.729673)"><g
       id="g37280"><path
         style="fill:#cccccc;fill-opacity:0.987242;stroke:#000000;stroke-width:0.264583px;stroke-linecap:butt;stroke-linejoin:miter;stroke-opacity:1"
         d="m 116.52835,85.127417 c -0.97793,-0.89332 -2.17963,-1.82916 -3.91304,-2.09228 -2.28894,-0.34745 -2.59539,0.51451 -4.61051,0.75413 -1.13721,0.13523 -1.99993,-0.47942 -2.70441,-0.3017 -3.02937,0.7642 -3.42707,0.80255 -4.51149,2.57822 -0.6281,1.028493 -3.075612,2.909373 -3.006282,4.666843 0.0693,1.75748 -0.553832,6.001482 -1.01726,7.46547 0,0 -1.188565,3.40183 -2.252556,5.4466 -1.69318,2.86663 -3.22465,8.6739 -3.25066,10.84093 -0.026,2.16703 0.78097,7.34586 1.19015,8.6762 0.40919,1.33035 1.81448,3.19187 1.90676,7.59184 0.0923,4.39997 1.00223,7.14578 0.64201,15.55973 -0.36021,8.41396 -1.04666,16.62173 -2.28968,22.04581 -1.24301,5.42408 -1.24618,17.11581 -0.87417,20.01158 0.37201,2.89577 -1.68877,13.20456 -2.7777,16.07126 -1.08893,2.86669 -5.28217,19.05149 -2.19747,25.40736 3.0847,6.35587 8.344709,13.34453 14.002098,14.50211 5.65738,1.15755 13.15488,2.1667 19.75359,-0.12808 6.59869,-2.29479 10.62526,-6.52566 12.57035,-13.16234 1.94509,-6.63667 4.31723,-9.63389 3.46812,-14.60965 -0.84912,-4.97576 -1.05212,-4.15181 -0.41892,-7.60376 l 3e-5,3e-5 c 0,0 2.16962,-16.5124 2.77164,-20.27531 0.60202,-3.7629 1.72906,-10.25778 2.71323,-12.97091 0.98417,-2.71314 3.41249,-6.23723 4.14833,-11.06195 0.73584,-4.82473 2.89692,-16.69338 3.82671,-22.77278 0.92979,-6.07941 0.40699,-10.10507 -0.0433,-12.53293 -1.24146,-5.02054 -1.12518,-10.52943 -1.12518,-11.9045 h 5e-5 c 0,-1.37507 0.88927,-4.07841 -0.12703,-5.30921 -1.01629,-1.2308 -5.56042,-4.22579 -5.92992,-5.01894 -0.3695,-0.79316 0.12805,-2.10969 -0.35664,-3.10185 -0.4847,-0.99217 -2.19934,-3.63294 -3.77607,-4.307631 -1.57674,-0.67469 -3.15359,-0.5505 -3.06897,-1.1048 0.0846,-0.5543 0.004,-3.30935 -1.21226,-4.43 -1.21581,-1.12065 -4.74237,-2.59884 -5.20149,-2.54892 -0.45911,0.0499 -1.53635,0.60374 -1.68371,0.16501 -0.14736,-0.43872 0.50234,-5.44745 -1.59348,-6.95122 -2.09581,-1.50376 -3.97585,-2.84875 -5.29495,-2.85974 -0.54776,-0.005 -1.39798,0.25915 -2.02135,0.46952 -0.61402,0.2821 -1.10971,0.570097 -1.28373,1.158847 -0.32341,1.09415 -1.20098,4.258523 -1.26866,4.927693 -0.0677,0.66916 0.0909,3.50548 0.40873,4.11247 0.31784,0.60698 0.85229,3.74519 0.67197,4.34521 -0.18033,0.60003 0.47335,1.95378 0.7016,2.62669"
         id="path21685"
         sodipodi:nodetypes="csssscccssssssssssssscsssscscssssscsssscssscc" /><path
         style="fill:none;stroke:#000000;stroke-width:0.264583px;stroke-linecap:butt;stroke-linejoin:miter;stroke-opacity:1"
         d="m 127.10265,91.603989 c 0.12227,1.4544 -0.20283,2.74604 0.1357,3.95616 0.33854,1.21012 0.78111,3.57013 1.23751,3.96217"
         id="path21689" /><path
         style="fill:none;stroke:#000000;stroke-width:0.264583px;stroke-linecap:butt;stroke-linejoin:miter;stroke-opacity:1"
         d="m 135.29725,98.476239 c 0,1.10408 -0.297,2.755161 -0.4219,3.545671 -0.12491,0.79052 0.26733,1.73299 0.52853,2.60024"
         id="path21691" /><path
         style="fill:none;stroke:#000000;stroke-width:0.264583px;stroke-linecap:butt;stroke-linejoin:miter;stroke-opacity:1"
         d="m 142.31829,106.53713 c -0.335,2.05233 -0.93201,3.05269 -0.727,4.76909 0.20501,1.71639 1.27665,2.93352 1.38779,3.28554"
         id="path21693" /><path
         style="fill:#b3b3b3;stroke:#000000;stroke-width:0.264583px;stroke-linecap:butt;stroke-linejoin:miter;stroke-opacity:1"
         d="m 108.66922,83.702035 c 0,0 -0.67792,0.32797 -0.43934,0.55035 0.23858,0.22239 3.33958,0.70606 3.9477,0.99405 0.60813,0.28799 2.89476,1.94462 3.33804,1.89081 0.44329,-0.0538 0.49411,-0.123853 0.49411,-0.123853 0.20422,-0.532049 0.26843,-0.857725 0.26843,-0.857725 l 0.23175,-1.007682 c 0,0 -1.09832,-0.96407 -1.46576,-1.1797 -0.36743,-0.21563 -1.18354,-0.66083 -1.79819,-0.78666 -0.61464,-0.12583 -1.6189,-0.33516 -2.34349,-0.14449 -0.72459,0.19068 -2.23325,0.6649 -2.23325,0.6649 z"
         id="path37239"
         sodipodi:nodetypes="cssssccsssc" /></g></g></svg>
