<?xml version="1.0" encoding="UTF-8" standalone="no"?>
<!-- Created with Inkscape (http://www.inkscape.org/) -->

<svg
   width="71.259651mm"
   height="175.5943mm"
   viewBox="0 0 71.259651 175.5943"
   version="1.1"
   id="svg49199"
   inkscape:version="1.2.2 (b0a8486541, 2022-12-01)"
   sodipodi:docname="lateral_extension.svg"
   xmlns:inkscape="http://www.inkscape.org/namespaces/inkscape"
   xmlns:sodipodi="http://sodipodi.sourceforge.net/DTD/sodipodi-0.dtd"
   xmlns="http://www.w3.org/2000/svg"
   xmlns:svg="http://www.w3.org/2000/svg">
  <sodipodi:namedview
     id="namedview49201"
     pagecolor="#ffffff"
     bordercolor="#666666"
     borderopacity="1.0"
     inkscape:showpageshadow="2"
     inkscape:pageopacity="0.0"
     inkscape:pagecheckerboard="0"
     inkscape:deskcolor="#d1d1d1"
     inkscape:document-units="mm"
     showgrid="false"
     inkscape:zoom="0.55827276"
     inkscape:cx="617.9775"
     inkscape:cy="300.92817"
     inkscape:window-width="1916"
     inkscape:window-height="911"
     inkscape:window-x="1920"
     inkscape:window-y="167"
     inkscape:window-maximized="1"
     inkscape:current-layer="layer4" />
  <defs
     id="defs49196" />
  <g
     inkscape:label="Layer 1"
     inkscape:groupmode="layer"
     id="layer1"
     transform="translate(-115.41041,-30.34001)" />
  <g
     inkscape:groupmode="layer"
     id="layer4"
     inkscape:label="Layer 2"
     style="display:inline"
     transform="translate(-115.41041,-30.34001)">
    <g
       id="g50055">
      <path
         style="fill:#cccccc;fill-opacity:1;stroke:#000000;stroke-width:0.264583px;stroke-linecap:butt;stroke-linejoin:miter;stroke-opacity:1"
         d="m 144.06948,58.115487 c 0.79813,-2.66488 2.33697,-6.820073 2.74662,-7.475637 0.53799,-0.86094 2.02578,-3.16965 2.38222,-5.346661 0,0 0.23505,-3.382968 0.13055,-4.229949 -0.10449,-0.846982 -0.35381,-3.472871 -0.35381,-3.472871 -0.35621,-1.06782 -1.12328,-4.68838 -3.95517,-5.8432 -2.8319,-1.15482 -4.82808,-1.43635 -6.84311,-1.1961 -2.01503,0.24026 -3.40546,1.23723 -3.73492,1.88479 -0.32947,0.64756 -3.83741,5.38653 -4.39892,6.45285 -0.5615,1.06631 -2.45922,5.11274 -2.38988,6.87021 0.0693,1.75748 0.63768,6.40766 -0.0218,7.896901 -0.6595,1.48925 -1.62789,7.34802 -3.32107,10.21465 -1.69318,2.86663 -3.22467,8.6739 -3.25067,10.84093 -0.026,2.16703 0.78097,7.34586 1.19016,8.6762 0.40918,1.33035 1.81445,3.19187 1.90675,7.59184 0.0923,4.39997 1.00223,7.14578 0.64202,15.55973 -0.36022,8.41396 -1.04667,16.62173 -2.28969,22.04581 -1.24301,5.42408 -1.24617,17.11581 -0.87417,20.01158 0.37201,2.89577 -1.68876,13.20456 -2.77769,16.07126 -1.08894,2.86669 -5.28218,19.05149 -2.19748,25.40736 3.0847,6.35586 8.37374,13.3174 14.03113,14.47498 5.65739,1.15755 13.15489,2.1667 19.75359,-0.12808 6.59869,-2.29479 10.62526,-6.52566 12.57035,-13.16234 1.94509,-6.63667 4.31723,-9.63389 3.46812,-14.60965 -0.84912,-4.97576 -1.05212,-4.15181 -0.41892,-7.60376 l 2e-5,2e-5 c 0,0 2.16962,-16.51239 2.77164,-20.27531 0.60202,-3.7629 1.72906,-10.25777 2.71323,-12.97091 0.98417,-2.71314 3.41249,-6.23723 4.14833,-11.06194 0.73584,-4.82473 2.89692,-16.69338 3.82671,-22.77279 0.92979,-6.07941 0.9945,-14.20571 0.54426,-16.63357 h -2e-5 c -0.0419,-0.70595 -0.52768,-1.06191 0.42394,-3.25691 0.95162,-2.19501 2.03744,-4.292 2.76308,-5.0695 0.72563,-0.77749 1.93859,-3.57844 2.58637,-4.73376 0.96882,-1.72789 0.37131,-6.28655 0.11582,-6.9567 -0.2555,-0.67016 -1.86843,-1.43366 -3.67974,-1.03486 -1.81131,0.3988 -5.01624,4.29167 -6.04878,5.77317 -1.03254,1.48149 -3.23366,7.47887 -3.97013,8.1986 -0.73647,0.71973 -0.94929,-1.02651 -1.01469,-1.76438 -0.0654,-0.73786 1.49089,-3.7371 2.31311,-5.37876 0.82221,-1.64166 3.78899,-5.51889 4.52128,-7.31402 0.73228,-1.79513 0.88475,-4.56951 0.89175,-6.39394 0.007,-1.82443 -3.0757,-3.54512 -3.67544,-4.105 -0.59973,-0.55988 -0.0147,-1.19132 -0.0147,-1.68639 0,-0.49507 -0.79054,-2.58182 -1.71474,-4.00075 -0.9242,-1.41893 -3.02345,-1.22852 -3.36742,-1.87378 -0.34398,-0.64525 -1.56045,-3.410713 -2.5234,-4.320813 -0.96294,-0.9101 -4.54364,-1.682531 -6.59742,-1.408076 -2.05377,0.274454 -5.25609,5.536639 -6.04743,6.466789 -0.79135,0.93014 -2.0398,3.56925 -3.13971,5.34823 -1.09992,1.77899 -2.04695,5.5597 -2.81944,6.75717 -1.22054,0.508436 -5.25073,0.372194 -5.00069,-0.462663 z"
         id="path49663"
         sodipodi:nodetypes="sscscsssscscsssssssssssssssssscssssssssssscsssssssscs" />
      <path
         style="fill:none;stroke:#000000;stroke-width:0.264583px;stroke-linecap:butt;stroke-linejoin:miter;stroke-opacity:1"
         d="m 146.87902,65.18654 c 0.77011,-2.01106 2.19115,-6.60839 2.19115,-6.60839"
         id="path43140" />
      <path
         style="fill:none;stroke:#000000;stroke-width:0.264583px;stroke-linecap:butt;stroke-linejoin:miter;stroke-opacity:1"
         d="m 156.83582,66.92182 c 0.69215,-3.09141 1.14533,-4.61803 2.68389,-7.16782 1.53857,-2.54978 3.61213,-5.22279 4.59955,-6.11794 0.98742,-0.89514 5.73556,-4.02007 5.7862,-5.07214 0.0506,-1.05207 0.29211,-2.82907 0.29211,-2.82907"
         id="path43144" />
      <path
         style="fill:none;stroke:#000000;stroke-width:0.264583px;stroke-linecap:butt;stroke-linejoin:miter;stroke-opacity:1"
         d="m 162.60532,55.33078 c -0.49128,1.53453 -1.88352,4.35688 -2.29201,4.98166 -0.40848,0.62479 -1.2395,3.43517 -1.40757,3.93814 -0.16807,0.50298 -0.82042,1.44108 -0.83587,1.76839"
         id="path43146" />
      <path
         style="fill:none;stroke:#000000;stroke-width:0.264583px;stroke-linecap:butt;stroke-linejoin:miter;stroke-opacity:1"
         d="m 175.02481,52.74692 c -1.31575,2.71422 -3.32343,6.68226 -4.24677,7.9109 -0.92333,1.22864 -1.97551,3.91433 -3.20653,5.36739 -1.23103,1.45305 -2.96558,3.93633 -3.5097,5.34625 -0.54412,1.40993 -0.54412,1.98082 -0.54412,1.98082"
         id="path43148"
         sodipodi:nodetypes="csssc" />
      <path
         style="fill:none;stroke:#000000;stroke-width:0.264583px;stroke-linecap:butt;stroke-linejoin:miter;stroke-opacity:1"
         d="m 171.24373,76.48749 c -0.91508,1.34655 -0.91508,2.57341 -0.91508,3.17297"
         id="path43150" />
      <path
         style="fill:none;stroke:#000000;stroke-width:0.264583px;stroke-linecap:butt;stroke-linejoin:miter;stroke-opacity:1"
         d="m 171.35314,80.26436 c 0.95603,-1.00402 0.43794,-1.27873 0.90528,-2.01249"
         id="path43152" />
      <path
         style="fill:#b3b3b3;fill-opacity:1;stroke:#000000;stroke-width:0.264583px;stroke-linecap:butt;stroke-linejoin:miter;stroke-opacity:1"
         d="m 165.28071,43.53884 c -0.89562,-0.63363 -2.1527,-1.431891 -2.5494,-1.431891 -0.39669,0 -2.39679,1.942721 -2.39679,2.421831 0,0.47911 -0.53043,2.47249 0.21621,3.1148 0.74664,0.64231 2.30062,1.76796 2.83467,1.83981 0.53404,0.0719 1.73388,0.75947 2.81115,-0.1487 1.07726,-0.90817 1.77308,-1.16846 1.78852,-1.70615 0.0155,-0.53769 -1.29271,-2.61913 -1.54354,-2.95157 -0.25084,-0.33243 -1.16082,-1.13813 -1.16082,-1.13813 z"
         id="path43156" />
      <path
         style="fill:#b3b3b3;fill-opacity:1;stroke:#000000;stroke-width:0.264583px;stroke-linecap:butt;stroke-linejoin:miter;stroke-opacity:1"
         d="m 173.26066,51.37664 c -0.42099,-1.44542 -1.05246,-2.47289 -1.66049,-2.72786 -0.60802,-0.25497 -1.69471,-0.0849 -1.69471,-0.0849 0,0 -0.19338,0.51392 -0.41711,0.72461 -0.22373,0.21069 -1.72648,1.56309 -2.11069,1.8594 -0.3842,0.29631 -0.45416,1.45756 -0.30116,1.7541 0.153,0.29655 1.04643,1.55441 2.18812,1.41941 1.14169,-0.135 1.76872,0.002 2.23826,-0.59231 0.46954,-0.59448 1.73829,-1.97519 1.75778,-2.35249 z"
         id="path43158" />
      <path
         style="fill:#b3b3b3;fill-opacity:1;stroke:#000000;stroke-width:0.264583px;stroke-linecap:butt;stroke-linejoin:miter;stroke-opacity:1"
         d="m 174.15048,54.46385 c 0.57624,0.29004 1.87153,1.16137 2.05443,1.60101 0.1829,0.43963 0.28306,0.62102 0.1698,0.94922 -0.11327,0.32821 -0.84871,2.19456 -1.12943,2.45621 -0.28073,0.26165 -1.03473,1.30699 -1.49745,1.18753 -0.46272,-0.11945 -1.62343,-0.27374 -1.82933,-0.49698 -0.20591,-0.22324 -0.42752,-0.60968 -0.42752,-0.60968 z"
         id="path43160" />
      <path
         style="fill:#b3b3b3;fill-opacity:1;stroke:#000000;stroke-width:0.264583px;stroke-linecap:butt;stroke-linejoin:miter;stroke-opacity:1"
         d="m 186.30506,66.71229 c -0.81054,-0.26294 -1.28909,-0.34486 -1.98738,-0.16061 -0.69829,0.18424 -1.32007,0.41551 -1.72915,0.76963 -0.40908,0.35411 -0.94273,1.37304 -0.76282,1.8192 0.17991,0.44616 1.14232,1.1936 1.69766,1.25898 0.55535,0.0654 1.15387,-0.10391 1.72892,-0.89489 0.57505,-0.79098 1.31568,-1.40751 1.28388,-1.58703 -0.0318,-0.17953 -0.23111,-1.20528 -0.23111,-1.20528 z"
         id="path43162" />
      <path
         style="fill:none;stroke:#000000;stroke-width:0.264583px;stroke-linecap:butt;stroke-linejoin:miter;stroke-opacity:1"
         d="m 144.06948,58.115485 c 0,0 -0.66179,1.718202 -0.7402,2.542339"
         id="path50028" />
      <path
         style="fill:#b3b3b3;stroke:#000000;stroke-width:0.264583px;stroke-linecap:butt;stroke-linejoin:miter;stroke-opacity:1"
         d="m 138.83146,41.75621 c -2.0651,-0.28457 -3.28806,-0.1699 -3.62423,-1.03142 -0.33618,-0.86153 -0.3587,-7.2543 0.10283,-7.6395 0.46152,-0.38521 1.62596,-0.82704 2.77861,-0.77787 1.15264,0.0492 4.21834,0.6415 5.45162,1.46521 1.23329,0.8237 1.82788,1.38652 1.95837,1.66784 0.13048,0.28133 -0.84776,3.70211 -1.48638,4.40359 -0.63862,0.70147 -1.428,1.83081 -2.21663,2.04273 -0.78863,0.21191 -2.96419,-0.13058 -2.96419,-0.13058 z"
         id="path15191" />
    </g>
  </g>
</svg>
