<?xml version="1.0" encoding="UTF-8" standalone="no"?>
<!-- Created with Inkscape (http://www.inkscape.org/) -->

<svg
   width="295.46698mm"
   height="140.87888mm"
   viewBox="0 0 295.46698 140.87887"
   version="1.1"
   id="svg98698"
   inkscape:version="1.1.1 (3bf5ae0d25, 2021-09-20)"
   sodipodi:docname="hand_rotoscope_isolated.svg"
   xmlns:inkscape="http://www.inkscape.org/namespaces/inkscape"
   xmlns:sodipodi="http://sodipodi.sourceforge.net/DTD/sodipodi-0.dtd"
   xmlns="http://www.w3.org/2000/svg"
   xmlns:svg="http://www.w3.org/2000/svg">
  <sodipodi:namedview
     id="namedview98700"
     pagecolor="#ffffff"
     bordercolor="#666666"
     borderopacity="1.0"
     inkscape:pageshadow="2"
     inkscape:pageopacity="0.0"
     inkscape:pagecheckerboard="0"
     inkscape:document-units="mm"
     showgrid="false"
     fit-margin-top="0"
     fit-margin-left="0"
     fit-margin-right="0"
     fit-margin-bottom="0"
     inkscape:zoom="0.287104"
     inkscape:cx="686.1625"
     inkscape:cy="179.37751"
     inkscape:window-width="1916"
     inkscape:window-height="948"
     inkscape:window-x="1920"
     inkscape:window-y="130"
     inkscape:window-maximized="1"
     inkscape:current-layer="layer1" />
  <defs
     id="defs98695">
    <clipPath
       clipPathUnits="userSpaceOnUse"
       id="clipPath97703">
      <path
         style="fill:#bc8f79;fill-opacity:1;stroke:none;stroke-width:0.264583px;stroke-linecap:butt;stroke-linejoin:miter;stroke-opacity:0.0459097"
         d="m -411.49122,192.08013 c 0,0 10.99058,-1.62407 15.63103,-2.00274 4.64045,-0.37867 5.35932,0.83843 10.38587,1.15432 5.02658,0.31588 61.84668,-9.56393 69.00495,-10.52499 7.1583,-0.96107 42.66261,-9.35877 47.51631,-10.3975 4.85373,-1.03873 9.61354,-2.98447 13.23421,-3.00843 3.62067,-0.024 5.231,2.21485 7.50782,2.37664 2.27682,0.16178 4.86978,-2.17472 10.4891,-1.30525 5.61932,0.86947 12.46604,5.19171 16.01278,10.64954 3.54675,5.45783 5.44291,9.05765 8.22031,11.28855 2.7774,2.2309 16.31431,11.74111 20.71418,16.18408 4.39987,4.44297 10.2697,10.84601 13.07065,13.45952 2.80094,2.61351 8.65627,5.79826 10.70831,8.40484 2.05205,2.60658 18.45324,23.77609 21.41097,27.92478 2.95774,4.14869 16.73065,19.40681 18.04621,22.23203 1.31555,2.82523 4.03317,7.77188 1.02561,10.75463 -3.00757,2.98273 -12.37559,3.11155 -16.17103,2.34699 -3.79544,-0.76454 -10.73679,-4.51991 -12.25723,-6.4026 -1.52043,-1.88267 -7.7618,-6.77725 -8.28273,-8.6133 -0.52093,-1.83605 -3.66456,-3.78439 -6.20513,-4.98266 -2.54058,-1.19825 -11.04298,-10.83707 -12.0017,-12.31625 -0.95871,-1.47919 -2.84347,-5.27111 -4.82934,-5.99307 -1.98588,-0.72196 -4.31755,-2.97106 -6.03393,-1.45739 -1.71638,1.51366 -5.84073,7.88831 -8.71779,10.05206 -2.87705,2.16375 9.28307,5.03197 10.65885,13.16362 1.37579,8.13165 3.70591,24.30891 -5.6926,26.10615 -9.39851,1.79724 -33.67814,3.24945 -39.98166,4.97321 -6.30352,1.72374 -45.73633,2.19242 -52.37269,1.98779 -6.63634,-0.20463 -25.97939,-4.20851 -32.28766,-1.81081 -6.30825,2.39768 -47.91012,-7.87116 -52.93932,-8.81541 -5.02922,-0.94424 -28.43673,-3.11809 -35.68647,-6.60125 -10.78198,-5.18025 -18.75486,-89.54447 -0.17788,-98.8271 z"
         id="path97705"
         sodipodi:nodetypes="cssssssssssssssssssssssssssssssc" />
    </clipPath>
    <clipPath
       clipPathUnits="userSpaceOnUse"
       id="clipPath98292">
      <path
         style="fill:#bc8f79;fill-opacity:0.970492;stroke:none;stroke-width:0.264583px;stroke-linecap:butt;stroke-linejoin:miter;stroke-opacity:1"
         d="m -411.49122,192.08013 c 0,0 10.99058,-1.62407 15.63103,-2.00274 4.64045,-0.37867 5.35932,0.83843 10.38587,1.15432 5.02658,0.31588 61.84668,-9.56393 69.00495,-10.52499 7.1583,-0.96107 42.66261,-9.35877 47.51631,-10.3975 4.85373,-1.03873 9.61354,-2.98447 13.23421,-3.00843 3.62067,-0.024 5.231,2.21485 7.50782,2.37664 2.27682,0.16178 4.86978,-2.17472 10.4891,-1.30525 5.61932,0.86947 12.46604,5.19171 16.01278,10.64954 3.54675,5.45783 5.44291,9.05765 8.22031,11.28855 2.7774,2.2309 16.31431,11.74111 20.71418,16.18408 4.39987,4.44297 10.2697,10.84601 13.07065,13.45952 2.80094,2.61351 8.65627,5.79826 10.70831,8.40484 2.05205,2.60658 18.45324,23.77609 21.41097,27.92478 2.95774,4.14869 16.73065,19.40681 18.04621,22.23203 1.31555,2.82523 4.03317,7.77188 1.02561,10.75463 -3.00757,2.98273 -12.37559,3.11155 -16.17103,2.34699 -3.79544,-0.76454 -10.73679,-4.51991 -12.25723,-6.4026 -1.52043,-1.88267 -7.7618,-6.77725 -8.28273,-8.6133 -0.52093,-1.83605 -3.66456,-3.78439 -6.20513,-4.98266 -2.54058,-1.19825 -11.04298,-10.83707 -12.0017,-12.31625 -0.95871,-1.47919 -2.84347,-5.27111 -4.82934,-5.99307 -1.98588,-0.72196 -4.31755,-2.97106 -6.03393,-1.45739 -1.71638,1.51366 -5.84073,7.88831 -8.71779,10.05206 -2.87705,2.16375 9.28307,5.03197 10.65885,13.16362 1.37579,8.13165 3.70591,24.30891 -5.6926,26.10615 -9.39851,1.79724 -33.67814,3.24945 -39.98166,4.97321 -6.30352,1.72374 -45.73633,2.19242 -52.37269,1.98779 -6.63634,-0.20463 -25.97939,-4.20851 -32.28766,-1.81081 -6.30825,2.39768 -47.91012,-7.87116 -52.93932,-8.81541 -5.02922,-0.94424 -28.43673,-3.11809 -35.68647,-6.60125 -10.78198,-5.18025 -18.75486,-89.54447 -0.17788,-98.8271 z"
         id="path98294"
         sodipodi:nodetypes="cssssssssssssssssssssssssssssssc" />
    </clipPath>
  </defs>
  <g
     inkscape:label="Layer 1"
     inkscape:groupmode="layer"
     id="layer1"
     transform="translate(78.978206,-57.383998)">
    <g
       id="g98844">
      <path
         style="fill:#bc8f79;fill-opacity:1;stroke:none;stroke-width:0.264583px;stroke-linecap:butt;stroke-linejoin:miter;stroke-opacity:1"
         d="m -67.85272,82.16353 c 0,0 10.99058,-1.62407 15.63102,-2.00274 4.64045,-0.37867 5.35932,0.83843 10.38588,1.15432 5.02658,0.31588 61.84667,-9.56393 69.00495,-10.52499 7.1583,-0.96107 42.6626,-9.35877 47.5163,-10.3975 4.85373,-1.03873 9.61354,-2.98447 13.23421,-3.00843 3.62067,-0.024 5.231,2.21485 7.50782,2.37664 2.27682,0.16178 4.86978,-2.17472 10.4891,-1.30525 5.61932,0.86947 12.46604,5.19171 16.01278,10.64954 3.54675,5.45783 5.44291,9.05765 8.22031,11.28855 2.7774,2.2309 16.31431,11.74111 20.71418,16.18408 4.39987,4.44297 10.2697,10.84601 13.07065,13.45952 2.80094,2.61351 8.65627,5.79826 10.70831,8.40484 2.05205,2.60658 18.45324,23.77609 21.41097,27.92478 2.95774,4.14869 16.73065,19.40681 18.04621,22.23203 1.31555,2.82522 4.03317,7.77187 1.02561,10.75463 -3.00757,2.98272 -12.37559,3.11155 -16.17103,2.34698 -3.79544,-0.76454 -10.73679,-4.5199 -12.25723,-6.4026 -1.52043,-1.88267 -7.7618,-6.77725 -8.28273,-8.6133 -0.52093,-1.83605 -3.66456,-3.78438 -6.20513,-4.98266 -2.54058,-1.19824 -11.04298,-10.83706 -12.0017,-12.31624 -0.95871,-1.47919 -2.84347,-5.27111 -4.82934,-5.99307 -1.98588,-0.72196 -4.31755,-2.97106 -6.03393,-1.45739 -1.71638,1.51366 -5.84073,7.88831 -8.71779,10.05206 -2.87705,2.16375 9.28307,5.03197 10.65885,13.16362 1.37579,8.13165 3.70591,24.30891 -5.6926,26.10615 -9.39851,1.79723 -33.67814,3.24945 -39.98166,4.97321 -6.30352,1.72373 -45.73633,2.19242 -52.37269,1.98779 -6.63633,-0.20463 -25.97938,-4.20852 -32.28766,-1.81081 -6.30825,2.39768 -47.91011,-7.87117 -52.93931,-8.81541 -5.02923,-0.94425 -28.43674,-3.11809 -35.68647,-6.60125 -10.782,-5.18025 -18.75486,-89.54447 -0.17788,-98.8271 z"
         id="path78666"
         sodipodi:nodetypes="cssssssssssssssssssssssssssssssc" />
      <path
         style="fill:#8d6459;fill-opacity:1;stroke:none;stroke-width:0.264583px;stroke-linecap:butt;stroke-linejoin:miter;stroke-opacity:1"
         d="m 139.95511,152.77602 c 0,0 -15.14168,1.36477 -20.15514,0.60927 -5.01346,-0.75549 -20.00427,-4.09286 -21.89448,-8.27572 -1.89022,-4.18286 5.57615,-18.38624 9.23608,-19.50089 3.65993,-1.11465 14.68573,1.78399 19.66359,-1.48218 4.97786,-3.26616 -0.15112,1.29267 2.15131,4.4277 2.30242,3.13504 14.73388,11.839 18.32086,12.1846 3.58698,0.3456 3.90718,0.36014 3.33506,1.21657 -0.57211,0.85642 -7.1767,8.80411 -10.65728,10.82065 z"
         id="path82875" />
      <path
         style="fill:none;stroke:#7e594f;stroke-width:1.065;stroke-linecap:round;stroke-linejoin:miter;stroke-miterlimit:4;stroke-dasharray:none;stroke-opacity:1"
         d="m 177.62095,165.6694 c 0,0 10.11506,0.13094 14.49555,-5.51656"
         id="path91223" />
      <path
         style="fill:none;stroke:#7e594f;stroke-width:1.065;stroke-linecap:round;stroke-linejoin:miter;stroke-miterlimit:4;stroke-dasharray:none;stroke-opacity:1"
         d="m 157.61492,144.83919 c 0,0 12.53933,-2.77364 15.08661,-10.3922"
         id="path91225" />
      <path
         style="fill:none;stroke:#7e594f;stroke-width:1.065;stroke-linecap:round;stroke-linejoin:miter;stroke-miterlimit:4;stroke-dasharray:none;stroke-opacity:1"
         d="m 173.22225,138.62122 c 0,0 -7.08385,7.68914 -14.77626,7.91396"
         id="path91229"
         sodipodi:nodetypes="cc" />
      <path
         style="fill:none;stroke:#7e594f;stroke-width:1.065;stroke-linecap:round;stroke-linejoin:miter;stroke-miterlimit:4;stroke-dasharray:none;stroke-opacity:1"
         d="m 129.46054,123.48389 c 0,0 5.91771,-11.86135 6.09463,-14.66567"
         id="path91321" />
      <path
         style="fill:none;stroke:#7e594f;stroke-width:1.065;stroke-linecap:round;stroke-linejoin:miter;stroke-miterlimit:4;stroke-dasharray:none;stroke-opacity:1"
         d="m 107.12133,125.33737 c 0,0 8.01162,-25.00347 7.83703,-29.97515"
         id="path91323" />
      <path
         style="fill:none;stroke:#7e594f;stroke-width:1.065;stroke-linecap:round;stroke-linejoin:miter;stroke-miterlimit:4;stroke-dasharray:none;stroke-opacity:1"
         d="m 118.58872,125.09157 c 0,0 11.38971,-22.14609 10.57852,-26.05436"
         id="path91325" />
      <path
         style="fill:none;stroke:#7e594f;stroke-width:1.065;stroke-linecap:round;stroke-linejoin:miter;stroke-miterlimit:4;stroke-dasharray:none;stroke-opacity:1"
         d="m 97.83088,144.79428 c 0,0 -10.42385,-10.77975 -3.37637,-23.28922"
         id="path91327" />
      <path
         style="fill:#63463e;fill-opacity:1;stroke:none;stroke-width:0.264583px;stroke-linecap:butt;stroke-linejoin:miter;stroke-opacity:1"
         d="m 105.78909,128.70872 8.42039,-1.06053 c 0,0 -5.99741,0.68815 -3.91657,5.75876 2.08084,5.0706 5.14582,4.37433 5.14582,4.37433 0,0 -13.79751,1.34969 -10.4467,7.64859 2.58626,4.86169 2.58626,4.86169 2.58626,4.86169 0,0 -8.84533,-2.10129 -9.74741,-5.49728 -1.1022,-4.14936 2.6494,-15.19788 7.95821,-16.08556 z"
         id="path92590"
         sodipodi:nodetypes="ccscscsc" />
      <path
         style="fill:#ded2bc;fill-opacity:0.212232;stroke:none;stroke-width:0.264583px;stroke-linecap:butt;stroke-linejoin:miter;stroke-opacity:1"
         d="m -337.70286,238.55765 c 0,0 53.66803,-12.5657 70.83263,-29.38304 17.16461,-16.81734 36.46442,-36.55954 33.28073,-38.55789 -3.1837,-1.99835 -10.17954,-6.98162 -10.17954,-6.98162 0,0 -161.8113,16.84661 -167.72217,28.44503 -5.91085,11.59842 23.48515,53.37876 73.78835,46.47752 z"
         id="path97300"
         clip-path="url(#clipPath97703)"
         transform="translate(343.63849,-109.9166)" />
      <path
         style="fill:#583a2c;fill-opacity:0.230128;stroke:none;stroke-width:0.264583px;stroke-linecap:butt;stroke-linejoin:miter;stroke-opacity:1"
         d="m -426.26234,270.31701 c 0,0 37.75699,0.29191 63.56857,2.26359 25.81162,1.9717 65.39865,11.46175 79.14595,20.37808 13.74728,8.91629 41.63615,15.95352 29.59483,21.56489 -12.04134,5.61138 -121.54788,11.86042 -121.54788,11.86042 l -48.57176,-29.67487 z"
         id="path97938"
         clip-path="url(#clipPath98292)"
         transform="translate(343.63849,-109.9166)" />
    </g>
  </g>
</svg>
