<?xml version="1.0" encoding="UTF-8" standalone="no"?>
<!-- Created with Inkscape (http://www.inkscape.org/) -->

<svg
   width="218.50778mm"
   height="228.02026mm"
   viewBox="0 0 218.50778 228.02026"
   version="1.1"
   id="svg16887"
   xml:space="preserve"
   inkscape:version="1.2.2 (b0a8486541, 2022-12-01)"
   sodipodi:docname="hand_2.svg"
   xmlns:inkscape="http://www.inkscape.org/namespaces/inkscape"
   xmlns:sodipodi="http://sodipodi.sourceforge.net/DTD/sodipodi-0.dtd"
   xmlns="http://www.w3.org/2000/svg"
   xmlns:svg="http://www.w3.org/2000/svg"><sodipodi:namedview
     id="namedview16889"
     pagecolor="#ffffff"
     bordercolor="#666666"
     borderopacity="1.0"
     inkscape:showpageshadow="2"
     inkscape:pageopacity="0.0"
     inkscape:pagecheckerboard="0"
     inkscape:deskcolor="#d1d1d1"
     inkscape:document-units="mm"
     showgrid="false"
     inkscape:zoom="0.47682093"
     inkscape:cx="121.63895"
     inkscape:cy="109.05561"
     inkscape:window-width="1916"
     inkscape:window-height="947"
     inkscape:window-x="1920"
     inkscape:window-y="131"
     inkscape:window-maximized="1"
     inkscape:current-layer="g82501" /><defs
     id="defs16884" /><g
     inkscape:groupmode="layer"
     id="layer2"
     inkscape:label="Layer 2"
     style="display:inline"
     transform="translate(-16.051337,-85.645612)" /><g
     inkscape:groupmode="layer"
     id="layer3"
     inkscape:label="Layer 3"
     transform="translate(-16.051337,-85.645612)" /><g
     inkscape:groupmode="layer"
     id="layer4"
     inkscape:label="Layer 4"
     transform="translate(-16.051337,-85.645612)" /><g
     inkscape:groupmode="layer"
     id="layer5"
     inkscape:label="Layer 5"
     transform="translate(-16.051337,-85.645612)"><g
       id="g82501"><path
         style="display:inline;fill:#b98f6e;fill-opacity:1;stroke:#000000;stroke-width:0.264583px;stroke-linecap:butt;stroke-linejoin:miter;stroke-opacity:1"
         d="m 91.972785,100.02644 c -0.283554,-1.056257 0.07541,-3.027056 0.471622,-3.769807 0.396214,-0.742752 1.008124,-1.445602 1.818246,-1.798569 0.810125,-0.352965 0.971847,-0.101328 1.087038,-0.456764 0.115194,-0.355438 0.348568,-1.188151 1.09261,-1.19957 0.74404,-0.01143 2.47958,1.583798 2.938447,2.062792 0.458864,0.478994 2.087612,2.51242 2.272752,2.743176 0.18515,0.230759 1.33097,0.326478 1.72054,0.593826 0.38957,0.267348 5.25144,4.779066 5.80777,5.627186 0.55633,0.84812 3.67471,5.77642 4.03007,6.28906 0.35537,0.51263 2.34432,2.38846 2.69857,2.99947 0.35425,0.61102 1.23084,2.42641 1.66499,3.53172 0.43417,1.10531 3.00238,4.70223 3.51987,5.59439 0.51749,0.89216 3.69627,7.17747 3.95895,7.87082 0.29884,0.78875 0.92824,2.67275 0.25174,3.68569 -0.6765,1.01294 -5.1121,-0.78272 -5.1121,-0.78272 L 115.73452,130.29877 105,113.98043 93.316993,100.9196 Z"
         id="path19228"
         sodipodi:nodetypes="cssssssssssssssccccc" /><path
         style="display:inline;fill:#bc9170;fill-opacity:1;stroke:#000000;stroke-width:0.264583px;stroke-linecap:butt;stroke-linejoin:miter;stroke-opacity:1"
         d="m 120.1939,129.69118 c 0,0 -2.08261,-2.98118 -3.94466,-5.17637 -1.86205,-2.1952 -5.89164,-5.60569 -6.89496,-6.75963 -1.00332,-1.15393 -5.987,-8.40463 -7.70276,-10.45401 -1.715764,-2.04938 -2.671939,-3.19539 -3.515703,-4.15159 -0.518034,-0.58706 -1.915743,-2.29098 -2.491506,-2.77359 -0.575759,-0.482619 -3.897819,-1.81545 -4.687335,-2.414232 -0.78952,-0.598781 -4.439254,-3.65121 -5.645399,-4.290808 -1.206146,-0.639599 -6.855793,-4.899375 -7.882477,-4.899375 -1.026684,0 -2.783965,-0.01447 -3.988541,-0.81367 -1.204579,-0.799198 -3.86415,-2.1796 -4.631161,-2.178545 -0.767011,0.0011 -2.310437,0.101793 -2.723705,1.030375 -0.413269,0.928582 -1.164424,1.459558 -1.647346,1.96184 -0.482923,0.502285 -0.502862,1.082091 -0.662361,2.218487 -0.159499,1.136396 0.49453,2.779175 1.121386,3.149843 0.626859,0.370668 26.493208,17.635385 26.493208,17.635385 l 5.051721,15.3628 14.832839,3.76827 z"
         id="path18500"
         sodipodi:nodetypes="cssssssssscsssscccc" /><path
         style="display:inline;fill:#bf9372;fill-opacity:1;stroke:#000000;stroke-width:0.264583px;stroke-linecap:butt;stroke-linejoin:miter;stroke-opacity:1"
         d="m 69.361631,111.99087 c -2.405184,-1.57887 -5.321279,-4.30992 -5.972045,-4.77419 -0.650767,-0.46426 -7.653412,-3.66719 -8.546314,-4.21205 -0.892903,-0.54487 -3.658727,-2.00465 -4.523404,-2.75482 -0.864677,-0.75018 -4.417388,-3.211514 -4.595913,-5.278555 -0.178522,-2.067041 0.367025,-2.772563 0.82156,-3.263895 0.454533,-0.491334 0.972868,-1.136327 1.357596,-1.772589 0.384725,-0.636259 2.621947,-1.352217 4.177916,-1.117603 1.55597,0.234612 2.677857,0.472681 3.461409,0.620755 1.178033,0.222622 2.146095,0.469694 3.101955,0.788635 0.95586,0.318944 1.811397,0.719527 2.810971,1.188337 0.999575,0.46881 4.94646,1.453346 5.991683,1.765618 1.045221,0.312271 5.974777,1.802982 7.500696,2.315467 1.258327,0.422613 3.99984,3.035683 5.117432,3.602386 1.117592,0.566706 6.146417,4.351854 6.694686,4.915214 0.54827,0.56337 8.988241,5.65049 9.614107,6.52124 1.001774,1.39373 -9.342044,8.35103 -9.342044,8.35103 l -16.239448,-0.83469 z"
         id="path18498"
         sodipodi:nodetypes="csssssssssssssssccc" /><path
         style="display:inline;fill:#c39674;fill-opacity:1;stroke:#000000;stroke-width:0.264583px;stroke-linecap:butt;stroke-linejoin:miter;stroke-opacity:1"
         d="m 142.70459,303.02824 -11.69546,-23.73797 -10.55652,-21.063 c 0,0 -16.81988,-28.96124 -18.12527,-30.9609 -1.30538,-1.99966 -6.90786,-9.91858 -9.345807,-11.66655 -2.437945,-1.74797 -11.046841,-6.19314 -11.046841,-6.19314 0,0 -4.458846,-1.01071 -6.428243,-1.99724 -1.969397,-0.98653 -9.854715,-7.66523 -10.45842,-8.19869 -0.603705,-0.53346 -14.877156,-12.27209 -15.815972,-13.08428 -0.938815,-0.81219 -5.17245,-5.2776 -6.052904,-6.20956 -0.880454,-0.93197 -4.259056,-6.84347 -4.629544,-7.47637 -0.370488,-0.6329 -3.482354,-6.96218 -4.359106,-8.28174 -0.876752,-1.31956 -5.605944,-7.53329 -6.758755,-9.52313 -1.152809,-1.98983 -4.100371,-7.70984 -4.543208,-9.09014 -0.442836,-1.38031 -1.039816,-3.03973 -1.444882,-3.48663 -0.405066,-0.44691 -3.006859,-3.64092 -3.267443,-4.11674 -0.260583,-0.47582 -2.344784,-4.00108 -1.938735,-5.87278 0.406048,-1.87169 2.185134,-3.4044 2.726706,-3.53506 0.541573,-0.13066 1.19749,-0.56141 1.568281,-0.7865 0.37079,-0.22509 2.920056,-1.41839 3.752839,-1.35598 0.832783,0.0624 4.104491,0.32935 5.480006,1.07779 1.375516,0.74844 5.245241,3.41756 6.053606,4.2881 0.808366,0.87053 6.749926,8.13813 7.007373,8.70202 0.257448,0.56388 1.163027,2.793 1.663433,3.24924 0.500409,0.45623 5.049382,6.63352 5.715765,7.35211 0.666382,0.71858 2.545701,2.64225 2.876531,3.18035 0.330827,0.5381 2.281113,1.29239 2.872118,1.83352 0.591005,0.54113 2.227689,1.02821 2.994597,1.47125 0.766908,0.44303 0.731914,0.39749 0.903157,0.41234 0.171244,0.0148 0.695415,-0.25912 0.679421,-0.40145 -0.01601,-0.14233 -0.07317,-1.73876 -0.03477,-2.02171 0.03841,-0.28296 0.632238,-1.93313 0.802749,-2.31094 0.17051,-0.37781 0.243292,-1.44203 0.33478,-1.69109 0.09149,-0.24907 0.461073,-1.02038 0.472596,-1.26698 0.01153,-0.2466 -0.148498,-2.30598 -0.11112,-2.69539 0.03738,-0.38942 0.343249,-1.96009 0.178903,-2.2245 -0.164348,-0.26442 -0.771363,-3.68934 -0.863375,-3.99206 -0.09201,-0.30273 -1.666737,-3.59792 -1.739463,-4.05227 -0.07273,-0.45436 -1.514047,-3.9757 -1.7637,-4.33891 -0.24965,-0.3632 -1.86976,-3.4989 -2.196187,-4.03384 -0.326427,-0.53495 -3.199251,-3.34917 -3.685831,-3.6148 -0.486579,-0.26564 -6.23567,-4.94343 -8.005794,-6.85255 -1.770123,-1.90913 -5.881507,-2.99999 -7.619145,-4.20116 -1.737638,-1.20116 -3.578289,-0.73145 -5.458161,-2.45369 -1.879875,-1.72225 -3.773191,-2.80396 -3.450709,-4.97483 0.322485,-2.17087 0.544497,-1.59054 0.979596,-2.7851 0.435099,-1.19457 3.937325,-1.93815 4.61786,-2.07493 0.680537,-0.13679 3.088558,-1.36826 4.049869,-1.28654 0.96131,0.0817 2.917182,0.0579 3.963162,0.29284 1.045977,0.23488 2.963246,-0.33728 4.085341,-0.26014 1.122095,0.0772 2.41273,0.004 2.752399,0.15037 0.33967,0.14673 1.988466,0.0852 2.703531,0.18614 0.715063,0.10088 1.748137,0.33906 2.350463,0.73156 0.602324,0.3925 2.415572,1.5515 3.006336,1.78546 0.590767,0.23395 3.689297,1.40274 4.000696,1.64057 0.311401,0.23783 2.497953,1.28889 2.837482,1.5398 0.339529,0.25091 2.948217,2.09173 3.529033,2.40599 0.580819,0.31426 3.801737,2.07734 4.301435,2.20522 0.4997,0.12787 4.759245,2.13176 5.891165,2.23155 1.131919,0.0998 5.256241,1.78551 6.084199,1.69235 0.827955,-0.0932 3.358145,-3.16437 6.031434,-3.88837 2.673291,-0.724 4.859345,-1.7895 6.404872,-1.31004 1.545529,0.47946 4.704122,1.53317 5.168371,1.80751 0.46425,0.27434 3.2568,1.8234 4.13713,2.87362 0.88033,1.05021 2.17299,2.91371 2.42149,3.41491 0.24851,0.50121 2.77212,4.71636 3.64245,4.91018 0.87032,0.19383 4.62001,1.21537 5.42294,1.70325 0.80293,0.48788 2.05812,2.24591 2.28409,2.37378 0.22598,0.12787 1.756,2.46424 3.69017,2.73973 1.93418,0.27548 3.44383,0.82793 3.73761,1.13887 0.29378,0.31094 3.35408,5.37494 3.61535,5.85966 0.26126,0.48473 1.7791,4.39271 1.93481,4.7784 0.1557,0.38569 1.89724,6.0471 2.35578,6.95951 0.45854,0.91241 3.89891,8.9502 4.4819,10.03293 0.58299,1.08273 3.22627,6.86361 3.35893,7.56543 0.13266,0.70181 3.40788,12.21417 3.70548,13.28592 0.2976,1.07175 3.7678,8.13423 5.56428,11.04011 1.79648,2.90588 8.56482,12.34946 9.1878,12.9768 0.62298,0.62734 8.92589,15.78787 9.75507,16.99757 0.82919,1.2097 7.9574,11.42786 8.56804,12.22944 0.61065,0.80158 15.9386,20.28074 16.66641,21.015 0.72782,0.73427 14.55376,18.81336 15.32094,19.646 0.76718,0.83262 24.44345,29.674 24.4268,30.67241 -0.0167,0.9984 -89.87574,9.41263 -89.87574,9.41263 z"
         id="path17384" /><path
         id="path26459"
         style="display:inline;fill:#c09372;fill-opacity:1;stroke:none;stroke-width:0.264583px;stroke-linecap:butt;stroke-linejoin:miter;stroke-opacity:1"
         d="m 98.035954,221.0847 c 1.943403,2.53009 3.771076,5.14652 4.446736,6.18153 1.30539,1.99966 18.12551,30.9609 18.12551,30.9609 l 10.55646,21.06332 11.69541,23.73757 1.65519,9.40872 c 0.8565,0.30322 1.70442,0.59169 2.53525,0.86403 1.22228,-0.11474 4.44898,-0.41952 9.55084,-0.90485 -0.36779,-11.5907 -7.40671,-32.35832 -12.34964,-40.94479 -5.51454,-9.57942 -27.65087,-45.16163 -32.3665,-46.79301 -2.42992,-0.84064 -8.362,-2.84318 -13.849256,-3.57342 z" /><path
         id="path26462"
         style="display:inline;opacity:0.484956;fill:#c09072;fill-opacity:1;stroke:none;stroke-width:0.264583px;stroke-linecap:butt;stroke-linejoin:miter;stroke-opacity:1"
         d="m 49.247938,167.0265 c -3.567917,-0.12411 -8.014664,3.93393 -7.420736,6.48539 0.326136,1.40105 0.268085,3.08051 0.455786,4.93872 0.444347,0.69175 0.819334,1.23386 1.038697,1.46606 0.880453,0.93196 5.114046,5.39776 6.05286,6.20995 0.938815,0.81219 15.212385,12.5505 15.816089,13.08396 0.603704,0.53346 8.488881,7.21245 10.458276,8.19898 1.969395,0.98653 6.428032,1.9973 6.428032,1.9973 0,0 1.714742,0.90788 3.099035,1.64124 1.703317,-0.46433 3.549457,-1.26157 4.470012,-2.38693 -0.941244,-4.85814 5.978594,-15.11044 2.883028,-18.43971 -3.095567,-3.32926 -15.391523,-5.0972 -18.755961,-6.77943 -3.364436,-1.68222 -20.172219,-15.57927 -23.824903,-16.33337 -0.228292,-0.0471 -0.462354,-0.0739 -0.700215,-0.0822 z" /><path
         id="path26465"
         style="display:inline;fill:#bd927e;fill-opacity:1;stroke:none;stroke-width:0.264583px;stroke-linecap:butt;stroke-linejoin:miter;stroke-opacity:1"
         d="m 173.37869,226.40944 c 8.27138,16.61053 36.64365,64.01636 47.18885,79.5538 8.21963,-0.90915 13.70616,-1.60721 13.71027,-1.85312 0.0166,-0.99841 -23.65975,-29.83993 -24.42693,-30.67255 -0.76718,-0.83264 -14.59321,-18.91156 -15.32103,-19.64583 -0.72781,-0.73426 -16.05551,-20.21367 -16.66616,-21.01525 -0.32509,-0.42673 -2.39936,-3.38273 -4.485,-6.36705 z" /><path
         id="path26468"
         style="display:inline;opacity:0.654784;fill:#c4947b;fill-opacity:1;stroke:none;stroke-width:0.264583px;stroke-linecap:butt;stroke-linejoin:miter;stroke-opacity:1"
         d="m 105.71965,120.126 c -1.08205,-0.0266 -2.10042,0.30537 -2.82361,1.15342 -2.10378,2.46707 14.2238,38.96032 18.72754,43.84849 3.32054,3.60396 14.6497,11.00196 23.12624,14.2689 -0.5467,-1.94427 -3.39146,-11.95354 -3.51761,-12.62094 -0.13266,-0.70182 -2.77598,-6.4827 -3.35897,-7.56543 -0.58299,-1.08273 -4.02336,-9.12057 -4.4819,-10.03298 -0.45854,-0.91241 -2.20023,-6.57357 -2.35593,-6.95926 -0.15571,-0.38569 -1.6735,-4.29379 -1.93476,-4.77852 -0.13237,-0.24558 -0.98124,-1.66198 -1.82676,-3.04478 -2.52314,-1.06986 -3.52326,-0.79515 -4.61988,-1.19217 -1.40915,-0.51017 -3.85834,-4.30471 -5.08909,-5.66167 -1.06901,-1.17864 -4.16948,-1.84789 -5.88647,-3.57343 -0.57985,-0.15787 -1.08038,-0.28797 -1.32808,-0.34313 -0.52815,-0.11762 -1.62908,-1.68112 -2.497,-3.03186 -0.69573,-0.27883 -1.42813,-0.44932 -2.13372,-0.46664 z" /><path
         id="path30508"
         style="display:inline;fill:#b68b6c;fill-opacity:1;stroke:none;stroke-width:0.264583px;stroke-linecap:butt;stroke-linejoin:miter;stroke-opacity:1"
         d="m 27.539765,107.8987 c 0.380215,1.4429 1.888527,2.41198 3.392041,3.78943 1.87987,1.72224 3.720945,1.25244 5.458581,2.4536 1.737637,1.20116 5.849052,2.29216 7.619174,4.20129 1.770122,1.90912 7.519134,6.58717 8.005712,6.85281 0.48658,0.26563 3.359137,3.07982 3.685564,3.61477 0.326426,0.53494 1.946598,3.67066 2.196248,4.03386 0.249653,0.36321 1.690987,3.88439 1.763717,4.33875 0.06724,0.42008 1.330943,3.0887 1.607137,3.75533 0.08247,-1.79916 -0.116427,-3.25401 -0.539502,-4.79712 -0.896759,-3.27081 -2.536747,-8.75515 -4.272091,-10.3079 -1.735345,-1.55275 -8.78857,-6.83514 -9.724988,-8.16746 -0.936417,-1.33232 -5.559867,-5.01003 -5.559867,-5.01003 0,0 -1.232447,-0.58758 -4.112411,-1.62833 l -2.879927,-1.04076 c 0,0 -4.818432,-0.81114 -5.718514,-1.55804 -0.255896,-0.21235 -0.583483,-0.38713 -0.920874,-0.5302 z" /><path
         style="fill:#e0b9b5;fill-opacity:1;stroke:#000000;stroke-width:0.264583px;stroke-linecap:butt;stroke-linejoin:miter;stroke-opacity:1"
         d="m 24.976201,129.26008 c -1.55035,-0.77458 -2.916661,-1.29311 -4.102983,-1.17267 -1.186321,0.12044 -3.361008,1.01276 -3.728807,1.83801 -0.367799,0.82525 -1.322907,2.06849 -0.803626,3.76082 0.519281,1.69233 2.370412,5.3216 2.916622,5.95154 0.54621,0.62994 3.304895,4.25079 3.658894,4.38912 0.353998,0.13832 0.621475,0.42412 0.621475,0.42412 0,0 0.412558,-1.25296 0.675859,-1.81655 0.2633,-0.5636 1.039501,-2.09177 1.606999,-3.04621 0.567497,-0.95444 2.141913,-3.20684 2.356731,-3.55216 0.214818,-0.34533 0.697778,-1.03542 0.662271,-1.56732 -0.03551,-0.5319 -0.229391,-1.73341 -0.686202,-2.38232 -0.456811,-0.64892 -2.951132,-2.60296 -3.177233,-2.82638 z"
         id="path26421" /><path
         style="fill:#e0b9b5;fill-opacity:1;stroke:#000000;stroke-width:0.264583px;stroke-linecap:butt;stroke-linejoin:miter;stroke-opacity:1"
         d="m 33.356354,101.89349 c -0.908148,0.0606 -2.554391,0.51061 -3.107428,0.69465 -0.553035,0.18405 -1.428184,0.70064 -1.626574,1.02143 -0.19839,0.32079 -0.255037,0.82313 -0.250481,1.03471 0.0046,0.21159 0.167479,0.64126 0.320561,0.71785 0.15308,0.0766 1.39224,-0.5498 1.749052,-0.89953 0.356812,-0.34974 1.402596,-1.54503 1.793383,-1.77945 0.390787,-0.23442 1.121487,-0.78966 1.121487,-0.78966 z"
         id="path26423" /><path
         style="fill:#e0b9b5;fill-opacity:1;stroke:#000000;stroke-width:0.264583px;stroke-linecap:butt;stroke-linejoin:miter;stroke-opacity:1"
         d="m 47.583343,90.280026 c 0.769605,-0.744196 1.626304,-1.12708 2.071397,-1.25131 0.44509,-0.124227 1.332576,-0.275172 2.140968,-0.1387 0.808395,0.136472 1.816196,0.188653 2.179268,0.330317 0.363071,0.14166 0.610954,0.239355 0.610954,0.239355 0,0 -0.836475,0.127862 -1.393124,0.243163 -0.556649,0.1153 -1.507582,0.546806 -1.911881,0.799671 -0.4043,0.252865 -1.217891,0.7909 -1.672151,0.988436 -0.454263,0.197538 -1.400733,0.487754 -1.636422,0.441182 -0.235688,-0.04657 -0.529531,-0.416251 -0.543449,-0.673749 -0.01392,-0.257495 0.01871,-0.794173 0.15444,-0.978365 z"
         id="path26425" /><path
         style="fill:#e0b9b5;fill-opacity:1;stroke:#000000;stroke-width:0.264583px;stroke-linecap:butt;stroke-linejoin:miter;stroke-opacity:1"
         d="m 66.300241,89.667944 c -0.331148,-1.070459 -0.498377,-1.629201 -0.401794,-2.153846 0.09658,-0.524645 0.377182,-1.22324 0.732473,-1.413068 0.355293,-0.189831 1.27704,-0.3708 1.756862,-0.311071 0.479825,0.05973 2.316176,0.481071 2.798694,0.807038 0.482518,0.325964 2.243333,1.291801 2.492449,1.447443 0.249118,0.155643 1.056129,0.506359 1.088152,0.717113 0.03202,0.210754 -0.583409,0.394523 -1.045594,0.323683 -0.462187,-0.07084 -1.493242,-0.02556 -1.895906,0.252013 -0.402664,0.277569 -1.452565,0.679487 -1.558018,0.969024 -0.105455,0.289536 -0.524573,0.763198 -0.936974,0.761066 -0.412403,-0.0021 -1.631371,-0.309412 -1.882325,-0.434629 -0.250955,-0.125214 -1.07246,-0.814263 -1.148019,-0.964766 z"
         id="path26427" /><path
         style="fill:#e0b9b5;fill-opacity:1;stroke:#000000;stroke-width:0.264583px;stroke-linecap:butt;stroke-linejoin:miter;stroke-opacity:1"
         d="m 95.40986,96.25522 c -0.3307,-0.90428 -0.291748,-2.320608 0.147635,-2.761753 0.43938,-0.441142 1.074031,-0.813342 1.433655,-0.712846 0.359622,0.100497 1.381935,0.953448 1.773203,1.439268 0.391266,0.48582 1.617927,1.787374 1.882547,2.19992 0.26462,0.412546 1.08104,1.359098 1.08104,1.359098 0,0 -0.5475,0.03031 -1.0887,0.03347 -0.5412,0.0031 -1.868881,0.277831 -2.370885,0.246856 -0.502002,-0.03098 -2.418025,-1.095788 -2.612676,-1.339434 -0.194654,-0.24365 -0.204007,-0.247037 -0.204007,-0.247037 z"
         id="path26429" /><path
         style="opacity:0.299704;fill:#bf8a74;fill-opacity:1;stroke:none;stroke-width:0.264583px;stroke-linecap:butt;stroke-linejoin:miter;stroke-opacity:1"
         d="m 67.241448,114.82964 c -2.856682,2.02106 -3.14892,4.9034 -3.819691,8.01017 -0.670772,3.10677 0.92775,8.60144 3.894587,7.84877 2.966836,-0.75266 6.311167,-3.32552 8.881462,-2.72666 2.570294,0.59886 7.056374,-0.22626 8.844327,-2.01004 1.787954,-1.78378 -0.180025,-5.68504 -1.840195,-7.75156 -1.660174,-2.06651 -7.333652,-4.17031 -8.982491,-4.80263 -1.648835,-0.63231 -6.977999,1.43195 -6.977999,1.43195 z"
         id="path31408" /><path
         style="opacity:0.299704;fill:#bf8a74;fill-opacity:1;stroke:none;stroke-width:0.264583px;stroke-linecap:butt;stroke-linejoin:miter;stroke-opacity:1"
         d="m 87.417081,117.20612 c 1.095764,1.09613 2.857968,3.9481 4.541684,5.90685 1.683713,1.95873 4.274767,3.63802 6.882706,3.04117 2.607939,-0.59685 4.152919,-1.21218 6.158529,-2.6749 2.00561,-1.46272 1.73162,-5.19579 1.53234,-5.6943 -0.19928,-0.4985 -1.68759,-2.89161 -2.4235,-3.39235 -0.73592,-0.50074 -4.11387,-3.14709 -5.663516,-3.24152 -1.549646,-0.0944 -7.066486,-0.41493 -8.232262,0.61023 -1.165778,1.02516 -3.0496,4.73851 -2.795981,5.44482 z"
         id="path31410" /><path
         style="opacity:0.574314;fill:#bf8a74;fill-opacity:1;stroke:none;stroke-width:0.264583px;stroke-linecap:butt;stroke-linejoin:miter;stroke-opacity:1"
         d="m 113.38272,125.38201 c 0.78992,-0.39366 1.98022,-0.93531 2.41086,-0.37567 0.43065,0.55964 2.06496,2.29932 2.46929,3.22416 0.40432,0.92484 0.88535,2.75726 0.31488,3.60617 -0.57048,0.84891 -3.02334,-1.82115 -3.34161,-2.56601 -0.31828,-0.74485 -2.04072,-3.54247 -1.85342,-3.88865 z"
         id="path31412" /><path
         style="opacity:0.31827;fill:#bb8d75;fill-opacity:1;stroke:none;stroke-width:0.264583px;stroke-linecap:butt;stroke-linejoin:miter;stroke-opacity:1"
         d="m 118.33014,131.0402 c -1.94253,1.39261 -0.81977,4.7054 -0.27899,5.58043 0.54077,0.87502 7.75627,21.82098 7.75627,21.82098 l 4.12703,12.11663 c 0,0 -4.29909,-10.49732 -4.91089,-11.24349 -0.61182,-0.74617 -5.28757,-14.84063 -5.71394,-15.14953 -0.42636,-0.30889 -3.32229,-11.09105 -3.76365,-11.69091 -0.44135,-0.59987 -0.55744,-4.00012 -0.55744,-4.00012 0,0 3.02673,-1.04016 3.02673,-1.04016 0,0 0.31488,3.60617 0.31488,3.60617"
         id="path31416" /><path
         style="opacity:0.115415;fill:#a77d69;fill-opacity:1;stroke:none;stroke-width:0.264583px;stroke-linecap:butt;stroke-linejoin:miter;stroke-opacity:1"
         d="m 84.299614,126.54545 c 0,0 4.831038,0.50388 6.141075,2.00174 1.310034,1.49786 11.330281,17.50744 11.330281,17.50744 0,0 10.05415,20.0457 10.58948,20.5781 0.53533,0.5324 -0.12352,1.33019 -1.74479,0.25753 -1.62126,-1.07266 -8.17821,-14.2377 -9.47743,-15.00337 -1.299216,-0.76567 -12.116303,-13.9659 -12.678961,-14.7562 -0.562657,-0.7903 -6.758077,-6.41358 -6.742099,-7.94746 0.01598,-1.53388 2.582444,-2.63778 2.582444,-2.63778 z"
         id="path31418" /><path
         id="path31420"
         style="opacity:0.233279;fill:#b0846d;fill-opacity:1;stroke:none;stroke-width:0.264583px;stroke-linecap:butt;stroke-linejoin:miter;stroke-opacity:1"
         d="m 106.65189,119.66091 c -0.0812,1.31129 -0.47202,2.95773 -1.6521,3.81837 -0.80448,0.58673 -1.53519,1.03548 -2.28978,1.40302 v 2.1823 c 0,0 8.04899,14.99587 8.7204,17.55965 0.67142,2.56376 8.11475,19.01486 8.11475,19.01486 l 3.74499,8.72091 c 0,0 -2.84936,-10.50134 -3.30936,-11.57604 -0.46001,-1.07469 -4.45728,-10.5302 -5.10925,-12.284 -0.65197,-1.75381 -4.58525,-13.20542 -4.58525,-15.25023 0,-2.04482 -0.68369,-8.33512 -1.10122,-9.66711 -0.34383,-1.09682 -1.18995,-3.3979 -2.53318,-3.92173 z" /><path
         style="fill:none;fill-opacity:1;stroke:#a77a58;stroke-width:0.264583px;stroke-linecap:butt;stroke-linejoin:miter;stroke-opacity:1"
         d="m 28.154426,152.44664 c 0,0 0.95009,-3.40882 1.821172,-4.56179 0.871085,-1.15297 4.049699,-4.37273 4.628631,-5.43682"
         id="path27645" /><path
         style="fill:none;fill-opacity:1;stroke:#a77a58;stroke-width:0.264583px;stroke-linecap:butt;stroke-linejoin:miter;stroke-opacity:1"
         d="m 29.870058,156.45309 c 0.119251,-1.99162 1.913962,-6.88657 2.486533,-7.95309 0.572569,-1.06652 1.422884,-2.38344 1.54186,-3.21621"
         id="path27647" /><path
         style="fill:none;fill-opacity:1;stroke:#a77a58;stroke-width:0.264583px;stroke-linecap:butt;stroke-linejoin:miter;stroke-opacity:1"
         d="m 32.934126,150.20148 c -0.04427,-2.65629 1.920034,-3.80451 2.342883,-4.5802"
         id="path27649" /><path
         style="fill:none;fill-opacity:1;stroke:#a77a58;stroke-width:0.264583px;stroke-linecap:butt;stroke-linejoin:miter;stroke-opacity:1"
         d="m 43.211204,117.45868 c -1.024958,-1.18594 -2.040215,-3.73411 -2.129083,-4.9232"
         id="path27651" /><path
         style="fill:none;fill-opacity:1;stroke:#a77a58;stroke-width:0.264583px;stroke-linecap:butt;stroke-linejoin:miter;stroke-opacity:1"
         d="m 35.757355,113.70135 c -0.884066,-1.17573 -1.667661,-3.07356 -1.667661,-3.83529"
         id="path27653" /><path
         style="fill:none;fill-opacity:1;stroke:#a77a58;stroke-width:0.264583px;stroke-linecap:butt;stroke-linejoin:miter;stroke-opacity:1"
         d="m 46.254955,104.50029 c 2.075667,-0.86927 4.252952,-1.95539 5.060278,-1.95539"
         id="path27655" /><path
         style="fill:none;fill-opacity:1;stroke:#a77a58;stroke-width:0.264583px;stroke-linecap:butt;stroke-linejoin:miter;stroke-opacity:1"
         d="m 37.005582,102.41261 c 3.168783,-0.89402 3.944615,-1.06725 5.125165,-1.37288"
         id="path27657" /><path
         style="fill:none;fill-opacity:1;stroke:#a77a58;stroke-width:0.264583px;stroke-linecap:butt;stroke-linejoin:miter;stroke-opacity:1"
         d="m 69.411087,97.582327 c 2.013143,0.232416 5.296908,-0.203906 6.359742,-0.269068"
         id="path27659" /><path
         style="fill:none;fill-opacity:1;stroke:#a77a58;stroke-width:0.264583px;stroke-linecap:butt;stroke-linejoin:miter;stroke-opacity:1"
         d="m 69.831394,95.905647 c 2.457354,-0.284234 3.519614,-0.162042 4.228248,-0.162042"
         id="path27661" /><path
         style="fill:none;fill-opacity:1;stroke:#a77a58;stroke-width:0.264583px;stroke-linecap:butt;stroke-linejoin:miter;stroke-opacity:1"
         d="m 95.60702,102.01376 c -2.788926,-0.43012 -4.356143,-1.35756 -5.180897,-1.0148"
         id="path27663" /><path
         style="fill:none;fill-opacity:1;stroke:#a77a58;stroke-width:0.264583px;stroke-linecap:butt;stroke-linejoin:miter;stroke-opacity:1"
         d="m 112.9555,114.94647 c 1.3701,0.72797 1.82492,0.98085 2.57738,1.0557"
         id="path27665" /><path
         style="fill:none;fill-opacity:1;stroke:#a77a58;stroke-width:0.264583px;stroke-linecap:butt;stroke-linejoin:miter;stroke-opacity:1"
         d="m 62.116038,167.81854 c -0.603356,-2.94686 -1.344494,-6.01542 -1.344494,-7.0967"
         id="path27669" /><path
         style="fill:none;fill-opacity:1;stroke:#a77a58;stroke-width:0.264583px;stroke-linecap:butt;stroke-linejoin:miter;stroke-opacity:1"
         d="m 52.412669,154.14478 c -0.523518,0.99296 -0.17522,4.83508 -0.17522,4.83508"
         id="path27671" /><path
         style="fill:none;fill-opacity:1;stroke:#a77a58;stroke-width:0.264583px;stroke-linecap:butt;stroke-linejoin:miter;stroke-opacity:1"
         d="m 59.391283,157.90425 c -1.422588,0.60252 -2.80498,1.08755 -3.324,1.08755"
         id="path27673" /><path
         style="fill:none;fill-opacity:1;stroke:#a77a58;stroke-width:0.264583px;stroke-linecap:butt;stroke-linejoin:miter;stroke-opacity:1"
         d="m 32.398578,156.461 c 0.402527,-1.89936 3.30032,-5.95836 5.162682,-7.961 1.862363,-2.00265 2.523652,-2.42086 2.956293,-3.23492"
         id="path27675" /><path
         style="fill:none;stroke:#815e44;stroke-width:0.264583px;stroke-linecap:butt;stroke-linejoin:miter;stroke-opacity:0.383808"
         d="m 85.042133,125.95188 c 5.398556,2.59531 7.035827,6.42859 9.98682,9.45806 2.950995,3.02948 9.798717,17.24163 10.719627,18.67314 0.92091,1.43151 6.61187,12.54965 6.61187,12.54965"
         id="path31425" /><path
         style="fill:none;stroke:#815e44;stroke-width:0.264583px;stroke-linecap:butt;stroke-linejoin:miter;stroke-opacity:0.383808"
         d="m 109.18507,123.58264 c 0.28244,1.36676 1.10122,9.66711 1.10122,9.66711 0,0 1.67906,8.11189 2.25684,9.21621 0.57778,1.10432 5.39917,13.49245 5.9002,14.68137 0.50103,1.18893 2.83808,7.28991 3.46629,9.87639"
         id="path31427" /><path
         style="fill:none;stroke:#815e44;stroke-width:0.264583px;stroke-linecap:butt;stroke-linejoin:miter;stroke-opacity:0.383808"
         d="m 117.96421,131.65795 c -0.60159,0.81688 -0.88817,2.09079 -0.58586,3.12822 0.30232,1.03743 4.97953,13.92244 5.44566,15.05318 0.46614,1.13073 5.2256,15.18516 5.48332,15.94179"
         id="path31429" /></g></g></svg>
