<?xml version="1.0" encoding="UTF-8" standalone="no"?>
<!-- Created with Inkscape (http://www.inkscape.org/) -->

<svg
   xmlns:dc="http://purl.org/dc/elements/1.1/"
   xmlns:cc="http://creativecommons.org/ns#"
   xmlns:rdf="http://www.w3.org/1999/02/22-rdf-syntax-ns#"
   xmlns:svg="http://www.w3.org/2000/svg"
   xmlns="http://www.w3.org/2000/svg"
   xmlns:sodipodi="http://sodipodi.sourceforge.net/DTD/sodipodi-0.dtd"
   xmlns:inkscape="http://www.inkscape.org/namespaces/inkscape"
   width="100.92596mm"
   height="73.305817mm"
   viewBox="0 0 100.92596 73.305817"
   version="1.1"
   id="svg8"
   sodipodi:docname="controller_no_buttons.svg"
   inkscape:version="0.92.4 (5da689c313, 2019-01-14)">
  <defs
     id="defs2" />
  <sodipodi:namedview
     id="base"
     pagecolor="#ffffff"
     bordercolor="#666666"
     borderopacity="1.0"
     inkscape:pageopacity="0.0"
     inkscape:pageshadow="2"
     inkscape:zoom="1.1575685"
     inkscape:cx="85.380848"
     inkscape:cy="168.30526"
     inkscape:document-units="mm"
     inkscape:current-layer="layer1"
     showgrid="false"
     inkscape:window-width="1920"
     inkscape:window-height="1080"
     inkscape:window-x="1920"
     inkscape:window-y="0"
     inkscape:window-maximized="0"
     showguides="true"
     inkscape:guide-bbox="true"
     fit-margin-top="0"
     fit-margin-left="0"
     fit-margin-right="0"
     fit-margin-bottom="0" />
  <metadata
     id="metadata5">
    <rdf:RDF>
      <cc:Work
         rdf:about="">
        <dc:format>image/svg+xml</dc:format>
        <dc:type
           rdf:resource="http://purl.org/dc/dcmitype/StillImage" />
        <dc:title></dc:title>
      </cc:Work>
    </rdf:RDF>
  </metadata>
  <g
     inkscape:label="Ebene 1"
     inkscape:groupmode="layer"
     id="layer1"
     transform="translate(-16.071644,-33.867271)">
    <path
       inkscape:connector-curvature="0"
       id="path1148"
       d="m 26.78596,106.66538 c 0,0 1.918229,-0.7276 4.001823,-2.77812 2.083594,-2.05053 4.927865,-5.820852 4.927865,-5.820852 l 2.513541,-3.40651 c 0,0 4.140327,-4.967904 5.159375,-5.55625 1.019048,-0.588349 1.984375,-1.918229 4.696354,-1.951302 2.711979,-0.03307 19.215365,-0.09922 19.215365,-0.09922 l 12.567709,-0.09922 4.299479,0.03307 c 0,0 2.976562,0.03307 5.423958,1.951302 2.447396,1.918229 5.986198,6.680729 5.986198,6.680729 l 4.266406,5.457033 2.612777,2.81121 c 0,0 3.25555,3.20412 3.92339,3.02518 0.66785,-0.17895 4.22119,-1.67211 5.02801,-2.47893 0.80682,-0.80682 3.05835,-2.35882 3.64823,-4.560304 0,0 1.49671,-2.899874 1.49671,-5.986837 0,0 0.56672,-4.852785 -0.25725,-7.927883 l -1.28623,-7.577091 -0.98222,-4.256267 -2.66601,-8.839939 -2.71279,-7.904497 -3.27405,-8.699623 c 0,0 -2.52569,-4.115951 -3.64823,-4.115951 l -0.98221,-2.502311 c 0,0 -1.286248,-1.683798 -5.378813,-3.320823 -4.092565,-1.637026 -8.41899,-2.385381 -8.41899,-2.385381 0,0 -1.867559,-0.296576 -3.110349,0.420949 -1.242791,0.717526 -3.157122,1.590254 -3.157122,1.590254 l -28.156844,0.02339 -4.069179,-2.057975 c 0,0 -1.720227,-0.475892 -5.940065,0.65481 -4.219838,1.130703 -8.372218,3.320824 -8.372218,3.320824 0,0 -2.853102,1.824115 -2.853102,4.30304 0,0 -2.736172,2.174901 -3.297438,3.578066 -0.561266,1.403165 -3.414368,8.746396 -3.414368,8.746396 l -1.987817,5.752976 -2.245064,6.758578 -2.354226,8.543248 c 0,0 -1.387548,6.306915 -1.387548,8.505207 0,2.198292 -0.848727,6.112643 0.42095,10.851143 1.269677,4.738511 4.069178,6.571511 4.069178,6.571511 0,0 2.783551,2.74637 5.694815,2.74637 z"
       style="fill:#000000;fill-opacity:1;stroke:#000000;stroke-width:0.5;stroke-linecap:butt;stroke-linejoin:miter;stroke-miterlimit:4;stroke-dasharray:none;stroke-opacity:1" />
    <path
       style="fill:#7c8298;fill-opacity:1;stroke:#000000;stroke-width:0.5;stroke-linecap:butt;stroke-linejoin:miter;stroke-miterlimit:4;stroke-dasharray:none;stroke-opacity:1"
       d="m 26.78596,104.5487 c 0,0 1.918229,-0.7276 4.001823,-2.77812 2.083594,-2.050527 4.927865,-5.82084 4.927865,-5.82084 l 2.513541,-3.40651 c 0,0 4.140327,-4.967904 5.159375,-5.55625 1.019048,-0.588349 1.984375,-1.918229 4.696354,-1.951302 2.711979,-0.03307 19.215365,-0.09922 19.215365,-0.09922 l 12.567709,-0.09922 4.299479,0.03307 c 0,0 2.976562,0.03307 5.423958,1.951302 2.447396,1.918229 5.986198,6.680729 5.986198,6.680729 l 4.266406,5.457031 2.612777,2.8112 c 0,0 3.25555,3.20412 3.92339,3.02518 0.66785,-0.17895 4.22119,-1.67211 5.02801,-2.47893 0.80682,-0.80682 3.05835,-2.358815 3.64823,-4.560292 0,0 1.49671,-2.899874 1.49671,-5.986837 0,0 0.56672,-4.852785 -0.25725,-7.927883 l -1.28623,-7.577091 -0.98222,-4.256267 -2.66601,-8.839939 -2.71279,-7.904497 -3.27405,-8.699623 c 0,0 -2.52569,-4.115951 -3.64823,-4.115951 l -0.98221,-2.502311 c 0,0 -1.286248,-1.683798 -5.378813,-3.320823 -4.092565,-1.637026 -8.41899,-2.385381 -8.41899,-2.385381 0,0 -1.867559,-0.296576 -3.110349,0.420949 -1.242791,0.717526 -3.157122,1.590254 -3.157122,1.590254 l -28.156844,0.02339 -4.069179,-2.057975 c 0,0 -1.720227,-0.475892 -5.940065,0.65481 -4.219838,1.130703 -8.372218,3.320824 -8.372218,3.320824 0,0 -2.853102,1.824115 -2.853102,4.30304 0,0 -2.736172,2.174901 -3.297438,3.578066 -0.561266,1.403165 -3.414368,8.746396 -3.414368,8.746396 l -1.987817,5.752976 -2.245064,6.758578 -2.354226,8.543248 c 0,0 -1.387548,6.306915 -1.387548,8.505207 0,2.198292 -0.848727,6.112643 0.42095,10.851143 1.269677,4.7385 4.069178,6.571499 4.069178,6.571499 0,0 2.783551,2.74637 5.694815,2.74637 z"
       id="path5913"
       inkscape:connector-curvature="0" />
  </g>
</svg>
