<?xml version="1.0" encoding="UTF-8" standalone="no"?>
<!-- Created with Inkscape (http://www.inkscape.org/) -->

<svg
   width="70.301918mm"
   height="53.795696mm"
   viewBox="0 0 70.301918 53.795696"
   version="1.1"
   id="svg1103"
   inkscape:version="1.1.1 (3bf5ae0d25, 2021-09-20)"
   sodipodi:docname="headphones.svg"
   xmlns:inkscape="http://www.inkscape.org/namespaces/inkscape"
   xmlns:sodipodi="http://sodipodi.sourceforge.net/DTD/sodipodi-0.dtd"
   xmlns="http://www.w3.org/2000/svg"
   xmlns:svg="http://www.w3.org/2000/svg">
  <sodipodi:namedview
     id="namedview1105"
     pagecolor="#ffffff"
     bordercolor="#666666"
     borderopacity="1.0"
     inkscape:pageshadow="2"
     inkscape:pageopacity="0.0"
     inkscape:pagecheckerboard="0"
     inkscape:document-units="mm"
     showgrid="false"
     fit-margin-top="0"
     fit-margin-left="0"
     fit-margin-right="0"
     fit-margin-bottom="0"
     inkscape:zoom="1.9257977"
     inkscape:cx="179.40617"
     inkscape:cy="151.62548"
     inkscape:window-width="1916"
     inkscape:window-height="983"
     inkscape:window-x="1920"
     inkscape:window-y="95"
     inkscape:window-maximized="1"
     inkscape:current-layer="layer1" />
  <defs
     id="defs1100" />
  <g
     inkscape:label="Layer 1"
     inkscape:groupmode="layer"
     id="layer1"
     transform="translate(-57.08972,-81.178155)">
    <g
       id="g16738"
       transform="matrix(2.4151163,0,0,2.4151163,-349.0923,-487.11523)">
      <g
         id="g16456"
         transform="translate(0,1.7671001)">
        <path
           id="path15957"
           style="opacity:1;fill:#999999;stroke:#000000;stroke-width:0.634;stroke-linecap:round;stroke-miterlimit:4;stroke-dasharray:none"
           d="m 194.29065,249.82662 c 0.39127,-1.19408 0.60288,-2.46953 0.60288,-3.7944 1e-5,-6.72434 -5.45115,-12.1755 -12.17549,-12.17548 -6.72434,-2e-5 -12.1755,5.45114 -12.17548,12.17548 -1e-5,1.32487 0.2116,2.60032 0.60287,3.7944 l 2.11144,-7e-5 c -0.47073,-1.17276 -0.72972,-2.45332 -0.72966,-3.79438 9e-5,-5.62813 4.56275,-10.19051 10.19088,-10.19027 v 0 c 5.62789,1e-4 10.19017,4.56238 10.19027,10.19027 6e-5,1.341 -0.25891,2.62152 -0.72961,3.79423 z"
           sodipodi:nodetypes="cssscccssscc" />
      </g>
      <rect
         style="fill:#b3b3b3;fill-opacity:1;stroke:#000000;stroke-width:0.634;stroke-linecap:round;stroke-linejoin:miter;stroke-miterlimit:4;stroke-dasharray:none;stroke-dashoffset:0;stroke-opacity:1"
         id="rect14744"
         width="3.7032447"
         height="7.0690517"
         x="141.52271"
         y="265.33859"
         rx="1.7506288"
         transform="rotate(-5.964361)" />
      <rect
         style="fill:#333333;fill-opacity:1;stroke:#000000;stroke-width:0.634;stroke-linecap:round;stroke-linejoin:miter;stroke-miterlimit:4;stroke-dasharray:none;stroke-dashoffset:0;stroke-opacity:1"
         id="rect14660"
         width="5.7063413"
         height="10.892736"
         x="143.97414"
         y="263.07092"
         rx="2.5999999"
         transform="rotate(-5.964361)" />
      <rect
         style="fill:#b3b3b3;fill-opacity:1;stroke:#000000;stroke-width:0.634;stroke-linecap:round;stroke-linejoin:miter;stroke-miterlimit:4;stroke-dasharray:none;stroke-dashoffset:0;stroke-opacity:1"
         id="rect16282"
         width="3.7032447"
         height="7.0690517"
         x="-221.97443"
         y="227.36208"
         rx="1.7506288"
         transform="matrix(-0.99458672,-0.10390984,-0.10390984,0.99458672,0,0)" />
      <rect
         style="fill:#333333;fill-opacity:1;stroke:#000000;stroke-width:0.634;stroke-linecap:round;stroke-linejoin:miter;stroke-miterlimit:4;stroke-dasharray:none;stroke-dashoffset:0;stroke-opacity:1"
         id="rect16284"
         width="5.7063413"
         height="10.892736"
         x="-219.52299"
         y="225.09441"
         rx="2.5999999"
         transform="matrix(-0.99458672,-0.10390984,-0.10390984,0.99458672,0,0)" />
    </g>
  </g>
</svg>
