<?xml version="1.0" encoding="UTF-8" standalone="no"?>
<!-- Created with Inkscape (http://www.inkscape.org/) -->

<svg
   xmlns:dc="http://purl.org/dc/elements/1.1/"
   xmlns:cc="http://creativecommons.org/ns#"
   xmlns:rdf="http://www.w3.org/1999/02/22-rdf-syntax-ns#"
   xmlns:svg="http://www.w3.org/2000/svg"
   xmlns="http://www.w3.org/2000/svg"
   xmlns:sodipodi="http://sodipodi.sourceforge.net/DTD/sodipodi-0.dtd"
   xmlns:inkscape="http://www.inkscape.org/namespaces/inkscape"
   width="156.84837mm"
   height="130.14204mm"
   viewBox="0 0 156.84837 130.14204"
   version="1.1"
   id="svg864"
   inkscape:version="0.92.4 (5da689c313, 2019-01-14)"
   sodipodi:docname="scanner.svg"
   inkscape:export-filename="/home/schmid/Seafile/PD-Media/Cliparts (nur CC-0)/scanner.png"
   inkscape:export-xdpi="600.01355"
   inkscape:export-ydpi="600.01355">
  <defs
     id="defs858" />
  <sodipodi:namedview
     id="base"
     pagecolor="#ffffff"
     bordercolor="#666666"
     borderopacity="1.0"
     inkscape:pageopacity="0.0"
     inkscape:pageshadow="2"
     inkscape:zoom="0.49497475"
     inkscape:cx="-82.515926"
     inkscape:cy="364.04325"
     inkscape:document-units="mm"
     inkscape:current-layer="layer1"
     showgrid="false"
     fit-margin-top="0"
     fit-margin-left="0"
     fit-margin-right="0"
     fit-margin-bottom="0"
     inkscape:window-width="1916"
     inkscape:window-height="1002"
     inkscape:window-x="0"
     inkscape:window-y="76"
     inkscape:window-maximized="0" />
  <metadata
     id="metadata861">
    <rdf:RDF>
      <cc:Work
         rdf:about="">
        <dc:format>image/svg+xml</dc:format>
        <dc:type
           rdf:resource="http://purl.org/dc/dcmitype/StillImage" />
        <dc:title></dc:title>
      </cc:Work>
    </rdf:RDF>
  </metadata>
  <g
     inkscape:label="Layer 1"
     inkscape:groupmode="layer"
     id="layer1"
     transform="translate(-27.158455,-56.753653)">
    <g
       id="g13017"
       transform="matrix(2.9523216,0,0,2.9523216,-53.02204,-110.80138)">
      <rect
         ry="1.8315778"
         y="93.084091"
         x="27.203026"
         height="7.7508159"
         width="53.044651"
         id="rect1418"
         style="opacity:1;fill:#000000;fill-opacity:1;fill-rule:nonzero;stroke:none;stroke-width:0.86583221;stroke-linecap:round;stroke-linejoin:miter;stroke-miterlimit:4;stroke-dasharray:none;stroke-dashoffset:0;stroke-opacity:1" />
      <path
         sodipodi:nodetypes="sssssssss"
         inkscape:connector-curvature="0"
         id="rect1409"
         d="m 37.014117,70.889977 h 33.414115 c 0.664799,0 0.956732,0.581307 1.199999,1.199999 l 8.619442,21.921531 c 0.251331,0.6392 -0.792815,1.199999 -1.77761,1.199999 H 28.972287 c -0.984798,0 -2.022063,-0.578295 -1.777612,-1.199999 l 8.619442,-21.921531 c 0.243267,-0.618692 0.5352,-1.199999 1.2,-1.199999 z"
         style="opacity:1;fill:#1a1a1a;fill-opacity:1;fill-rule:nonzero;stroke:none;stroke-width:0.69999999;stroke-linecap:round;stroke-linejoin:miter;stroke-miterlimit:4;stroke-dasharray:none;stroke-dashoffset:0;stroke-opacity:1" />
      <path
         style="opacity:1;fill:#666666;fill-opacity:1;fill-rule:nonzero;stroke:none;stroke-width:0.5626604;stroke-linecap:round;stroke-linejoin:miter;stroke-miterlimit:4;stroke-dasharray:none;stroke-dashoffset:0;stroke-opacity:1"
         d="m 40.292198,73.275912 h 26.858285 c 0.534366,0 0.815269,0.451472 0.96456,0.96456 l 4.522886,15.544438 c 0.140668,0.483455 -0.565373,0.883428 -1.26765,0.883428 H 36.072402 c -0.702279,0 -1.404814,-0.412021 -1.267651,-0.883428 l 4.522886,-15.544438 c 0.149291,-0.513088 0.430194,-0.96456 0.964561,-0.96456 z"
         id="path1412"
         inkscape:connector-curvature="0"
         sodipodi:nodetypes="sssssssss" />
      <path
         sodipodi:nodetypes="sssssssss"
         inkscape:connector-curvature="0"
         id="path1428"
         d="m 37.014117,71.058812 h 33.414115 c 0.664799,0 0.956732,-0.341907 1.199999,-0.705802 l 8.619442,-12.893556 c 0.251331,-0.375958 -0.792815,-0.705802 -1.77761,-0.705802 H 28.972287 c -0.984798,0 -2.022063,0.340135 -1.777612,0.705802 l 8.619442,12.893556 c 0.243267,0.363895 0.5352,0.705802 1.2,0.705802 z"
         style="opacity:1;fill:#000000;fill-opacity:1;fill-rule:nonzero;stroke:none;stroke-width:0.53684503;stroke-linecap:round;stroke-linejoin:miter;stroke-miterlimit:4;stroke-dasharray:none;stroke-dashoffset:0;stroke-opacity:1" />
      <path
         style="opacity:1;fill:#1a1a1a;fill-opacity:1;fill-rule:nonzero;stroke:none;stroke-width:0.53684503;stroke-linecap:round;stroke-linejoin:miter;stroke-miterlimit:4;stroke-dasharray:none;stroke-dashoffset:0;stroke-opacity:1"
         d="m 37.014117,71.398991 h 33.414115 c 0.664799,0 0.956732,-0.341907 1.199999,-0.705802 l 8.619442,-12.893556 c 0.251331,-0.375958 -0.792815,-0.705802 -1.77761,-0.705802 H 28.972287 c -0.984798,0 -2.022063,0.340135 -1.777612,0.705802 l 8.619442,12.893556 c 0.243267,0.363895 0.5352,0.705802 1.2,0.705802 z"
         id="path1414"
         inkscape:connector-curvature="0"
         sodipodi:nodetypes="sssssssss" />
      <path
         inkscape:connector-curvature="0"
         id="path1416"
         d="M 37.014118,71.398989 H 70.158249"
         style="fill:#000000;stroke:#000000;stroke-width:0.26458332px;stroke-linecap:butt;stroke-linejoin:miter;stroke-opacity:1" />
      <path
         sodipodi:nodetypes="ccccc"
         inkscape:connector-curvature="0"
         id="path1420"
         d="M 35.493732,87.506695 69.177994,78.101672 68.41369,75.505952 36.380208,84.482886 Z"
         style="fill:#ffffff;fill-opacity:0.48372097;stroke:none;stroke-width:0.26499999;stroke-linecap:butt;stroke-linejoin:miter;stroke-miterlimit:4;stroke-dasharray:none;stroke-opacity:1" />
      <path
         sodipodi:nodetypes="ccccc"
         inkscape:connector-curvature="0"
         id="path1424"
         d="M 34.937138,89.298168 H 72.496857 L 72.204532,88.295905 H 35.204407 Z"
         style="fill:#000000;fill-opacity:1;stroke:none;stroke-width:0.26499999;stroke-linecap:butt;stroke-linejoin:miter;stroke-miterlimit:4;stroke-dasharray:none;stroke-opacity:1" />
      <path
         sodipodi:nodetypes="cc"
         inkscape:connector-curvature="0"
         id="path1426"
         d="M 35.413211,88.613288 H 71.897876"
         style="fill:none;stroke:#ff2f26;stroke-width:0.26458332px;stroke-linecap:butt;stroke-linejoin:miter;stroke-opacity:1" />
    </g>
  </g>
</svg>
